<?xml version="1.0" encoding="UTF-8"?>
<svg width="256" height="256" viewBox="0 0 256 256" xmlns="http://www.w3.org/2000/svg">
  <title>Adobe Limited Color (6 colors)</title>
  <desc>Generated with Adobe Illustrator Image Trace compatible algorithm</desc>
  <g id="color-1" fill="#dcbd54" stroke="none">
    <path d="M -0 128.004 C -0 256.008, 0 256.008, 128.250 255.754 C 256.500 255.500, 256.500 255.500, 256.754 127.750 C 257.008 0, 257.008 0, 128.504 0 C 0 0, 0 0, -0 128.004 M 0.485 128.500 C 0.485 198.900, 0.604 227.553, 0.750 192.172 C 0.896 156.792, 0.896 99.192, 0.750 64.172 C 0.604 29.153, 0.485 58.100, 0.485 128.500 M 69.898 19.259 C 67.675 20.736, 65.289 23.936, 63 28.509 C 59.500 35.500, 59.500 35.500, 49.350 36 C 41.068 36.408, 38.787 36.868, 36.962 38.500 C 34.596 40.614, 32 45.860, 32 48.525 C 32 49.775, 32.900 50.049, 36.210 49.807 C 39.762 49.548, 40.511 49.109, 41.002 47 C 41.564 44.582, 41.913 44.484, 51.594 44 C 58.459 43.657, 62.382 42.989, 64.078 41.874 C 66.566 40.238, 68.717 36.692, 71.431 29.750 C 72.898 26, 72.898 26, 83.515 26 C 89.354 26, 95.002 25.534, 96.066 24.965 C 98.073 23.891, 98.754 21, 97 21 C 96.450 21, 96 20.100, 96 19 C 96 17.117, 95.333 17, 84.648 17 C 74.531 17, 72.926 17.246, 69.898 19.259 M 108.429 25.893 C 106.190 26.910, 102.991 29.400, 101.321 31.427 C 98.341 35.042, 95.447 42.296, 96.381 43.807 C 96.641 44.228, 99.552 44.680, 102.850 44.810 C 108.846 45.047, 108.846 45.047, 111.173 40.907 C 113.499 36.767, 113.499 36.767, 120.242 37.249 C 124.398 37.547, 127.555 37.304, 128.472 36.616 C 130.281 35.259, 135 28.912, 135 27.837 C 135 27.411, 134.213 27.310, 133.250 27.613 C 131.583 28.137, 131.583 28.095, 133.250 26.721 C 134.213 25.928, 135 24.992, 135 24.640 C 135 24.288, 129.938 24.010, 123.750 24.022 C 114.976 24.039, 111.604 24.451, 108.429 25.893 M 79.690 105.643 C 79.311 106.023, 79 107.362, 79 108.619 C 79 111.896, 72.993 117.299, 62.453 123.502 C 50.331 130.636, 44.143 135.667, 38.553 142.931 C 29.421 154.799, 25.345 168.213, 26.417 182.868 C 27.091 192.078, 30.586 203.800, 34.512 210.019 C 35.894 212.208, 37.223 214, 37.465 214 C 37.706 214, 39.328 211.930, 41.068 209.401 C 44.232 204.802, 44.232 204.802, 42.049 197.445 C 40.847 193.399, 39.616 187.676, 39.311 184.727 C 37.933 171.369, 44.602 153.113, 53.891 144.817 C 56.549 142.443, 63.472 138.103, 69.276 135.173 C 81.511 128.995, 88.139 123.089, 91.809 115.092 C 94.398 109.451, 94.186 107.748, 90.625 105.567 C 89.275 104.740, 88.586 104.899, 87.566 106.271 C 86.842 107.245, 85.969 109.791, 85.627 111.930 C 85.197 114.618, 84.010 116.655, 81.781 118.531 C 78.088 121.638, 72.284 124.617, 71.483 123.817 C 71.185 123.519, 73.229 120.851, 76.026 117.887 C 82.098 111.454, 83.676 108.248, 81.732 106.303 C 80.989 105.560, 80.070 105.263, 79.690 105.643 M 167.748 165.476 C 162.833 167.165, 157.155 171.932, 153.195 177.692 C 151.377 180.337, 147.103 186.550, 143.697 191.500 C 140.290 196.450, 133.452 204.558, 128.501 209.518 C 118.774 219.264, 111.461 223.701, 100.540 226.482 C 92.775 228.460, 80.946 228.415, 73.460 226.380 C 62.900 223.508, 63.444 223.455, 60.576 227.653 C 57.948 231.500, 57.948 231.500, 59.991 233.174 C 62.744 235.430, 72.922 238.690, 81.588 240.093 C 93.570 242.031, 109.663 238.904, 120.557 232.520 C 128.268 228.001, 139.961 217.943, 145.439 211.117 C 148.360 207.478, 154.456 199.325, 158.986 193 C 163.516 186.675, 168.381 180.262, 169.798 178.750 C 173.100 175.225, 177.220 175.129, 180.591 178.500 C 181.966 179.875, 183.295 181, 183.545 181 C 183.795 181, 184 179.193, 184 176.985 C 184 173.841, 183.295 172.211, 180.750 169.466 C 176.682 165.080, 172.570 163.818, 167.748 165.476" fill="#dcbd54" opacity="1"/>
  </g>
  <g id="color-2" fill="#303c3f" stroke="none">
    <path d="M -0 128.004 C -0 256.008, 0 256.008, 128.250 255.754 C 256.500 255.500, 256.500 255.500, 256.754 127.750 C 257.008 0, 257.008 0, 128.504 0 C 0 0, 0 0, -0 128.004 M 0.485 128.500 C 0.485 198.900, 0.604 227.553, 0.750 192.172 C 0.896 156.792, 0.896 99.192, 0.750 64.172 C 0.604 29.153, 0.485 58.100, 0.485 128.500 M 84.655 61.829 C 83.679 62.907, 83 65.347, 83 67.772 C 83 70.874, 83.540 72.265, 85.194 73.423 C 87.176 74.812, 87.561 74.802, 89.194 73.325 C 91.664 71.089, 91.650 63.898, 89.171 61.655 C 88.165 60.745, 87.110 60, 86.826 60 C 86.542 60, 85.565 60.823, 84.655 61.829" fill="#303c3f" opacity="1"/>
  </g>
  <g id="color-3" fill="#d93d87" stroke="none">
    <path d="M -0 128.004 C -0 256.008, 0 256.008, 128.250 255.754 C 256.500 255.500, 256.500 255.500, 256.754 127.750 C 257.008 0, 257.008 0, 128.504 0 C 0 0, 0 0, -0 128.004 M 0.485 128.500 C 0.485 198.900, 0.604 227.553, 0.750 192.172 C 0.896 156.792, 0.896 99.192, 0.750 64.172 C 0.604 29.153, 0.485 58.100, 0.485 128.500 M 133.500 58 C 131.300 59.063, 127.662 59.947, 125.417 59.966 C 123.171 59.985, 121.072 60.262, 120.752 60.582 C 120.432 60.901, 120.860 62.814, 121.704 64.832 C 122.985 67.894, 123.161 72.383, 122.772 92 C 122.362 112.713, 122.051 116.237, 120.153 121.718 C 118.969 125.139, 118 128.459, 118 129.098 C 118 129.936, 120.012 130.064, 125.250 129.558 C 130.056 129.095, 133.872 128.061, 136.570 126.492 C 141.102 123.858, 145.538 118.098, 147.023 112.920 C 147.560 111.046, 148 104.503, 148 98.379 C 148 85.669, 147.672 85.056, 140.457 84.242 C 135.914 83.730, 135.914 83.730, 138.750 82.006 C 143.450 79.148, 146.827 74.339, 147.558 69.463 C 148.305 64.483, 147.601 59.430, 145.872 57.345 C 144.275 55.421, 138.170 55.744, 133.500 58 M 163.500 122.389 C 161.850 123.110, 159.059 124.914, 157.299 126.398 C 154.087 129.105, 145 140.571, 145 141.916 C 145 142.311, 148.037 141.143, 151.750 139.319 C 160.754 134.897, 171.502 133.294, 181.300 134.912 C 191.468 136.592, 200.217 141.209, 208.093 149.052 C 215.397 156.325, 219.943 164.451, 222.610 175 C 224.840 183.821, 224.085 198.990, 220.928 208.793 C 219.659 212.732, 218.928 216.261, 219.303 216.636 C 219.677 217.011, 222.685 217.354, 225.985 217.399 C 231.635 217.476, 232.206 217.261, 235.743 213.722 C 239.500 209.964, 239.500 209.964, 239.500 183.732 C 239.500 158.461, 239.416 157.317, 237.196 152.500 C 234.254 146.114, 230.752 142.452, 224.569 139.298 C 220.954 137.454, 217.084 136.555, 210.069 135.927 C 204.806 135.456, 200.387 135.055, 200.250 135.036 C 200.113 135.016, 200 132.783, 200 130.073 C 200 125.940, 199.575 124.811, 197.365 123.073 C 194.976 121.193, 193.415 121.004, 180.615 121.039 C 171.248 121.065, 165.491 121.519, 163.500 122.389" fill="#d93d87" opacity="1"/>
  </g>
  <g id="color-4" fill="#4ab597" stroke="none">
    <path d="M -0 128.004 C -0 256.008, 0 256.008, 128.250 255.754 C 256.500 255.500, 256.500 255.500, 256.754 127.750 C 257.008 0, 257.008 0, 128.504 0 C 0 0, 0 0, -0 128.004 M 0.485 128.500 C 0.485 198.900, 0.604 227.553, 0.750 192.172 C 0.896 156.792, 0.896 99.192, 0.750 64.172 C 0.604 29.153, 0.485 58.100, 0.485 128.500 M 81.275 44.934 C 76.640 46.088, 73.142 48.645, 70.824 52.574 C 68.809 55.989, 68.778 56, 61.343 56 C 54.440 56, 53.584 55.760, 49.885 52.788 C 46.315 49.919, 45.279 49.599, 40.194 49.802 C 36.227 49.960, 34.121 50.538, 33.250 51.706 C 32.422 52.816, 32 57.214, 32 64.737 C 32 75.458, 32.137 76.228, 34.455 78.545 C 36.860 80.951, 37.238 81, 53.205 81.002 C 66.715 81.003, 70.098 81.302, 73 82.752 C 75.229 83.865, 76.620 85.345, 76.830 86.826 C 77.046 88.356, 77.645 88.966, 78.580 88.608 C 79.425 88.283, 80 88.682, 80 89.593 C 80 90.922, 77.575 91.082, 61.515 90.811 C 47.403 90.574, 42.910 90.189, 42.522 89.187 C 41.697 87.054, 40 88.887, 40 91.911 C 40 95.763, 43.828 101.157, 48.025 103.219 C 50.926 104.643, 54.852 104.966, 71.012 105.107 C 81.730 105.201, 91.063 105.488, 91.750 105.746 C 93.808 106.517, 93.170 112.266, 90.412 117.801 C 88.988 120.658, 85.951 124.610, 83.662 126.583 C 81.373 128.556, 75.379 132.156, 70.342 134.584 C 65.304 137.011, 58.969 140.747, 56.264 142.886 C 45.979 151.016, 38.858 166.617, 38.848 181.046 C 38.844 186.558, 39.565 190.778, 41.522 196.701 C 44.202 204.809, 44.202 204.809, 41.601 208.637 C 40.170 210.742, 39 212.965, 39 213.576 C 39 214.187, 35.850 219.553, 32 225.500 C 28.150 231.447, 25 236.827, 25 237.456 C 25 240.024, 27.620 240.999, 34.450 240.976 C 48.230 240.928, 54.135 238.126, 59.500 229.092 C 61.150 226.313, 63.006 224.031, 63.624 224.020 C 64.243 224.009, 66.718 224.695, 69.124 225.544 C 71.531 226.394, 76.654 227.528, 80.509 228.064 C 89.744 229.349, 101.469 227.345, 110.692 222.905 C 116.033 220.334, 119.881 217.244, 128.550 208.564 C 136.186 200.918, 142.023 193.863, 147.441 185.730 C 155.617 173.458, 160.098 168.693, 165.645 166.375 C 173.217 163.211, 180.843 165.969, 183.059 172.673 C 183.865 175.109, 184.353 182.679, 184.403 193.500 C 184.469 207.751, 184.205 211.008, 182.771 213.642 C 180.997 216.901, 176.790 219, 172.032 219 C 170.564 219, 167.132 219.663, 164.404 220.473 C 158.640 222.184, 153.424 227.035, 151.997 232.011 C 151.252 234.607, 151.378 235.927, 152.537 237.696 C 154.026 239.970, 154.299 240, 173.273 239.990 C 191.753 239.981, 192.714 239.882, 198 237.436 C 203.638 234.828, 214.091 225.510, 216.502 220.942 C 219.618 215.041, 223.122 202.961, 223.881 195.500 C 225.339 181.187, 222.878 169.737, 216.103 159.313 C 208.743 147.990, 198.033 139.359, 187.145 135.975 C 179.504 133.601, 169.630 133.424, 161.589 135.519 C 153.657 137.585, 144.450 142.923, 138.854 148.702 C 136.298 151.341, 130.494 158.675, 125.956 165 C 106.036 192.761, 98.446 199.194, 87.542 197.559 C 82.238 196.763, 77.345 193.636, 74.274 189.078 C 72.547 186.516, 72 184.285, 72 179.802 C 72 176.556, 72.652 172.640, 73.449 171.099 C 75.457 167.215, 80.620 162.890, 89.204 157.902 C 97.042 153.346, 109.383 142.146, 114.143 135.268 C 115.754 132.940, 118.236 127.540, 119.659 123.268 C 121.894 116.560, 122.367 112.840, 123.127 96 C 124.064 75.236, 123.663 67.845, 121.405 64.285 C 120.632 63.067, 120 61.605, 120 61.035 C 120 60.466, 122.146 60, 124.768 60 C 131.208 60, 136.486 56.449, 138.112 51.021 C 139.072 47.816, 139.037 46.750, 137.928 45.413 C 136.786 44.037, 135.554 43.893, 130.529 44.546 C 122.641 45.571, 111.324 45.661, 96.500 44.815 C 89.900 44.439, 83.049 44.492, 81.275 44.934 M 75.438 49.750 C 74.579 50.712, 72.792 53.188, 71.468 55.250 C 69.775 57.887, 69.462 59, 70.415 59 C 71.160 59, 72.555 57.763, 73.514 56.250 C 74.474 54.737, 76.410 52.263, 77.817 50.750 C 79.896 48.514, 80.059 48, 78.687 48 C 77.759 48, 76.297 48.788, 75.438 49.750 M 38.409 60.377 C 38.118 61.134, 38.020 63.947, 38.190 66.627 C 38.456 70.806, 38.820 71.545, 40.750 71.820 C 43.027 72.143, 43.839 70.636, 42 69.500 C 41.450 69.160, 41 66.659, 41 63.941 C 41 59.284, 39.578 57.329, 38.409 60.377 M 84.409 62.377 C 84.118 63.134, 84.020 65.947, 84.190 68.627 C 84.473 73.076, 84.718 73.500, 87 73.500 C 89.368 73.500, 89.516 73.171, 89.798 67.250 C 90.090 61.122, 90.045 61, 87.516 61 C 86.098 61, 84.699 61.620, 84.409 62.377 M 73.559 81.468 C 76.098 83.389, 77.584 83.408, 76 81.500 C 75.315 80.675, 74.049 80, 73.186 80 C 71.931 80, 72.005 80.293, 73.559 81.468" fill="#4ab597" opacity="1"/>
  </g>
  <g id="color-5" fill="#9d737f" stroke="none">
    <path d="M -0 128.004 C -0 256.008, 0 256.008, 128.250 255.754 C 256.500 255.500, 256.500 255.500, 256.754 127.750 C 257.008 0, 257.008 0, 128.504 0 C 0 0, 0 0, -0 128.004 M 0.485 128.500 C 0.485 198.900, 0.604 227.553, 0.750 192.172 C 0.896 156.792, 0.896 99.192, 0.750 64.172 C 0.604 29.153, 0.485 58.100, 0.485 128.500 M 115 37 C 115 37.550, 116.350 38, 118 38 C 119.650 38, 121 37.550, 121 37 C 121 36.450, 119.650 36, 118 36 C 116.350 36, 115 36.450, 115 37 M 123 60 C 123 60.550, 124.575 61, 126.500 61 C 128.425 61, 130 60.550, 130 60 C 130 59.450, 128.425 59, 126.500 59 C 124.575 59, 123 59.450, 123 60 M 122 68.500 C 122 69.325, 122.450 70, 123 70 C 123.550 70, 124 69.325, 124 68.500 C 124 67.675, 123.550 67, 123 67 C 122.450 67, 122 67.675, 122 68.500 M 122 103 C 122 105.750, 122.450 108, 123 108 C 123.550 108, 124 105.750, 124 103 C 124 100.250, 123.550 98, 123 98 C 122.450 98, 122 100.250, 122 103 M 121 114.500 C 121 115.325, 121.450 116, 122 116 C 122.550 116, 123 115.325, 123 114.500 C 123 113.675, 122.550 113, 122 113 C 121.450 113, 121 113.675, 121 114.500 M 169 134 C 169 134.550, 171.250 135, 174 135 C 176.750 135, 179 134.550, 179 134 C 179 133.450, 176.750 133, 174 133 C 171.250 133, 169 133.450, 169 134 M 223 182 C 223 183.100, 223.450 184, 224 184 C 224.550 184, 225 183.100, 225 182 C 225 180.900, 224.550 180, 224 180 C 223.450 180, 223 180.900, 223 182 M 223 194.500 C 223 195.875, 223.450 197, 224 197 C 224.550 197, 225 195.875, 225 194.500 C 225 193.125, 224.550 192, 224 192 C 223.450 192, 223 193.125, 223 194.500 M 238 202 C 238 204.200, 238.450 206, 239 206 C 239.550 206, 240 204.200, 240 202 C 240 199.800, 239.550 198, 239 198 C 238.450 198, 238 199.800, 238 202" fill="#9d737f" opacity="1"/>
  </g>
  <g id="color-6" fill="#74bb90" stroke="none">
    <path d="M -0 128.004 C -0 256.008, 0 256.008, 128.250 255.754 C 256.500 255.500, 256.500 255.500, 256.754 127.750 C 257.008 0, 257.008 0, 128.504 0 C 0 0, 0 0, -0 128.004 M 0.485 128.500 C 0.485 198.900, 0.604 227.553, 0.750 192.172 C 0.896 156.792, 0.896 99.192, 0.750 64.172 C 0.604 29.153, 0.485 58.100, 0.485 128.500 M 84 45 C 84 45.564, 86.833 46, 90.500 46 C 94.167 46, 97 45.564, 97 45 C 97 44.436, 94.167 44, 90.500 44 C 86.833 44, 84 44.436, 84 45 M 129 44.940 C 129 45.456, 130.688 46.019, 132.750 46.190 C 136.500 46.500, 136.500 46.500, 132.750 48.832 C 129.067 51.122, 127.717 54, 130.326 54 C 131.055 54, 132.678 52.908, 133.932 51.572 C 135.187 50.237, 136.840 49.385, 137.606 49.679 C 139.353 50.349, 139.502 46.902, 137.800 45.200 C 136.388 43.788, 129 43.570, 129 44.940 M 76.365 46.924 C 72.670 49.171, 68.984 53.684, 69.045 55.885 C 69.078 57.092, 69.520 56.900, 70.795 55.122 C 73.561 51.263, 77.409 47.366, 79.010 46.800 C 79.829 46.511, 80.254 46.004, 79.954 45.674 C 79.653 45.344, 78.038 45.907, 76.365 46.924 M 32.006 52.484 C 31.453 53.939, 31 59.636, 31 65.142 C 31 74.966, 31.057 75.211, 34.045 78.199 C 35.720 79.873, 37.332 81.001, 37.628 80.705 C 37.924 80.409, 37.191 79.191, 35.999 77.999 C 33.982 75.982, 33.859 75.057, 34.214 64.666 C 34.424 58.525, 34.799 52.881, 35.048 52.125 C 35.296 51.369, 34.940 50.545, 34.256 50.294 C 33.572 50.043, 32.560 51.028, 32.006 52.484 M 47.438 51.900 C 47.862 52.585, 47.199 53, 45.681 53 C 44.341 53, 42.678 53.683, 41.984 54.519 C 40.951 55.764, 41.064 56.421, 42.612 58.165 C 44.019 59.750, 44.171 60.407, 43.209 60.743 C 42.328 61.051, 42.759 61.974, 44.565 63.648 C 46.717 65.642, 48.066 66.045, 51.778 65.800 C 54.307 65.634, 56.527 64.942, 56.755 64.250 C 56.981 63.563, 56.484 63, 55.651 63 C 53.947 63, 52.518 59.589, 53.533 57.946 C 53.898 57.356, 53.369 55.961, 52.359 54.844 C 50.206 52.465, 46.369 50.169, 47.438 51.900 M 111.429 53.890 C 109.818 54.872, 107.882 56.424, 107.128 57.338 C 106.373 58.252, 104.965 59, 104 59 C 100.240 59, 99.671 61.474, 99.749 77.485 C 99.791 85.948, 100.110 93.773, 100.460 94.874 C 100.809 95.975, 100.193 99.941, 99.090 103.688 C 97.988 107.435, 96.614 112.357, 96.037 114.627 C 95.294 117.553, 93.386 120.313, 89.485 124.105 C 83.609 129.815, 79.534 132.448, 78.020 131.512 C 76.990 130.876, 59.527 139.339, 58.525 140.960 C 58.140 141.583, 58.594 141.724, 59.698 141.323 C 60.689 140.964, 58.675 143.497, 55.222 146.954 C 51.005 151.176, 47.887 155.490, 45.722 160.099 C 43.950 163.873, 41.938 166.969, 41.250 166.980 C 40.563 166.991, 40 167.450, 40 168 C 40 168.550, 40.450 169, 41 169 C 41.550 169, 41.964 170.012, 41.921 171.250 C 41.878 172.488, 41.615 172.938, 41.338 172.250 C 40.635 170.509, 39 170.684, 39 172.500 C 39 173.325, 39.450 174, 40 174 C 40.550 174, 40.933 175.912, 40.850 178.250 C 40.745 181.234, 40.576 181.681, 40.284 179.750 C 39.650 175.566, 38 176.469, 38 181 C 38 184.844, 39.286 186.356, 40.338 183.750 C 40.615 183.063, 40.878 183.738, 40.921 185.250 C 40.964 186.762, 40.550 188, 40 188 C 39.450 188, 39 188.675, 39 189.500 C 39 190.325, 39.498 191, 40.107 191 C 40.716 191, 40.942 191.708, 40.610 192.573 C 40.279 193.438, 40.957 196.354, 42.118 199.053 C 43.279 201.752, 43.969 204.638, 43.652 205.466 C 43.171 206.719, 43.395 206.771, 44.992 205.773 C 46.046 205.115, 47.241 204.907, 47.646 205.313 C 48.720 206.386, 46.115 212.947, 43.007 217 C 41.531 218.925, 37.703 224.212, 34.501 228.750 C 31.298 233.287, 28.278 237, 27.790 237 C 26.758 237, 26.474 237.501, 35.326 223.725 C 39.959 216.515, 42.031 212.362, 41.774 210.801 C 41.418 208.636, 41.280 208.698, 39.448 211.861 C 38.376 213.709, 34.462 219.967, 30.750 225.767 C 27.037 231.567, 24 236.862, 24 237.534 C 24 238.205, 24.708 239.342, 25.573 240.060 C 26.847 241.118, 28.126 241.131, 32.323 240.131 C 35.170 239.452, 41.087 238.442, 45.472 237.886 C 49.856 237.331, 54.093 236.342, 54.887 235.688 C 55.681 235.035, 57.845 232.137, 59.696 229.250 C 61.547 226.362, 63.287 224, 63.562 224 C 63.838 224, 66.675 224.880, 69.867 225.955 C 87.682 231.957, 106.899 228.142, 122.307 215.545 C 130.052 209.213, 139.531 197.976, 148.785 184.155 C 152.963 177.916, 157.783 171.742, 159.495 170.436 C 164.559 166.574, 169.806 164.791, 174.018 165.503 C 179.917 166.500, 182.242 169.779, 183.430 178.784 C 183.991 183.028, 184.407 191.921, 184.355 198.547 C 184.251 211.977, 182.858 216.496, 178.482 217.594 C 175.328 218.385, 175.250 220, 178.365 220 C 181.848 220, 185.787 216.427, 186.960 212.205 C 187.526 210.167, 187.991 203.423, 187.994 197.218 C 187.998 189.440, 187.534 184.821, 186.500 182.346 C 184.867 178.436, 184.490 173, 185.852 173 C 186.321 173, 188.217 174.019, 190.066 175.265 C 192.655 177.010, 193.852 178.906, 195.274 183.515 C 196.867 188.678, 196.971 190.462, 196.029 196.500 C 195.429 200.350, 194.724 204.954, 194.462 206.732 C 193.588 212.658, 190.008 220.466, 187.231 222.500 C 185.045 224.101, 182.903 224.504, 176.500 224.519 C 167.291 224.541, 163.584 226.057, 159.433 231.499 C 157.964 233.425, 156.307 235, 155.750 235 C 155.142 235, 154.976 233.506, 155.334 231.250 C 155.722 228.810, 157.024 226.515, 159.061 224.679 C 160.782 223.127, 161.963 221.630, 161.684 221.351 C 161.406 221.072, 159.347 222.499, 157.109 224.521 C 152.137 229.013, 150.309 234.296, 152.546 237.710 C 154.254 240.318, 156.889 240.613, 160.800 238.634 C 163.856 237.087, 172.587 235.918, 184.805 235.419 C 192.654 235.099, 193.076 235.187, 192.491 237.028 C 191.939 238.768, 192.226 238.906, 195.187 238.327 C 197.009 237.971, 199.625 236.998, 201 236.165 C 204.906 233.801, 214.990 223.808, 216.651 220.654 C 217.476 219.089, 219.519 213.689, 221.191 208.654 C 223.767 200.901, 224.244 197.893, 224.310 189 C 224.396 177.397, 223.054 171.883, 217.628 161.537 C 213.305 153.295, 202.755 142.989, 194.461 138.906 C 188.374 135.909, 187.545 135.741, 184.656 136.910 C 182.920 137.613, 178.788 139.210, 175.473 140.460 C 172.159 141.709, 167.659 143.650, 165.473 144.773 C 158.757 148.224, 149.804 157.248, 139.276 171.178 C 133.738 178.505, 125.221 188.639, 120.349 193.698 C 109.643 204.814, 104.521 207.572, 96.364 206.613 C 90.566 205.932, 84.661 203.155, 84.223 200.905 C 84.010 199.809, 84.945 199.561, 88.295 199.827 C 94.763 200.342, 100.176 198.478, 105.290 193.976 C 110.652 189.256, 120.709 176.737, 130.979 162 C 135.003 156.225, 140.817 149.085, 143.898 146.132 C 148.157 142.052, 148.781 141.134, 146.500 142.304 C 142.005 144.610, 135.160 152.172, 125.956 165 C 106.036 192.761, 98.446 199.194, 87.542 197.559 C 82.238 196.763, 77.345 193.636, 74.274 189.078 C 72.547 186.516, 72 184.285, 72 179.802 C 72 176.556, 72.652 172.640, 73.449 171.099 C 75.439 167.250, 80.254 163.231, 88.518 158.519 C 92.956 155.989, 98.961 151.071, 105 145.019 C 110.225 139.784, 115.313 134.037, 116.307 132.250 C 119.330 126.811, 116.735 128.720, 113 134.684 C 108.490 141.883, 98.769 150.253, 86.603 157.414 C 80.074 161.256, 75.976 164.431, 73.970 167.201 C 72.336 169.455, 71 170.592, 71 169.727 C 71 168.122, 74.894 162.928, 78.500 159.722 C 79.600 158.744, 83.615 155.865, 87.423 153.324 C 95.929 147.648, 109.301 134.458, 114.309 126.803 C 116.359 123.670, 118.790 120.352, 119.713 119.430 C 120.635 118.508, 121.513 117.022, 121.665 116.127 C 123.913 102.855, 124.727 74.021, 123.021 68.073 C 122.476 66.174, 120.437 63.336, 118.426 61.678 C 115.406 59.189, 114.903 58.235, 115.372 55.888 C 115.682 54.342, 115.580 52.858, 115.147 52.591 C 114.713 52.323, 113.040 52.907, 111.429 53.890 M 55 57 C 55 57.556, 57.667 58, 61 58 C 64.333 58, 67 57.556, 67 57 C 67 56.444, 64.333 56, 61 56 C 57.667 56, 55 56.444, 55 57 M 76.287 85.370 C 76.954 86.808, 77.838 87.988, 78.250 87.992 C 79.615 88.006, 79.029 86.336, 77.037 84.533 C 75.117 82.796, 75.100 82.814, 76.287 85.370 M 39.667 89.667 C 39.300 90.033, 39 91.375, 39 92.649 C 39 95.242, 47.521 104.812, 48.742 103.591 C 49.157 103.176, 48.812 102.311, 47.975 101.668 C 44.812 99.240, 42 94.627, 42 91.865 C 42 89.117, 41.082 88.252, 39.667 89.667 M 54.029 94.882 C 53.220 95.437, 52.799 96.132, 53.093 96.427 C 53.388 96.721, 58.325 97.022, 64.064 97.096 C 79.812 97.298, 81.570 97.170, 80.311 95.911 C 78.857 94.457, 55.956 93.561, 54.029 94.882 M 51 104 C 51 104.613, 55.833 105, 63.500 105 C 71.167 105, 76 104.613, 76 104 C 76 103.387, 71.167 103, 63.500 103 C 55.833 103, 51 103.387, 51 104 M 79 105 C 79 105.550, 79.675 106, 80.500 106 C 81.325 106, 82 105.550, 82 105 C 82 104.450, 81.325 104, 80.500 104 C 79.675 104, 79 104.450, 79 105 M 89.668 118.570 C 88.732 120.533, 88.427 121.854, 88.990 121.506 C 90.446 120.606, 93.221 115, 92.211 115 C 91.749 115, 90.604 116.606, 89.668 118.570 M 79.441 129.468 C 78.374 130.276, 78.007 130.951, 78.628 130.968 C 79.248 130.986, 80.315 130.325, 81 129.500 C 82.581 127.595, 81.935 127.582, 79.441 129.468 M 52.437 146.250 C 49.500 149.500, 49.500 149.500, 52.750 146.563 C 55.779 143.825, 56.460 143, 55.687 143 C 55.515 143, 54.052 144.463, 52.437 146.250 M 46.388 153.531 C 45.475 154.923, 44.982 156.315, 45.291 156.624 C 45.600 156.933, 46.572 155.794, 47.452 154.093 C 49.380 150.364, 48.698 150.004, 46.388 153.531 M 42.638 160.500 C 42.322 161.325, 42.451 162, 42.924 162 C 43.398 162, 44.045 161.325, 44.362 160.500 C 44.678 159.675, 44.549 159, 44.076 159 C 43.602 159, 42.955 159.675, 42.638 160.500 M 168 220 C 168 220.550, 169.350 221, 171 221 C 172.650 221, 174 220.550, 174 220 C 174 219.450, 172.650 219, 171 219 C 169.350 219, 168 219.450, 168 220" fill="#74bb90" opacity="1"/>
  </g>
</svg>