<svg width="300" height="300" viewBox="0 0 300 300" xmlns="http://www.w3.org/2000/svg">
	<path d="M 0 150 L 0 300 121.084 300 L 242.168 300 239.022 296.027 C 237.082 293.578, 226.216 285.468, 210.687 274.879 C 167.733 245.587, 155.745 236.855, 156.903 235.697 C 157.636 234.964, 158.488 235.109, 159.726 236.179 C 162.559 238.625, 198.322 263.231, 225.320 281.309 C 247.993 296.491, 249.894 297.981, 247.319 298.551 C 245.768 298.894, 244.050 299.329, 243.500 299.517 C 242.950 299.705, 255.550 299.778, 271.500 299.679 L 300.500 299.500 300.753 149.750 L 301.007 -0 150.503 -0 L 0 0 0 150 M 0.487 150.500 C 0.487 233, 0.605 266.602, 0.750 225.172 C 0.894 183.741, 0.894 116.241, 0.750 75.172 C 0.605 34.102, 0.487 68, 0.487 150.500 M 97 7.304 C 97 7.590, 98.508 11.350, 100.350 15.661 C 102.193 19.973, 105.360 28, 107.388 33.500 C 111.987 45.972, 115.532 50.828, 125.849 58.789 L 134 65.079 133.968 59.289 C 133.937 53.507, 133.931 53.497, 129.421 50.759 C 120.267 45.203, 118.158 31.217, 124.870 20.588 C 130.016 12.441, 130.182 13, 122.613 13 C 117.067 13, 105.056 10.251, 98.750 7.539 C 97.787 7.125, 97 7.019, 97 7.304 M 192 9.743 C 187.875 11.072, 180.758 12.461, 176.184 12.830 L 167.868 13.500 172.061 19.980 C 178.937 30.607, 176.908 43.492, 167.255 50.500 C 163.560 53.182, 163.131 53.924, 163.203 57.500 L 163.284 61.500 163.892 57.662 C 164.624 53.041, 168.015 50.675, 171.829 52.125 C 173.426 52.732, 174.795 52.661, 175.872 51.914 C 176.767 51.293, 174.371 53.759, 170.546 57.393 C 162.250 65.276, 162.731 66.164, 171.284 58.754 C 178.683 52.344, 182.601 46.364, 188.592 32.339 C 191.122 26.415, 194.753 18.470, 196.660 14.682 C 198.568 10.894, 199.987 7.690, 199.814 7.561 C 199.641 7.432, 196.125 8.414, 192 9.743 M 70.330 33.250 C 62.671 41.790, 63.669 46.729, 71.644 39.750 C 74.970 36.840, 75.182 36.770, 73.676 39.080 C 71.465 42.469, 72.729 43.603, 75.654 40.856 L 77.956 38.693 75.794 34.847 C 73.269 30.354, 72.999 30.275, 70.330 33.250 M 125 50.829 C 125 52.191, 121.966 53.179, 120.584 52.267 C 118.958 51.193, 124.737 56.422, 129.250 60.106 L 133 63.168 133 58.768 C 133 54.676, 132.720 54.211, 129 52.120 C 126.800 50.884, 125 50.303, 125 50.829 M 109.486 55.657 C 104.863 60.280, 103.624 68.923, 107.223 71.443 C 111.450 74.404, 113.401 73.484, 116.459 67.086 L 119.285 61.173 117.342 57.836 C 115.098 53.983, 112.015 53.128, 109.486 55.657 M 181.741 56.861 C 179.438 60.760, 179.534 62.148, 182.517 68.033 C 185.434 73.790, 188.211 74.533, 191.947 70.556 C 194.701 67.625, 194.261 63.174, 190.693 57.862 C 187.639 53.315, 184.072 52.916, 181.741 56.861 M 108.965 59.250 C 105.625 64.661, 105.390 67.087, 108.001 69.202 C 111.108 71.718, 112.098 71.213, 114.858 65.702 C 119.123 57.183, 113.822 51.380, 108.965 59.250 M 182.200 57.607 C 180.342 60.927, 184.492 70, 187.868 70 C 192.246 70, 193.387 66.590, 190.770 61.327 C 188.125 56.008, 184.078 54.252, 182.200 57.607 M 120 67.514 C 120 68.260, 130.634 73.008, 132.186 72.954 C 132.909 72.929, 130.626 71.579, 127.114 69.954 C 120.352 66.826, 120 66.705, 120 67.514 M 172 69.548 C 169.525 70.865, 168.080 71.956, 168.790 71.972 C 170.244 72.004, 178 68.220, 178 67.480 C 178 66.620, 176.576 67.111, 172 69.548 M 198.650 85.271 C 202.410 92.844, 205.639 98.582, 205.827 98.020 C 206.181 96.957, 194.622 74.253, 192.834 72.500 C 192.273 71.950, 194.890 77.697, 198.650 85.271 M 101.153 85.743 C 96.369 96.671, 94.768 101.773, 96.852 99.450 C 98.043 98.123, 107.181 74.847, 106.700 74.366 C 106.484 74.150, 103.988 79.270, 101.153 85.743 M 107.769 77.358 C 104.777 83.632, 97.797 102.130, 98.250 102.583 C 98.499 102.832, 101.300 96.709, 104.475 88.975 C 109.690 76.271, 111.748 69.015, 107.769 77.358 M 190.032 74.416 C 190.014 74.921, 192.415 80.546, 195.366 86.916 C 198.317 93.287, 201.047 99.513, 201.433 100.750 C 201.819 101.987, 202.517 103, 202.984 103 C 205.260 103, 204.256 99.544, 198.916 89 C 193.186 77.687, 190.094 72.611, 190.032 74.416 M 134 79.500 C 134.685 80.325, 134.910 81, 134.500 81 C 134.090 81, 134.315 81.675, 135 82.500 C 135.685 83.325, 136.977 83.993, 137.872 83.985 C 139.146 83.973, 139.210 83.785, 138.165 83.123 C 137.165 82.489, 137.415 82.102, 139.165 81.574 C 141.387 80.906, 141.330 80.805, 138 79.512 C 133.350 77.705, 132.509 77.703, 134 79.500 M 161.500 79.484 C 157.523 80.752, 157.516 80.763, 160.243 81.486 C 161.752 81.886, 162.738 82.615, 162.434 83.107 C 161.472 84.664, 163.697 84.070, 165.084 82.399 C 166.536 80.649, 167.217 77.938, 166.162 78.105 C 165.798 78.163, 163.700 78.783, 161.500 79.484 M 128.345 80.544 C 127.101 83.785, 130.728 88.075, 137.660 91.561 C 138.298 91.882, 140.188 91.437, 141.860 90.572 C 145.658 88.609, 146.594 88.579, 145.023 90.472 C 143.773 91.978, 146.809 97.132, 149.677 98.372 C 151.689 99.242, 156.400 92.187, 154.963 90.455 C 153.401 88.574, 154.136 88.620, 158.444 90.675 C 161.769 92.261, 162.064 92.252, 163.978 90.520 C 165.354 89.275, 166 89.103, 166 89.983 C 166 90.693, 167.350 89.576, 169 87.500 C 171.830 83.939, 172.979 80, 171.188 80 C 170.741 80, 169.339 81.403, 168.072 83.117 C 165.936 86.006, 165.429 86.196, 161.140 85.712 C 158.595 85.425, 155.741 85.604, 154.798 86.108 C 153.513 86.796, 152.814 86.521, 152.007 85.013 C 151.414 83.906, 150.383 83.007, 149.715 83.015 C 148.853 83.026, 148.887 83.276, 149.834 83.876 C 151.717 85.070, 148.602 86.189, 145.537 85.420 C 144.270 85.102, 141.516 85.316, 139.417 85.895 C 135.444 86.992, 132 85.400, 132 82.467 C 132 80.097, 129.101 78.572, 128.345 80.544 M 179.241 82.076 C 177.773 86.068, 173.403 91.878, 174.409 88.500 L 175.005 86.500 173.429 88.500 C 170.965 91.628, 169.596 94.368, 170.900 93.562 C 172.386 92.643, 172.287 93.801, 170.406 99.323 C 169.529 101.896, 168.409 103.753, 167.917 103.449 C 167.425 103.145, 167.280 103.567, 167.595 104.387 C 167.910 105.207, 167.658 106.693, 167.036 107.689 C 166.051 109.266, 165.976 109.177, 166.458 107 C 167.004 104.530, 166.997 104.527, 165.852 106.750 C 165.150 108.115, 163.772 109, 162.347 109 C 160.126 109, 160.004 109.336, 160.079 115.250 L 160.158 121.500 161.664 117.244 C 162.493 114.903, 163.540 113.216, 163.992 113.495 C 164.444 113.774, 164.591 113.153, 164.320 112.114 C 164.048 111.076, 164.391 109.876, 165.083 109.449 C 165.968 108.902, 166.151 109.164, 165.701 110.336 C 164.526 113.399, 165.800 112.045, 169.023 106.808 C 170.781 103.952, 172.346 100.689, 172.503 99.558 C 172.659 98.426, 173.736 95.700, 174.896 93.500 C 176.804 89.882, 176.947 89.786, 176.395 92.500 C 175.493 96.930, 178.347 92.913, 179.984 87.448 C 181.675 81.805, 181.037 77.192, 179.241 82.076 M 119.312 83.608 C 119.896 88.830, 123.007 95.607, 124.046 93.925 C 124.552 93.106, 125.321 93.721, 126.399 95.805 C 128.257 99.397, 128.409 100.371, 126.973 99.483 C 126.408 99.134, 127.767 101.667, 129.994 105.112 C 134.698 112.391, 135.336 113.153, 134.471 110.470 C 133.844 108.524, 133.856 108.523, 135.418 110.441 C 137.312 112.766, 137.487 114.364, 135.750 113.485 C 135.063 113.137, 135.175 113.449, 136 114.179 C 136.825 114.910, 137.645 116.167, 137.823 116.973 C 138.887 121.798, 139.942 120.951, 139.970 115.250 C 139.999 109.242, 139.903 109, 137.500 109 C 136.125 109, 135 108.523, 135 107.941 C 135 107.359, 134.474 107.207, 133.830 107.605 C 133.036 108.096, 132.872 107.776, 133.319 106.612 C 133.681 105.668, 133.583 105.140, 133.101 105.438 C 131.894 106.183, 127.634 95.395, 128.374 93.468 C 128.885 92.136, 124.532 84, 123.308 84 C 122.799 84, 123.645 85.515, 126.273 89.308 C 127.343 90.852, 128.008 92.325, 127.752 92.582 C 127.086 93.247, 125.409 91.036, 121.906 84.874 L 118.851 79.500 119.312 83.608 M 137 93.961 C 134.129 94.532, 133.830 94.804, 135.337 95.469 C 136.493 95.980, 138.345 95.697, 140.337 94.704 C 143.688 93.034, 142.726 92.820, 137 93.961 M 157.334 93.732 C 158.339 95.358, 162.886 96.167, 164.788 95.059 C 166.258 94.202, 166.147 94.055, 164 94.017 C 162.625 93.993, 160.417 93.683, 159.094 93.329 C 157.535 92.912, 156.915 93.054, 157.334 93.732 M 180.750 101.723 C 182.537 101.945, 185.463 101.945, 187.250 101.723 C 189.037 101.502, 187.575 101.320, 184 101.320 C 180.425 101.320, 178.963 101.502, 180.750 101.723 M 198.148 109.789 C 191.105 116.917, 186 125.252, 186 129.621 C 186 131.319, 188.377 129.003, 188.681 127.008 C 189.135 124.031, 190 123.041, 190 125.497 C 190 126.811, 191.905 125.496, 196.750 120.837 C 200.463 117.266, 204.248 113.930, 205.163 113.423 C 206.852 112.486, 208.102 103.769, 206.743 102.409 C 206.382 102.049, 202.515 105.370, 198.148 109.789 M 143.714 103.619 C 142.350 104.983, 146.100 107, 150 107 C 153.900 107, 157.650 104.983, 156.286 103.619 C 155.945 103.279, 153.117 103, 150 103 C 146.883 103, 144.055 103.279, 143.714 103.619 M 239.981 113.132 C 235.317 115.883, 227.726 119.904, 223.113 122.066 C 218.499 124.229, 201.065 133.761, 184.368 143.249 C 156.055 159.339, 154.205 160.558, 156.892 161.362 C 159.413 162.117, 161.625 161.195, 174.636 153.969 C 182.811 149.429, 189.838 145.527, 190.250 145.298 C 190.662 145.069, 191 145.082, 191 145.327 C 191 145.572, 187.816 147.664, 183.923 149.976 C 173.131 156.388, 176.518 156.009, 188.202 149.498 C 227.131 127.805, 247.777 114.863, 248.397 111.765 C 249.239 107.557, 249.506 107.514, 239.981 113.132 M 51.505 111.978 C 50.693 115.674, 51.670 119, 53.567 119 C 54.531 119, 55 117.882, 55 115.582 C 55 113.702, 55.273 111.452, 55.607 110.582 C 56.037 109.460, 55.624 109, 54.186 109 C 52.750 109, 51.968 109.868, 51.505 111.978 M 209.257 116.687 C 206.978 118.165, 205.346 119.751, 205.631 120.212 C 205.916 120.672, 205.768 120.926, 205.302 120.775 C 204.836 120.624, 202.728 122.409, 200.618 124.742 C 198.509 127.075, 196.312 128.693, 195.737 128.337 C 195.162 127.982, 194.972 128.145, 195.315 128.700 C 195.658 129.255, 194.827 130.753, 193.469 132.029 C 190.853 134.487, 190.021 138.590, 192.318 137.708 C 193.042 137.430, 198.259 134.457, 203.911 131.101 C 209.562 127.746, 214.594 125, 215.093 125 C 216.146 125, 216.251 123.817, 215.395 121.588 C 215.063 120.721, 214.388 120.260, 213.895 120.565 C 213.403 120.869, 213 120.882, 213 120.594 C 213 120.306, 213.856 119.612, 214.902 119.053 C 216.517 118.188, 216.726 118.331, 216.288 120.005 C 215.645 122.467, 218.086 123.559, 220.884 122.062 C 223.467 120.680, 222.414 117.079, 218.896 115.265 C 215.407 113.466, 213.876 113.692, 209.257 116.687 M 70.768 117.725 C 72.565 117.947, 75.265 117.943, 76.768 117.715 C 78.271 117.486, 76.800 117.304, 73.500 117.310 C 70.200 117.315, 68.971 117.502, 70.768 117.725 M 194.570 125 C 190.837 128.850, 187.135 132, 186.343 132 C 184.565 132, 182.086 137.614, 182.747 140.142 C 183.748 143.967, 187.685 141.840, 188.654 136.950 C 189.304 133.670, 189.243 133.572, 187.419 134.956 C 185.300 136.565, 189.765 131.356, 197.452 123.250 C 200.191 120.362, 202.190 118, 201.895 118 C 201.600 118, 198.304 121.150, 194.570 125 M 145.200 121.200 C 144.540 121.860, 144 123.196, 144 124.169 C 144 125.330, 143.485 125.740, 142.500 125.362 C 141.413 124.945, 141 125.475, 141 127.286 C 141 130.700, 143.637 131.582, 144.427 128.433 C 145.369 124.683, 154.651 124.761, 155.596 128.527 C 156.113 130.585, 156.496 130.833, 157.663 129.864 C 159.300 128.506, 159.030 124.389, 157.326 124.717 C 156.707 124.836, 155.921 123.823, 155.581 122.467 C 154.886 119.699, 147.591 118.809, 145.200 121.200 M 113.929 130.250 C 112.719 134.731, 113.367 145.949, 115.014 149.025 C 117.851 154.328, 136.966 156.791, 145.798 152.992 C 150.525 150.958, 152.842 148.023, 149.750 147.985 C 148.901 147.974, 148.981 147.626, 150 146.898 C 151.171 146.062, 150.952 145.961, 149 146.439 C 147.625 146.776, 144.349 147.329, 141.721 147.668 C 139.092 148.008, 136.703 148.671, 136.412 149.143 C 135.682 150.324, 130.288 150.208, 125.612 148.909 C 122.571 148.065, 121.547 148.115, 120.916 149.136 C 120.472 149.854, 119.760 150.093, 119.333 149.667 C 118.907 149.240, 119.082 148.567, 119.724 148.171 C 121.083 147.331, 120.885 144.782, 119.311 142.851 C 116.706 139.658, 114.917 133.448, 115.540 129.763 C 116.400 124.672, 115.350 124.990, 113.929 130.250 M 227.032 128.750 C 227.014 129.438, 226.225 130, 225.277 130 C 223.834 130, 223.901 130.243, 225.696 131.500 C 226.874 132.325, 228.662 132.732, 229.669 132.405 C 230.776 132.046, 231.059 132.145, 230.383 132.656 C 229.769 133.120, 229.319 134.625, 229.383 136 C 229.557 139.718, 224.918 140.009, 221.409 136.500 C 219.018 134.109, 215.050 133.654, 216.458 135.932 C 216.780 136.453, 216.246 136.834, 215.272 136.780 C 212.871 136.645, 206.194 140.768, 204.902 143.183 C 204.001 144.867, 205.001 146.336, 212.148 153.819 C 222.080 164.216, 220.720 163.516, 226.094 160.997 C 233.676 157.443, 234.524 156.702, 234.199 153.914 C 233.491 147.823, 240.622 148.525, 243.487 154.828 C 244.030 156.023, 244.848 157, 245.305 157 C 247.482 157, 241.198 144.194, 235.894 137.821 C 233.752 135.247, 232 132.659, 232 132.071 C 232 131.482, 231.487 131, 230.860 131 C 230.233 131, 229.123 130.213, 228.392 129.250 C 227.581 128.181, 227.051 127.987, 227.032 128.750 M 170.750 133.064 C 166.007 135.512, 165 136.483, 165 138.607 L 165 141.182 171.250 137.680 C 175.337 135.389, 177.611 133.454, 177.820 132.088 C 178.229 129.411, 177.680 129.487, 170.750 133.064 M 197.582 146.317 C 195.907 147.541, 196.131 148.049, 200.771 153.567 C 209.581 164.042, 212.454 166.363, 214.954 165.025 C 217.770 163.517, 217.815 163.600, 208.675 153.579 C 200.245 144.338, 200.268 144.353, 197.582 146.317 M 191.107 150.371 C 190.231 151.427, 190.450 152.287, 192.061 154.121 C 193.211 155.429, 193.824 155.868, 193.422 155.095 C 192.937 154.164, 193.085 153.934, 193.862 154.415 C 194.506 154.813, 194.809 155.500, 194.536 155.942 C 194.262 156.385, 196.528 159.100, 199.570 161.977 C 202.611 164.854, 206.522 169.749, 208.260 172.854 C 211.651 178.914, 213.824 181.180, 215.637 180.547 C 216.285 180.320, 216.589 180.870, 216.344 181.825 C 215.452 185.300, 218.358 191.192, 220.266 189.776 C 222.736 187.943, 220.556 181.427, 216.189 177.593 C 214.360 175.987, 211.555 172.080, 209.954 168.909 C 208.354 165.739, 206.577 162.857, 206.006 162.504 C 205.435 162.151, 205.269 161.373, 205.638 160.776 C 206.021 160.157, 205.847 159.976, 205.233 160.356 C 204.638 160.724, 201.817 158.333, 198.928 155.011 C 193.313 148.554, 192.845 148.277, 191.107 150.371 M 112.207 161.159 C 108.955 171.472, 107.511 177.961, 108.799 176.469 C 109.259 175.936, 110.233 173.025, 110.964 170 C 111.695 166.975, 113.154 161.864, 114.206 158.643 C 115.258 155.421, 115.901 152.568, 115.635 152.302 C 115.369 152.036, 113.827 156.022, 112.207 161.159 M 281.500 160.197 C 271.830 167.335, 236.924 183.939, 174.750 210.976 C 153.611 220.168, 151 221.557, 151 223.607 L 151 225.911 158.250 222.861 C 190.214 209.416, 226.268 193.890, 234.889 189.859 C 240.603 187.186, 245.553 185.039, 245.889 185.087 C 246.225 185.134, 241.100 187.786, 234.500 190.980 C 226.489 194.856, 223.024 197.002, 224.075 197.433 C 225.013 197.818, 231.882 195.178, 241.075 190.899 C 249.559 186.949, 257.470 183.669, 258.655 183.609 C 259.839 183.549, 260.553 183.086, 260.240 182.580 C 259.926 182.071, 260.438 181.954, 261.388 182.319 C 262.544 182.762, 262.870 182.599, 262.388 181.819 C 261.905 181.038, 262.231 180.875, 263.388 181.319 C 264.544 181.762, 264.870 181.599, 264.388 180.819 C 263.905 180.038, 264.231 179.875, 265.388 180.319 C 266.544 180.762, 266.870 180.599, 266.388 179.819 C 265.905 179.038, 266.231 178.875, 267.388 179.319 C 268.544 179.762, 268.870 179.599, 268.388 178.819 C 267.905 178.038, 268.231 177.875, 269.388 178.319 C 270.544 178.762, 270.870 178.599, 270.388 177.819 C 269.905 177.038, 270.231 176.875, 271.388 177.319 C 272.544 177.762, 272.870 177.599, 272.388 176.819 C 271.905 176.038, 272.231 175.875, 273.388 176.319 C 274.544 176.762, 274.870 176.599, 274.388 175.819 C 273.905 175.038, 274.231 174.875, 275.388 175.319 C 276.516 175.751, 276.867 175.594, 276.413 174.859 C 275.994 174.181, 276.269 173.935, 277.111 174.233 C 281.151 175.665, 287.104 167.682, 289.402 157.750 C 290.265 154.020, 289.583 154.231, 281.500 160.197 M 123.554 161.750 C 122.558 164.912, 121.509 168.175, 121.224 169 C 120.876 170.007, 121.039 170.171, 121.720 169.500 C 122.278 168.950, 123.421 166.475, 124.261 164 C 125.101 161.525, 126.109 158.713, 126.501 157.750 C 126.893 156.787, 126.798 156, 126.290 156 C 125.781 156, 124.550 158.588, 123.554 161.750 M 232 158.987 C 232 159.529, 230.313 160.678, 228.250 161.540 C 226.188 162.401, 223.290 164.265, 221.811 165.682 C 218.938 168.434, 218.891 167.948, 222.590 173.809 C 222.697 173.979, 226.483 173.416, 231.003 172.559 C 235.523 171.702, 241.871 171, 245.110 171 C 252.015 171, 252.442 170.021, 248.801 162.527 C 246.380 157.544, 245.574 157.171, 242.752 159.724 C 240.948 161.357, 240.687 161.357, 237.842 159.724 C 234.495 157.803, 232 157.488, 232 158.987 M 143.500 162.201 C 141.850 162.800, 138.925 164.495, 137 165.967 C 135.075 167.439, 132.052 169.222, 130.283 169.929 C 125.134 171.987, 124.860 172.886, 127.101 180.354 C 129.586 188.637, 131.822 189.997, 138.663 187.384 C 141.073 186.464, 142.814 185.481, 142.532 185.199 C 142.251 184.918, 140.211 185.503, 138 186.500 C 135.789 187.497, 133.732 188.065, 133.429 187.762 C 133.125 187.459, 135.630 186.151, 138.994 184.855 C 145.110 182.500, 145.110 182.500, 141.805 181.882 L 138.500 181.263 142.250 181.132 C 144.527 181.052, 146.785 180.215, 148 179 C 149.556 177.444, 150 177.333, 150 178.500 C 150 180.085, 147.186 183.317, 144.875 184.386 C 143.381 185.077, 145.844 184.588, 153.250 182.723 C 160.047 181.011, 159.447 176.642, 152.592 177.934 C 151.665 178.109, 150.043 176.105, 150.015 174.750 C 150.007 174.338, 151.381 174, 153.070 174 C 157.750 174, 156.899 169.705, 152.079 169 C 148.675 168.502, 146.428 166, 149.385 166 C 150.354 166, 150.721 165.436, 150.362 164.500 C 149.670 162.698, 151.590 162.462, 152.399 164.250 C 152.710 164.938, 152.856 164.600, 152.724 163.500 C 152.438 161.118, 148.146 160.514, 143.500 162.201 M 210.129 166.750 C 210.873 167.988, 212.218 169, 213.118 169 C 215.779 169, 217.499 171.694, 215.995 173.506 C 214.570 175.223, 219.245 179.775, 221.825 179.182 C 222.582 179.008, 222.936 179.295, 222.612 179.818 C 222.140 180.582, 223.579 186.579, 224.526 187.795 C 224.653 187.957, 230.773 185.160, 238.128 181.580 L 251.500 175.071 246 175.046 C 237.560 175.009, 233.002 176.001, 232.985 177.881 C 232.972 179.196, 232.805 179.240, 232.092 178.115 C 231.388 177.003, 230.572 176.954, 227.958 177.865 C 223.954 179.260, 222.695 179.302, 223.493 178.011 C 223.829 177.468, 223.490 177.259, 222.739 177.547 C 219.864 178.650, 215.331 169.149, 217.958 167.526 C 220.324 166.063, 217.735 165.086, 215.101 166.448 C 212.617 167.732, 212.125 167.705, 210.546 166.194 C 208.866 164.585, 208.845 164.613, 210.129 166.750 M 224.500 166.865 C 225.201 167.888, 225.126 168.451, 224.250 168.746 C 222.768 169.245, 222.556 172, 224 172 C 224.550 172, 225.014 171.213, 225.032 170.250 C 225.061 168.631, 225.169 168.639, 226.468 170.354 C 227.241 171.374, 228.464 171.972, 229.187 171.683 C 230.115 171.312, 230.143 171.135, 229.281 171.079 C 228.611 171.036, 228.200 170.438, 228.367 169.750 C 228.535 169.063, 228.466 168.889, 228.215 169.364 C 227.963 169.839, 226.799 169.143, 225.629 167.817 C 224.458 166.491, 223.950 166.062, 224.500 166.865 M 139.338 171.083 C 134.261 174.015, 134.214 174.086, 135.224 177.378 L 136.246 180.708 141.873 178.973 C 146.882 177.429, 147.533 176.918, 147.799 174.318 C 148.367 168.755, 145.361 167.606, 139.338 171.083 M 240.750 169.723 C 242.537 169.945, 245.463 169.945, 247.250 169.723 C 249.037 169.502, 247.575 169.320, 244 169.320 C 240.425 169.320, 238.963 169.502, 240.750 169.723 M 119.583 174.312 C 115.908 177.006, 119.030 189.166, 124.222 192.387 C 127.651 194.513, 128.253 191.704, 125.445 186.680 C 124.010 184.113, 122.535 179.964, 122.168 177.460 C 121.541 173.189, 121.381 172.994, 119.583 174.312 M 113.098 180.149 C 111.287 185.345, 112.014 191.727, 114.259 190.340 C 114.886 189.952, 115.011 190.174, 114.568 190.889 C 113.700 192.294, 115.468 194.692, 118.418 196.110 C 120.449 197.086, 120.452 197.072, 118.559 195.555 C 117.491 194.700, 116.940 194, 117.335 194 C 117.729 194, 117.327 192.600, 116.442 190.889 C 114.839 187.788, 114.254 180.015, 115.476 178.039 C 115.829 177.468, 115.685 177, 115.157 177 C 114.628 177, 113.702 178.417, 113.098 180.149 M 250 188.076 C 246.975 189.715, 245.512 190.789, 246.750 190.461 C 248.479 190.003, 248.996 190.286, 248.985 191.683 C 248.976 192.700, 248.646 193.060, 248.235 192.500 C 247.275 191.194, 242.910 191.045, 243.714 192.346 C 244.081 192.939, 243.637 193.074, 242.612 192.681 C 241.456 192.238, 241.130 192.401, 241.612 193.181 C 242.095 193.962, 241.769 194.125, 240.612 193.681 C 239.456 193.238, 239.130 193.401, 239.612 194.181 C 240.095 194.962, 239.769 195.125, 238.612 194.681 C 237.668 194.319, 237.125 194.394, 237.405 194.847 C 237.685 195.300, 236.288 196.446, 234.301 197.393 C 227.608 200.585, 231.659 202.326, 242.665 200.987 C 247.621 200.385, 252.311 200.029, 253.088 200.196 C 254.578 200.517, 254.812 196.370, 253.579 191.459 C 252.725 188.056, 250.821 188.328, 251.538 191.750 L 252.114 194.500 250.629 192 C 249.184 189.565, 249.254 189.442, 253.322 187.295 C 255.620 186.083, 257.050 185.091, 256.500 185.092 C 255.950 185.093, 253.025 186.436, 250 188.076 M 55.250 194.105 C 51.391 196.015, 50.531 197.029, 50.882 199.250 C 50.947 199.662, 50.466 199.887, 49.812 199.750 C 49.159 199.613, 47.137 202.425, 45.319 206 C 41.417 213.673, 41.798 214.348, 50.626 215.386 C 57.950 216.247, 59.014 215.020, 57.777 207.134 C 56.871 201.357, 58.037 196.287, 59.993 197.496 C 60.555 197.843, 60.722 197.438, 60.382 196.552 C 59.649 194.644, 59.589 194.644, 55.950 196.526 C 54.328 197.365, 53 197.824, 53 197.546 C 53 196.992, 60.524 193, 61.567 193 C 61.923 193, 61.921 193.762, 61.564 194.694 C 60.994 196.179, 61.166 196.159, 62.957 194.539 C 64.081 193.522, 65 192.535, 65 192.345 C 65 191.212, 58.852 192.322, 55.250 194.105 M 97.558 199.888 C 95.736 203.411, 95.599 204.366, 97.044 203.473 C 97.618 203.118, 98.855 203.407, 99.794 204.116 C 101.239 205.207, 101.309 205.189, 100.250 204.002 C 98.220 201.725, 98.824 200.531, 101.006 202.506 C 103.878 205.105, 104.059 204.040, 101.401 200.188 L 99.116 196.876 97.558 199.888 M 228.384 203.500 L 228.957 207.500 227.414 204.688 C 225.981 202.077, 223.699 201.306, 223.969 203.525 C 225.533 216.379, 231.356 220.552, 249.250 221.647 C 257.076 222.125, 260 221.991, 260 221.152 C 260 220.516, 258.321 219.928, 256.250 219.840 C 252.558 219.682, 252.550 219.674, 255.750 219.277 C 259.564 218.803, 259.648 218.198, 256.977 210.434 C 254.270 202.564, 254.468 202.672, 244.157 203.488 C 236.391 204.102, 235.218 204.430, 235.705 205.851 C 236.205 207.313, 236.112 207.329, 234.885 205.990 C 234.123 205.159, 232.220 203.359, 230.655 201.990 L 227.811 199.500 228.384 203.500 M 47.421 204.457 C 46.399 208.530, 47.366 209.634, 49.813 207.188 C 52.538 204.462, 52.636 202, 50.019 202 C 48.749 202, 47.817 202.882, 47.421 204.457 M 249.393 206.582 C 249.727 207.452, 250.007 208.914, 250.015 209.832 C 250.029 211.274, 250.162 211.297, 251 210 C 251.811 208.745, 251.972 208.813, 251.985 210.417 C 251.993 211.471, 252.268 212.066, 252.595 211.738 C 253.744 210.589, 251.852 205, 250.314 205 C 249.331 205, 249.003 205.565, 249.393 206.582 M 229 208.808 C 229 211.097, 236.658 218.001, 239.095 217.910 C 241.115 217.834, 240.977 217.669, 238.232 216.877 C 236.191 216.287, 233.845 214.389, 231.982 211.817 C 230.342 209.553, 229 208.198, 229 208.808 M 239.872 214.250 C 240.927 215.594, 242.550 215.957, 246.872 215.815 L 252.500 215.630 247.030 215.255 C 244.022 215.049, 240.872 214.345, 240.030 213.690 C 238.691 212.648, 238.671 212.718, 239.872 214.250 M 41.440 216.384 C 38.577 227.791, 50.638 236.322, 62.062 230.971 C 67.870 228.251, 68.073 227.503, 62.462 229.501 C 58.169 231.030, 49.242 231.441, 47.289 230.200 C 46.229 229.526, 43 222.995, 43 221.525 C 43 221.229, 46.087 221.273, 49.860 221.624 C 56.860 222.274, 58.560 221.624, 57.447 218.721 C 57.097 217.810, 54.803 217.017, 51.338 216.610 C 48.286 216.251, 44.948 215.507, 43.919 214.957 C 42.371 214.128, 41.944 214.374, 41.440 216.384 M 58.505 215.125 C 57.986 216.480, 60.475 224, 61.444 224 C 61.673 224, 61.480 222.675, 61.016 221.055 C 60.438 219.041, 60.539 217.972, 61.336 217.675 C 62.127 217.379, 61.952 216.665, 60.787 215.442 C 59.337 213.921, 58.986 213.872, 58.505 215.125 M 63 215.066 C 63 216.794, 64.989 220, 66.061 220 C 66.606 220, 66.353 218.650, 65.500 217 C 63.899 213.904, 63 213.209, 63 215.066 M 203.500 216.838 C 205.150 218.465, 207.592 220.123, 208.926 220.522 L 211.353 221.247 209.226 217.873 C 207.624 215.333, 206.284 214.423, 203.799 214.189 L 200.500 213.878 203.500 216.838 M 218.032 216.434 C 218.014 216.948, 218.997 219.423, 220.215 221.934 C 221.516 224.617, 222.595 229.077, 222.831 232.750 C 223.052 236.188, 223.631 239, 224.116 239 C 225.333 239, 225.219 229.328, 223.948 224.752 C 222.972 221.239, 218.101 214.391, 218.032 216.434 M 137.343 227.149 C 137.689 228.442, 137.982 230.850, 137.993 232.500 L 138.012 235.500 139.550 232.552 C 141.482 228.847, 141.071 225.629, 138.607 225.159 C 137.055 224.863, 136.827 225.222, 137.343 227.149 M 144.810 228.500 C 145.231 232.107, 146.378 233.063, 147.325 230.596 C 148.095 228.588, 146.979 225, 145.584 225 C 144.822 225, 144.547 226.243, 144.810 228.500 M 130.463 228.060 C 130.102 228.644, 130.383 230.512, 131.088 232.211 C 132.168 234.819, 132.468 235.016, 133.011 233.470 C 134.339 229.684, 132.228 225.204, 130.463 228.060 M 150.647 242.838 C 148.538 245.168, 147.575 244.326, 170.500 260.190 C 222.368 296.084, 227.230 299, 235.206 299 L 240.282 299 234.564 295.949 C 228.834 292.891, 204.016 276.318, 170.698 253.299 C 160.907 246.535, 152.764 241, 152.603 241 C 152.442 241, 151.562 241.827, 150.647 242.838 M 210.971 244.531 C 208.654 246.997, 208.654 247, 210.791 247 C 211.967 247, 213.397 246.127, 213.968 245.061 C 215.553 242.099, 213.583 241.751, 210.971 244.531 M 115 255.429 C 115 255.664, 115.707 256.564, 116.572 257.429 C 118.311 259.168, 116.709 270, 114.713 270 C 113.784 270, 114.337 263.893, 115.553 260.723 C 115.942 259.709, 115.171 259.084, 112.989 258.648 C 110.831 258.216, 110.102 257.634, 110.626 256.762 C 111.142 255.903, 110.837 255.944, 109.670 256.891 C 108.063 258.194, 108.081 258.368, 109.946 259.675 C 111.348 260.657, 111.898 262.106, 111.805 264.579 C 111.732 266.509, 111.409 267.731, 111.086 267.294 C 110.264 266.180, 107 266.034, 107 267.111 C 107 267.600, 107.589 268, 108.309 268 C 109.029 268, 110.491 268.678, 111.559 269.506 C 113.360 270.903, 113.284 270.939, 110.500 270 C 107.716 269.061, 107.640 269.097, 109.441 270.494 C 110.509 271.322, 113.096 272, 115.191 272 C 117.286 272, 119.331 272.113, 119.737 272.250 C 120.760 272.597, 122.704 268.238, 123.534 263.738 C 124.125 260.528, 123.990 260.067, 122.614 260.595 C 121.726 260.935, 121 260.716, 121 260.107 C 121 259.498, 121.563 258.986, 122.250 258.968 C 122.967 258.950, 122.690 258.324, 121.603 257.500 C 120.559 256.710, 119.353 256.282, 118.922 256.548 C 118.491 256.815, 117.856 256.575, 117.510 256.016 C 116.896 255.023, 115 254.579, 115 255.429 M 107 260.845 C 107 261.390, 106.712 262.588, 106.359 263.506 C 105.854 264.824, 106.223 265.105, 108.109 264.838 C 110.956 264.436, 111.469 260.714, 108.750 260.190 C 107.787 260.005, 107 260.300, 107 260.845 M 120.307 266.501 C 119.741 268.976, 119.625 271, 120.051 271 C 120.894 271, 122.470 263.136, 121.767 262.434 C 121.530 262.197, 120.873 264.027, 120.307 266.501 M 219.572 283.883 C 219.013 284.788, 235.390 296, 237.271 296 C 239.680 296, 232.433 290.404, 221.319 283.682 C 220.670 283.289, 219.883 283.379, 219.572 283.883" stroke="none" fill="black" fill-rule="evenodd"/>

  <metadata>
    <title>Векторизация через Potrace</title>
    <description>Качество: simple, Размер: 300x300</description>
  </metadata>
</svg>