<svg width="400" height="400" viewBox="0 0 400 400" xmlns="http://www.w3.org/2000/svg">
	<path d="M -0 200.005 L -0 400.009 200.250 399.755 L 400.500 399.500 400.752 199.750 L 401.005 0 200.502 0 L 0 0 -0 200.005 M 0.490 200.500 C 0.490 310.500, 0.607 355.352, 0.750 300.170 C 0.893 244.989, 0.893 154.989, 0.750 100.170 C 0.607 45.352, 0.490 90.500, 0.490 200.500 M 129 9.453 C 129 9.591, 131.064 14.609, 133.586 20.602 C 136.108 26.596, 139.867 36.225, 141.939 42 C 146.389 54.400, 149.845 61.472, 153.695 66.054 C 156.647 69.568, 176.839 86, 178.205 86 C 178.642 86, 179 82.737, 179 78.748 L 179 71.497 174.610 69.168 C 165.974 64.586, 162.390 57.896, 161.299 44.318 L 160.722 37.137 162.731 33.818 C 163.836 31.993, 166.374 27.826, 168.370 24.559 C 170.367 21.291, 172 18.344, 172 18.010 C 172 17.675, 170.445 17.583, 168.545 17.805 C 162.626 18.496, 149.689 16.224, 139.128 12.639 C 133.558 10.748, 129 9.314, 129 9.453 M 261.500 11.132 C 252.488 14.636, 240.761 16.986, 232.250 16.993 C 227.713 16.997, 224 17.205, 224 17.456 C 224 18.092, 229.835 27.941, 232.116 31.154 C 234.492 34.502, 234.724 48.198, 232.530 55.586 C 230.974 60.826, 226.263 66.166, 220.155 69.612 L 216.810 71.500 217.490 78.500 C 217.863 82.350, 218.345 85.676, 218.559 85.891 C 219.107 86.441, 226.499 80.245, 232.895 73.874 C 240.006 66.792, 244.181 60.147, 250.007 46.641 C 252.650 40.513, 257.563 29.696, 260.925 22.603 C 264.288 15.509, 266.917 9.589, 266.769 9.447 C 266.621 9.305, 264.250 10.063, 261.500 11.132 M 93.047 44.750 C 89.476 49.071, 85.487 56.820, 86.375 57.709 C 87.485 58.818, 95.110 54.672, 97.673 51.566 C 99.065 49.880, 99.864 49.175, 99.450 50 C 99.035 50.825, 98.112 52.185, 97.398 53.023 C 96.549 54.020, 96.419 55.056, 97.021 56.023 L 97.941 57.500 100.950 54.500 L 103.958 51.500 100.959 46.250 C 99.309 43.362, 97.551 41, 97.053 41 C 96.554 41, 94.751 42.688, 93.047 44.750 M 103 54.941 C 103 55.459, 103.450 56.160, 104 56.500 C 104.550 56.840, 105 56.416, 105 55.559 C 105 54.702, 104.550 54, 104 54 C 103.450 54, 103 54.423, 103 54.941 M 105.229 59.188 C 105.447 59.841, 106.160 60.553, 106.813 60.771 C 107.544 61.015, 107.767 60.557, 107.394 59.584 C 106.696 57.766, 104.629 57.388, 105.229 59.188 M 87.188 60.063 C 87.428 60.784, 88.216 61.572, 88.938 61.813 C 89.688 62.063, 90.063 61.688, 89.813 60.938 C 89.572 60.216, 88.784 59.428, 88.063 59.188 C 87.313 58.938, 86.938 59.313, 87.188 60.063 M 108.015 63.691 C 108.024 64.136, 108.467 65.175, 109 66 L 109.969 67.500 109.985 65.809 C 109.993 64.879, 109.550 63.840, 109 63.500 C 108.450 63.160, 108.007 63.246, 108.015 63.691 M 241 70 C 241 71.824, 241.415 72.862, 242 72.500 C 242.550 72.160, 243 71.035, 243 70 C 243 68.965, 242.550 67.840, 242 67.500 C 241.415 67.138, 241 68.176, 241 70 M 111.015 68.691 C 111.024 69.136, 111.467 70.175, 112 71 L 112.969 72.500 112.985 70.809 C 112.993 69.879, 112.550 68.840, 112 68.500 C 111.450 68.160, 111.007 68.246, 111.015 68.691 M 171.490 69.983 C 171.835 70.542, 171.438 71, 170.606 71 C 169.774 71, 167.983 71.506, 166.626 72.125 L 164.158 73.249 170.322 78.625 C 173.712 81.581, 176.826 84, 177.243 84 C 177.659 84, 178 81.383, 178 78.185 L 178 72.370 174.430 70.668 C 172.467 69.732, 171.144 69.424, 171.490 69.983 M 220.200 71.308 L 217.900 72.350 218.575 77.925 C 218.947 80.991, 219.345 83.614, 219.461 83.752 C 219.577 83.891, 222.333 81.499, 225.586 78.436 C 228.839 75.373, 230.969 73.129, 230.319 73.450 C 229.670 73.770, 228.856 73.575, 228.510 73.016 C 228.165 72.457, 226.821 72, 225.524 72 C 224.228 72, 223.017 71.610, 222.833 71.133 C 222.650 70.656, 221.465 70.735, 220.200 71.308 M 146.053 73.947 C 143.498 76.502, 141.481 80.493, 140.044 85.833 L 138.878 90.165 140.488 92.622 C 142.446 95.610, 148.209 98.518, 150.461 97.653 C 151.364 97.307, 153.653 93.623, 155.546 89.468 L 158.989 81.913 156.478 76.956 L 153.966 72 150.983 72 C 149.342 72, 147.124 72.876, 146.053 73.947 M 243.446 73.288 C 242.867 73.955, 241.601 76.075, 240.633 78 L 238.873 81.500 242.635 89.245 C 244.738 93.577, 247.202 97.247, 248.225 97.572 C 250.623 98.332, 256.094 95.086, 257.932 91.812 L 259.384 89.225 258.227 85.363 C 257.590 83.238, 255.714 79.362, 254.057 76.750 L 251.044 72 247.772 72.038 C 245.972 72.059, 244.026 72.621, 243.446 73.288 M 113.638 74.500 C 113.955 75.325, 114.602 76, 115.076 76 C 115.549 76, 115.678 75.325, 115.362 74.500 C 115.045 73.675, 114.398 73, 113.924 73 C 113.451 73, 113.322 73.675, 113.638 74.500 M 147.903 74.995 C 147.024 75.508, 145.091 78.635, 143.606 81.943 C 140.708 88.400, 141.010 90.865, 144.957 92.977 C 148.692 94.976, 150.034 94.108, 153.042 87.750 C 156.532 80.372, 156.671 78.671, 154 76 C 151.811 73.811, 150.341 73.569, 147.903 74.995 M 244.816 74.677 C 240.632 75.781, 242.882 87.869, 248.161 92.646 L 250.137 94.434 252.720 92.967 C 257.291 90.371, 257.526 88.921, 254.476 82.125 C 251.945 76.487, 249.543 73.799, 247.316 74.116 C 246.867 74.180, 245.742 74.432, 244.816 74.677 M 116.229 79.188 C 116.447 79.841, 117.160 80.553, 117.813 80.771 C 118.544 81.015, 118.767 80.557, 118.394 79.584 C 117.696 77.766, 115.629 77.388, 116.229 79.188 M 197.097 80.383 C 196.224 81.435, 196.255 81.879, 197.224 82.236 C 199.248 82.981, 200.938 82.003, 200.337 80.435 C 199.643 78.628, 198.568 78.610, 197.097 80.383 M 119 83.882 C 119 84.432, 119.450 85.160, 120 85.500 C 120.550 85.840, 121 85.668, 121 85.118 C 121 84.568, 120.550 83.840, 120 83.500 C 119.450 83.160, 119 83.332, 119 83.882 M 252 85.500 C 251.282 86.365, 251.185 87, 251.771 87 C 252.329 87, 253.045 86.325, 253.362 85.500 C 253.678 84.675, 253.781 84, 253.591 84 C 253.401 84, 252.685 84.675, 252 85.500 M 122 88.882 C 122 89.432, 122.450 90.160, 123 90.500 C 123.550 90.840, 124 90.668, 124 90.118 C 124 89.568, 123.550 88.840, 123 88.500 C 122.450 88.160, 122 88.332, 122 88.882 M 160.527 89.957 C 159.833 91.079, 171.261 96.493, 176.250 97.405 C 178.313 97.782, 180 97.880, 180 97.623 C 180 97.366, 178.313 96.619, 176.250 95.963 C 174.188 95.307, 169.929 93.488, 166.788 91.920 C 163.646 90.352, 160.829 89.468, 160.527 89.957 M 231 91.785 C 227.975 93.225, 223.250 95.193, 220.500 96.158 L 215.500 97.912 220 97.339 C 225.008 96.703, 235.348 92.490, 237.108 90.370 C 238.700 88.451, 237.341 88.766, 231 91.785 M 191.158 92 C 191.158 93.375, 191.385 93.938, 191.662 93.250 C 191.940 92.563, 191.940 91.438, 191.662 90.750 C 191.385 90.063, 191.158 90.625, 191.158 92 M 124 93.378 C 124 93.585, 124.685 94.324, 125.523 95.019 L 127.046 96.283 126.416 94.641 C 125.878 93.240, 124 92.257, 124 93.378 M 196.762 96.707 C 198.006 96.946, 199.806 96.937, 200.762 96.687 C 201.718 96.437, 200.700 96.241, 198.500 96.252 C 196.300 96.263, 195.518 96.468, 196.762 96.707 M 257 96.740 C 257 100.029, 274.097 133.210, 274.762 131.213 C 274.979 130.562, 271.247 122.485, 266.469 113.265 C 257.294 95.560, 257 95.047, 257 96.740 M 135.200 113.314 C 128.273 129.297, 127.070 133, 128.802 133 C 129.835 133, 143.228 99.183, 142.756 97.768 C 142.560 97.181, 139.160 104.177, 135.200 113.314 M 127 98.378 C 127 98.585, 127.685 99.324, 128.523 100.019 L 130.046 101.283 129.416 99.641 C 128.878 98.240, 127 97.257, 127 98.378 M 253.022 98.728 C 253.010 99.403, 255.866 106.153, 259.369 113.728 C 262.872 121.303, 266.765 129.891, 268.020 132.814 L 270.301 138.127 271.901 136.520 L 273.500 134.913 265.239 118.707 C 257.238 103.009, 253.068 96.190, 253.022 98.728 M 144.004 103 C 139.342 112.076, 130.030 136.430, 130.892 137.292 C 131.396 137.796, 132.534 136.107, 133.562 133.335 C 136.596 125.150, 144.152 106.656, 145.677 103.682 C 146.471 102.132, 146.940 100.332, 146.719 99.682 C 146.497 99.032, 145.276 100.525, 144.004 103 M 130.638 104.500 C 130.955 105.325, 131.602 106, 132.076 106 C 132.549 106, 132.678 105.325, 132.362 104.500 C 132.045 103.675, 131.398 103, 130.924 103 C 130.451 103, 130.322 103.675, 130.638 104.500 M 178.439 105.547 C 179.513 107.187, 179.656 108, 178.868 108 C 178.183 108, 178.464 108.855, 179.539 110.043 L 181.388 112.086 179.444 111.449 C 178.069 110.998, 177.885 111.088, 178.815 111.755 C 180.285 112.810, 185 112.209, 185 110.967 C 185 110.527, 184.438 109.940, 183.750 109.662 C 183.063 109.385, 183.711 109.122, 185.191 109.079 C 186.671 109.036, 188.204 108.479, 188.597 107.842 C 189.088 107.049, 188.634 106.862, 187.156 107.249 C 185.970 107.559, 185 107.473, 185 107.058 C 185 106.643, 183.162 105.581, 180.916 104.699 L 176.832 103.095 178.439 105.547 M 220.039 105.189 C 218.918 106.392, 218 106.856, 218 106.220 C 218 105.583, 217.328 105.321, 216.506 105.636 C 215.684 105.952, 215.272 106.630, 215.590 107.145 C 215.931 107.698, 215.050 107.800, 213.435 107.394 C 211.502 106.909, 210.909 107.044, 211.410 107.854 C 211.799 108.484, 213.272 109, 214.681 109 L 217.245 109 216 110.500 L 214.755 112 217.937 112 C 219.686 112, 220.859 111.581, 220.543 111.069 C 220.226 110.557, 220.425 109.856, 220.984 109.510 C 221.543 109.165, 222 108.432, 222 107.882 C 222 107.332, 221.438 107.220, 220.750 107.633 C 219.890 108.149, 219.926 107.859, 220.863 106.703 C 221.613 105.778, 222.620 105.265, 223.102 105.563 C 223.583 105.860, 223.709 105.406, 223.382 104.552 C 222.615 102.553, 222.468 102.581, 220.039 105.189 M 170 107.435 C 170 110.102, 171.987 114.119, 175.251 118.051 C 178.106 121.490, 181.107 123.600, 179.543 121.069 C 179.226 120.557, 179.359 119.896, 179.837 119.600 C 180.316 119.305, 181.218 120.184, 181.843 121.554 L 182.978 124.045 188.110 121.444 C 192.121 119.412, 193.490 119.111, 194.372 120.068 C 195.210 120.979, 195.208 121.130, 194.363 120.658 C 193.738 120.308, 192.752 120.594, 192.172 121.292 C 191.388 122.238, 192.276 123.824, 195.647 127.495 L 200.176 132.428 204.493 127.464 C 207.620 123.868, 208.529 122.159, 207.791 121.261 C 207.232 120.580, 206.262 120.308, 205.637 120.658 C 204.792 121.130, 204.790 120.979, 205.628 120.068 C 206.510 119.111, 207.869 119.407, 211.846 121.422 L 216.936 124.001 218.428 121.251 C 219.561 119.161, 219.930 118.941, 219.960 120.333 C 220.016 122.885, 221.208 122.186, 225.396 117.147 C 230.802 110.643, 231.401 106, 226.834 106 C 225.441 106, 224.967 106.471, 225.351 107.473 C 225.662 108.283, 224.770 110.308, 223.369 111.973 C 220.444 115.450, 217.529 115.804, 210.946 113.481 C 206.631 111.958, 205.091 112.481, 205.001 115.500 C 204.984 116.050, 204.403 115.379, 203.710 114.009 C 202.331 111.283, 199.384 110.216, 197.750 111.850 C 197.033 112.567, 197.452 112.736, 199.106 112.396 C 200.993 112.008, 200.864 112.196, 198.500 113.283 L 195.500 114.663 194.485 113.293 L 193.470 111.923 189.109 113.461 C 186.711 114.308, 183.648 115, 182.303 115 C 179.832 115, 176.770 112.785, 177.194 111.304 C 177.321 110.862, 176.770 109.487, 175.972 108.250 C 174.359 105.752, 170 105.157, 170 107.435 M 239.426 108.438 C 239.089 109.780, 236.796 113.942, 234.328 117.688 C 231.861 121.435, 228.925 127.200, 227.803 130.500 C 226.681 133.800, 224.016 140.275, 221.881 144.888 C 219.747 149.502, 218 153.528, 218 153.835 C 218 155.584, 229.341 136.039, 229.615 133.819 C 229.796 132.345, 231.298 128.520, 232.951 125.319 C 235.978 119.461, 236.830 118.686, 235.025 123.435 C 233.147 128.373, 236.060 126.111, 238.483 120.750 C 241.252 114.621, 242.801 106, 241.133 106 C 240.531 106, 239.763 107.097, 239.426 108.438 M 158.477 111.250 C 159.363 117.018, 163.557 125.457, 171.771 138 C 175.552 143.775, 179.699 150.394, 180.985 152.709 C 182.270 155.024, 183.770 156.642, 184.316 156.305 C 184.864 155.966, 184.998 156.195, 184.615 156.814 C 184.233 157.432, 184.853 159.639, 185.992 161.719 C 187.131 163.799, 187.847 164.600, 187.582 163.500 C 186.224 157.862, 185.854 147.126, 186.941 144.898 L 188.110 142.500 186.695 144.250 C 185.916 145.213, 184.292 146, 183.085 146 C 180.706 146, 177.932 140.789, 173.506 128 C 171.565 122.393, 164 109.120, 164 111.322 C 164 112.486, 167.036 118.129, 169.334 121.238 C 170.447 122.743, 171.127 124.206, 170.845 124.488 C 170.136 125.197, 163.448 115.324, 161.539 110.750 C 159.381 105.581, 157.650 105.863, 158.477 111.250 M 231.190 117.327 C 228.886 120.807, 227 124.353, 227 125.208 C 227 126.982, 222.666 138.810, 220.437 143.121 C 218.766 146.353, 216.524 146.784, 213.872 144.384 L 212.086 142.768 213.185 145.680 C 213.946 147.695, 213.995 150.945, 213.345 156.230 C 212.437 163.615, 213.069 165.910, 214.455 160.259 C 214.828 158.742, 217.118 153.151, 219.544 147.836 C 221.971 142.521, 225.134 134.646, 226.573 130.336 C 228.012 126.026, 229.769 121.825, 230.478 121 C 231.869 119.381, 236.254 111, 235.710 111 C 235.529 111, 233.495 113.847, 231.190 117.327 M 183.500 124.693 C 178.223 125.384, 177.222 126.093, 180 127.169 C 182.634 128.190, 190 126.474, 190 124.840 C 190 123.994, 189.003 123.972, 183.500 124.693 M 209.654 124.751 C 208.866 126.026, 216.572 128.271, 219.044 127.486 C 221.767 126.622, 221.493 125, 218.625 125 C 217.319 125, 214.898 124.730, 213.246 124.399 C 211.594 124.069, 209.978 124.227, 209.654 124.751 M 166.036 126.750 C 166.071 128.431, 170.985 135.328, 170.995 133.710 C 171.002 132.600, 167.062 125, 166.480 125 C 166.216 125, 166.016 125.787, 166.036 126.750 M 171.478 128.363 C 172.216 131.790, 181.704 153.076, 183.128 154.500 C 183.677 155.050, 183.136 153.250, 181.924 150.500 C 172.816 129.832, 170.935 125.846, 171.478 128.363 M 231 132 C 230.411 133.100, 230.155 134, 230.430 134 C 230.705 134, 231.411 133.100, 232 132 C 232.589 130.900, 232.845 130, 232.570 130 C 232.295 130, 231.589 130.900, 231 132 M 189.591 131.853 C 188.899 132.973, 191.636 136.697, 192.510 135.824 C 193.379 134.954, 192.135 131, 190.992 131 C 190.511 131, 189.881 131.384, 189.591 131.853 M 208.200 132.200 C 206.804 133.596, 206.600 136, 207.878 136 C 208.360 136, 209.331 135.306, 210.035 134.458 C 211.659 132.501, 209.973 130.427, 208.200 132.200 M 236.926 134.411 C 237.611 135.236, 241.868 135.923, 248.748 136.319 C 254.662 136.660, 261.300 137.169, 263.500 137.452 L 267.500 137.965 264 137.028 C 262.075 136.513, 256.450 135.803, 251.500 135.451 C 246.550 135.099, 241.005 134.431, 239.178 133.966 L 235.856 133.121 236.926 134.411 M 123.461 136.508 C 121.832 137.839, 120.950 138.929, 121.500 138.931 C 122.770 138.934, 127.428 135.095, 126.853 134.519 C 126.616 134.282, 125.089 135.177, 123.461 136.508 M 147 136.047 C 144.308 136.493, 146.317 136.583, 152 136.270 C 157.225 135.982, 161.688 135.579, 161.917 135.373 C 162.603 134.758, 151.838 135.244, 147 136.047 M 264.856 145.734 C 253.833 157.007, 253.010 158.170, 249.614 167.250 L 247.090 174 248.590 174 C 249.415 174, 253.557 170.343, 257.795 165.873 C 262.033 161.403, 268.113 155.732, 271.308 153.270 L 277.115 148.794 276.808 142.729 C 276.638 139.393, 276.029 136.507, 275.453 136.316 C 274.877 136.125, 270.108 140.363, 264.856 145.734 M 137.250 137.689 C 138.213 137.941, 139.787 137.941, 140.750 137.689 C 141.713 137.438, 140.925 137.232, 139 137.232 C 137.075 137.232, 136.287 137.438, 137.250 137.689 M 193.250 137.647 C 188.483 138.689, 191.331 139.522, 198.434 139.163 C 203.928 138.886, 206.734 139.218, 209.184 140.434 L 212.500 142.081 210.366 139.934 C 208.722 138.281, 206.773 137.716, 201.866 137.472 C 198.365 137.298, 194.488 137.377, 193.250 137.647 M 193.184 141.052 C 193.649 142.447, 205.879 142.811, 206.247 141.442 C 206.386 140.924, 203.418 140.366, 199.651 140.202 C 194.830 139.992, 192.915 140.244, 193.184 141.052 M 138.336 148 C 138.336 152.125, 138.513 153.813, 138.728 151.750 C 138.944 149.688, 138.944 146.313, 138.728 144.250 C 138.513 142.188, 138.336 143.875, 138.336 148 M 121.306 145 C 122.410 147.926, 124 149.067, 124 146.934 C 124 145.290, 122.034 142, 121.052 142 C 120.569 142, 120.683 143.350, 121.306 145 M 318.470 151.667 C 311.337 155.825, 302.424 160.516, 298.664 162.092 C 289.980 165.732, 286.319 167.724, 247.500 189.925 C 229.900 199.991, 213.086 209.589, 210.135 211.253 L 204.770 214.279 208.448 215.543 L 212.127 216.808 224.813 209.819 C 231.791 205.975, 240.313 201.271, 243.750 199.366 C 247.188 197.461, 250 196.087, 250 196.314 C 250 196.540, 246.418 198.891, 242.040 201.538 C 237.662 204.184, 233.836 206.985, 233.538 207.762 C 232.686 209.981, 251.729 199.416, 306.187 167.458 L 329.874 153.558 330.982 149.157 C 331.591 146.737, 331.944 144.610, 331.765 144.432 C 331.586 144.253, 325.604 147.509, 318.470 151.667 M 68.999 148.503 C 67.515 152.999, 68.538 158, 70.940 158 C 72.319 158, 72.850 156.926, 73.290 153.250 C 73.602 150.637, 74.163 147.713, 74.536 146.750 C 75.072 145.366, 74.685 145, 72.685 145 C 70.680 145, 69.915 145.727, 68.999 148.503 M 119.158 147 C 119.158 148.375, 119.385 148.938, 119.662 148.250 C 119.940 147.563, 119.940 146.438, 119.662 145.750 C 119.385 145.063, 119.158 145.625, 119.158 147 M 320 147.583 C 320 148.454, 320.534 148.989, 321.188 148.771 C 323.042 148.153, 323.349 146, 321.583 146 C 320.712 146, 320 146.713, 320 147.583 M 281.720 153.588 C 280.192 154.417, 279.186 155.493, 279.487 155.978 C 279.787 156.464, 279.506 157.187, 278.862 157.585 C 278.088 158.063, 277.960 157.873, 278.485 157.025 C 279.014 156.169, 278.815 155.895, 277.889 156.204 C 277.125 156.458, 276.500 157.304, 276.500 158.082 C 276.500 158.860, 275.600 159.498, 274.500 159.499 C 273.400 159.499, 272.593 160.003, 272.706 160.617 C 272.819 161.232, 271.694 162.807, 270.206 164.117 L 267.500 166.500 269.502 164 C 270.603 162.625, 267.903 165.277, 263.502 169.894 C 254.339 179.506, 253.753 180.333, 254.184 183.047 L 254.500 185.037 269.250 176.436 C 277.363 171.706, 284 167.437, 284 166.949 C 284 166.462, 284.671 166.320, 285.492 166.635 C 287.508 167.409, 288.305 164.933, 287.079 161.708 C 286.441 160.028, 286.426 158.855, 287.038 158.476 C 287.567 158.149, 288.007 158.921, 288.015 160.191 C 288.041 164.054, 289.398 165.392, 291.921 164.042 C 293.540 163.176, 293.930 162.319, 293.445 160.689 L 292.793 158.500 294.315 160.498 C 296.246 163.035, 297.300 162.044, 296.416 158.523 C 295.634 155.407, 290.669 151.990, 287 152.044 C 285.625 152.064, 283.249 152.758, 281.720 153.588 M 275.221 154.558 C 273.997 155.415, 272.522 155.823, 271.942 155.464 C 271.362 155.106, 266.223 159.580, 260.523 165.406 C 254.822 171.233, 249.457 176, 248.602 176 C 245.307 176, 242.048 184.352, 243.953 187.913 L 245.077 190.012 247.903 188.550 C 250.070 187.429, 250.884 186.130, 251.387 182.983 C 251.748 180.726, 251.809 178.501, 251.524 178.038 C 250.907 177.041, 265.013 161.680, 265.812 162.479 C 266.114 162.781, 267.518 161.943, 268.931 160.616 C 270.344 159.289, 273.250 157.033, 275.390 155.602 C 277.529 154.171, 278.866 153, 278.362 153 C 277.858 153, 276.444 153.701, 275.221 154.558 M 75.008 157.250 C 74.998 158.156, 86.838 158.043, 100.500 157.007 L 110.500 156.249 92.758 156.374 C 83.001 156.444, 75.013 156.838, 75.008 157.250 M 268.437 159.250 L 265.500 162.500 268.750 159.563 C 271.779 156.825, 272.460 156, 271.687 156 C 271.515 156, 270.052 157.463, 268.437 159.250 M 299.762 157.707 C 301.006 157.946, 302.806 157.937, 303.762 157.687 C 304.718 157.437, 303.700 157.241, 301.500 157.252 C 299.300 157.263, 298.518 157.468, 299.762 157.707 M 194.232 160.836 C 192.561 161.896, 190.970 167.600, 191.119 171.993 L 191.238 175.500 192.523 170.500 C 193.230 167.750, 193.851 166.063, 193.904 166.750 C 193.969 167.598, 195.901 168, 199.917 168 C 203.757 168, 205.982 167.561, 206.258 166.750 C 206.492 166.063, 207.013 167.677, 207.416 170.338 L 208.149 175.175 210.074 173.433 C 212.255 171.459, 212.715 166, 210.701 166 C 209.816 166, 209.492 167.195, 209.687 169.750 C 209.903 172.597, 209.668 172.175, 208.709 168 C 208.015 164.975, 207.095 161.938, 206.664 161.250 C 205.791 159.854, 196.277 159.537, 194.232 160.836 M 194.667 162.667 C 194.300 163.033, 194.007 163.821, 194.015 164.417 C 194.024 165.012, 194.417 164.890, 194.889 164.145 C 195.480 163.212, 197.316 162.901, 200.780 163.145 C 203.548 163.340, 205.603 163.162, 205.347 162.750 C 204.772 161.822, 195.583 161.750, 194.667 162.667 M 188 168.941 C 188 173.188, 189.709 173.618, 190.191 169.492 C 190.472 167.085, 190.195 166, 189.299 166 C 188.528 166, 188 167.195, 188 168.941 M 259.966 171.750 L 254.500 177.500 260.250 172.034 C 265.592 166.956, 266.458 166, 265.716 166 C 265.560 166, 262.972 168.588, 259.966 171.750 M 153.116 169.250 C 150.468 176.388, 149.851 182.037, 150.940 189.192 C 152.329 198.326, 154.157 200.862, 161.591 203.969 L 167.500 206.438 179 206.469 L 190.500 206.500 196.250 203.677 L 202 200.855 202 197.427 C 202 193.499, 202.113 193.532, 195.591 195.511 C 192.891 196.330, 189.009 197, 186.964 197 C 184.756 197, 182.699 197.658, 181.901 198.619 C 180.835 199.904, 179.401 200.118, 174.963 199.654 C 166.171 198.735, 161.505 196.880, 161.470 194.290 C 161.454 193.084, 160.471 191.063, 159.287 189.799 C 155.858 186.138, 154.704 182.023, 154.927 174.250 C 155.141 166.815, 154.587 165.286, 153.116 169.250 M 199.750 171.706 C 200.988 171.944, 203.012 171.944, 204.250 171.706 C 205.488 171.467, 204.475 171.272, 202 171.272 C 199.525 171.272, 198.512 171.467, 199.750 171.706 M 302 172 C 302 172.550, 302.675 173, 303.500 173 C 304.325 173, 305 172.550, 305 172 C 305 171.450, 304.325 171, 303.500 171 C 302.675 171, 302 171.450, 302 172 M 228.635 176.808 C 223.759 179.428, 219.822 181.893, 219.885 182.286 C 219.948 182.679, 220 184.164, 220 185.587 L 220 188.174 227.750 184.016 C 237.212 178.940, 238.248 177.978, 237.829 174.658 L 237.500 172.046 228.635 176.808 M 298.725 173.609 C 298.356 173.978, 299.495 175.004, 301.257 175.890 C 303.018 176.775, 305.139 178.726, 305.970 180.224 L 307.481 182.948 305.851 184.578 C 303.002 187.426, 294.424 183.772, 292.846 179.037 L 292.404 177.713 290.125 178.933 C 288.726 179.682, 288.066 180.729, 288.416 181.642 C 288.837 182.740, 288.492 182.973, 287.100 182.532 C 284.886 181.829, 274.631 187.655, 272.351 190.909 L 270.861 193.036 282.681 205.250 C 289.469 212.265, 295.139 217.327, 296 217.141 C 299.465 216.394, 307.632 212.511, 309.289 210.823 C 310.273 209.820, 311.482 209, 311.976 209 C 312.470 209, 312.619 207.429, 312.308 205.508 C 311.664 201.545, 313.195 199, 316.222 199 C 318.590 199, 325 205.135, 325 207.400 C 325 208.280, 325.460 209, 326.023 209 C 326.586 209, 326.309 210.125, 325.408 211.500 C 323.380 214.595, 319.294 214.806, 315.727 212 C 312.660 209.587, 311.649 209.513, 309.935 211.578 C 309.215 212.446, 306.347 214.300, 303.563 215.698 C 297.137 218.925, 297.447 218.474, 299.424 221.719 L 301.119 224.500 299.030 222.103 L 296.942 219.706 294.517 221.984 L 292.091 224.263 294.296 228.195 L 296.500 232.128 299.500 231.596 C 301.150 231.303, 306.100 230.390, 310.500 229.567 C 314.900 228.743, 322.212 228.054, 326.750 228.035 C 336.655 227.993, 337.804 226.237, 328.250 225.742 L 321.500 225.392 328.250 225.196 C 332.143 225.083, 335 224.559, 335 223.957 C 335 223.384, 333.425 219.997, 331.500 216.432 C 329.575 212.867, 328 209.327, 328 208.565 C 328 205.936, 318.124 187.487, 314.382 183.123 C 312.317 180.716, 309.249 178.106, 307.564 177.324 L 304.500 175.901 307.500 176.466 L 310.500 177.031 308.559 175.515 C 307.491 174.682, 305.616 174, 304.391 174 C 303.166 174, 301.541 173.761, 300.780 173.469 C 300.018 173.177, 299.094 173.240, 298.725 173.609 M 252.441 194.555 L 250.500 196.110 252.750 195.020 C 253.988 194.420, 255 193.720, 255 193.465 C 255 192.700, 254.481 192.921, 252.441 194.555 M 263.720 194.588 C 260.808 196.167, 260.873 196.916, 264.254 200.676 C 265.382 201.931, 265.888 203.372, 265.450 204.080 C 264.988 204.829, 265.105 205.053, 265.751 204.654 C 266.334 204.294, 270.579 208.001, 275.184 212.893 L 283.557 221.788 286.339 220.330 C 287.870 219.528, 288.982 218.266, 288.811 217.526 C 288.452 215.970, 268.106 192.980, 267.142 193.040 C 266.789 193.062, 265.249 193.758, 263.720 194.588 M 136.017 197.984 C 132.830 200.961, 132.400 203.500, 135.083 203.500 C 135.909 203.500, 136.467 202.562, 136.421 201.250 C 136.349 199.211, 137.140 198.548, 139.250 198.882 C 139.662 198.947, 140 198.100, 140 197 C 140 194.401, 139.800 194.451, 136.017 197.984 M 84.543 196.931 C 84.226 197.443, 84.425 198.144, 84.984 198.490 C 85.543 198.835, 86 198.416, 86 197.559 C 86 195.802, 85.400 195.544, 84.543 196.931 M 159 198.500 C 159 199.325, 159.450 200, 160 200 C 160.550 200, 161 199.325, 161 198.500 C 161 197.675, 160.550 197, 160 197 C 159.450 197, 159 197.675, 159 198.500 M 255.201 199.572 C 253.991 200.420, 253 201.558, 253 202.102 C 253 203.641, 271.127 222, 272.647 222 C 273.391 222, 273.911 222.338, 273.802 222.750 C 273.694 223.162, 275.233 226.680, 277.222 230.566 C 279.557 235.126, 282.083 238.484, 284.343 240.033 L 287.847 242.434 289.130 248.217 C 290.443 254.136, 291.360 254.942, 294.288 252.750 L 295.958 251.500 294.384 246.183 C 293.223 242.259, 291.631 239.779, 288.309 236.717 C 285.833 234.435, 282.317 229.628, 280.495 226.034 C 278.674 222.440, 275.567 217.949, 273.591 216.054 C 271.616 214.158, 270 212.158, 270 211.608 C 270 209.586, 277.254 217.648, 279.645 222.326 L 282.111 227.153 283.574 225.938 L 285.038 224.724 287.019 226.517 C 289.374 228.648, 289.490 229.801, 287.567 231.926 L 286.134 233.509 289.817 236.559 L 293.500 239.609 300.500 236.844 C 304.350 235.323, 306.923 234.061, 306.218 234.040 C 305.513 234.018, 303.487 234.605, 301.716 235.345 C 295.952 237.754, 292.187 235.775, 290.197 229.291 L 289.061 225.590 290.652 223.832 C 291.527 222.865, 291.987 221.407, 291.674 220.592 L 291.105 219.109 287.171 221.264 L 283.237 223.418 275.518 215.212 C 271.272 210.699, 267.430 207.234, 266.979 207.513 C 265.782 208.253, 261.912 202.966, 262.674 201.632 C 263.030 201.010, 262.944 200.842, 262.485 201.259 C 262.025 201.677, 260.693 201.121, 259.526 200.024 L 257.403 198.030 255.201 199.572 M 152.684 205.657 C 151.879 207.221, 149.856 213.450, 148.188 219.500 C 144.212 233.922, 143.791 236, 144.844 236 C 145.330 236, 146.308 233.259, 147.019 229.909 C 147.733 226.545, 148.951 223.572, 149.740 223.270 C 150.728 222.891, 150.821 222.508, 150.044 222.027 C 149.257 221.541, 149.814 218.673, 151.907 212.446 C 154.968 203.337, 155.279 200.616, 152.684 205.657 M 316 204 C 316 204.550, 316.450 205, 317 205 C 317.550 205, 318 204.550, 318 204 C 318 203.450, 317.550 203, 317 203 C 316.450 203, 316 203.450, 316 204 M 382.241 208.777 C 380.449 210.275, 378.979 212.175, 378.976 213 C 378.971 214.148, 378.780 214.201, 378.161 213.226 C 377.555 212.271, 376.226 212.811, 372.873 215.371 C 362.022 223.656, 306.653 249.405, 208 292.044 L 201.500 294.853 201.187 297.926 C 201.014 299.617, 201.148 301, 201.484 301 C 203.682 301, 301.358 258.858, 326.408 247.102 C 332.407 244.286, 337.481 242.147, 337.682 242.349 C 337.884 242.551, 326.478 248.066, 312.335 254.606 C 298.192 261.145, 287.386 266.643, 288.322 266.824 C 289.259 267.004, 289.767 267.567, 289.453 268.076 C 288.489 269.636, 289.544 269.240, 307.148 261.434 C 341.584 246.165, 369.309 232.466, 371.373 229.702 C 374.095 226.056, 372.980 225.460, 368.097 227.951 C 365.844 229.100, 364 229.814, 364 229.537 C 364 229.260, 366.363 227.842, 369.250 226.386 C 372.137 224.929, 374.831 223.234, 375.235 222.619 C 377.062 219.835, 375.739 223.709, 373.384 228.036 L 370.768 232.842 344.352 245.468 C 308.128 262.781, 228.651 298.606, 205.500 308.057 C 204.400 308.506, 204.078 308.902, 204.784 308.937 C 206.489 309.021, 270.566 280.974, 304.287 265.384 C 319.020 258.573, 331.282 253, 331.537 253 C 331.792 253, 331.948 254.238, 331.884 255.750 C 331.813 257.442, 331.592 257.827, 331.311 256.750 C 330.817 254.862, 329 254.318, 329 256.059 C 329 256.641, 328.576 256.856, 328.057 256.535 C 327.538 256.215, 322.535 258.078, 316.938 260.675 L 306.762 265.398 309.479 267.735 C 310.973 269.021, 312.939 269.864, 313.848 269.609 C 316.700 268.808, 326.077 267.776, 332.681 267.536 C 336.172 267.409, 339.292 267.041, 339.615 266.718 C 340.473 265.860, 337.993 252.114, 336.853 251.409 C 336.320 251.080, 344.897 246.349, 355.911 240.897 C 366.926 235.444, 376.852 230.002, 377.969 228.803 C 381.066 225.479, 388.179 205.960, 386.269 206.027 C 385.846 206.042, 384.033 207.279, 382.241 208.777 M 165.701 212.250 C 164.837 214.588, 163.601 218.341, 162.955 220.590 C 162.015 223.859, 161.349 224.640, 159.640 224.478 C 158.337 224.355, 158.184 224.444, 159.250 224.707 C 160.213 224.945, 161 225.595, 161 226.153 C 161 226.710, 161.514 226.995, 162.141 226.786 C 163.825 226.225, 169.970 208, 168.476 208 C 167.814 208, 166.565 209.912, 165.701 212.250 M 185.084 210.250 C 184.616 211.488, 184.376 212.658, 184.550 212.850 C 185.117 213.477, 186.965 211.934, 188.030 209.944 C 188.855 208.403, 188.746 208, 187.503 208 C 186.641 208, 185.553 209.012, 185.084 210.250 M 190.679 216.543 C 188.577 217.314, 185.177 219.276, 183.123 220.903 C 181.068 222.530, 177.503 224.615, 175.200 225.537 C 172.810 226.493, 171.291 227.662, 171.661 228.260 C 172.041 228.875, 171.828 229.012, 171.147 228.591 C 170.508 228.196, 169.260 228.597, 168.375 229.482 L 166.766 231.091 168.038 235.796 C 168.738 238.383, 170.187 242.900, 171.258 245.833 L 173.206 251.165 175.853 250.552 C 177.560 250.157, 178.027 250.256, 177.166 250.830 L 175.832 251.722 177.474 252.352 C 178.377 252.698, 180.795 252.125, 182.847 251.078 C 187.100 248.909, 204.241 243.273, 208 242.809 C 209.918 242.572, 210.500 241.918, 210.500 240 L 210.500 237.500 205.750 237.195 C 203.137 237.028, 201 236.502, 201 236.027 C 201 235.552, 200.727 234.452, 200.393 233.582 L 199.786 232 203.959 232 L 208.133 232 207.816 229.250 L 207.500 226.500 203 225.577 C 198.821 224.721, 197.053 223.590, 197.015 221.750 C 197.007 221.338, 198.012 220.993, 199.250 220.985 C 202.726 220.961, 204.306 219.540, 203.540 217.125 L 202.865 215 198.683 215.070 C 196.382 215.109, 192.781 215.772, 190.679 216.543 M 200.667 217.667 C 200.300 218.033, 200 218.798, 200 219.367 C 200 219.993, 200.466 219.934, 201.183 219.217 C 201.834 218.566, 202.134 217.801, 201.850 217.517 C 201.566 217.232, 201.033 217.300, 200.667 217.667 M 191.510 219.984 C 191.165 220.543, 191.421 221, 192.081 221 C 192.740 221, 193.916 221.787, 194.695 222.750 L 196.110 224.500 195.050 222.306 C 193.728 219.572, 192.331 218.655, 191.510 219.984 M 186.584 222.641 L 185.954 224.283 187.727 222.924 C 188.702 222.177, 189.688 221.439, 189.917 221.283 C 190.146 221.127, 189.631 221, 188.774 221 C 187.916 221, 186.931 221.739, 186.584 222.641 M 321 222.559 C 321 223.416, 321.457 223.835, 322.016 223.490 C 322.575 223.144, 322.774 222.443, 322.457 221.931 C 321.600 220.544, 321 220.802, 321 222.559 M 327 221.882 C 327 222.432, 327.450 223.160, 328 223.500 C 328.550 223.840, 329 223.668, 329 223.118 C 329 222.568, 328.550 221.840, 328 221.500 C 327.450 221.160, 327 221.332, 327 221.882 M 152.750 223.662 C 153.438 223.940, 154.563 223.940, 155.250 223.662 C 155.938 223.385, 155.375 223.158, 154 223.158 C 152.625 223.158, 152.063 223.385, 152.750 223.662 M 188.030 226.974 C 185.571 228.605, 182.278 230.471, 180.712 231.119 C 178.913 231.865, 178.292 232.562, 179.024 233.015 C 179.662 233.409, 180.255 235.479, 180.342 237.616 L 180.500 241.500 188.500 238.875 L 196.500 236.251 196.807 232.677 C 197.088 229.412, 194.793 223.993, 193.135 224.004 C 192.786 224.007, 190.488 225.343, 188.030 226.974 M 297.510 225.984 C 296.773 227.177, 297.709 229, 299.059 229 C 300.276 229, 300.284 226.293, 299.069 225.543 C 298.557 225.226, 297.856 225.425, 297.510 225.984 M 302.099 226.750 C 302.859 227.988, 304.385 228.964, 305.491 228.921 C 306.925 228.865, 307.071 228.684, 306 228.291 C 305.175 227.987, 303.649 227.010, 302.608 226.120 L 300.717 224.500 302.099 226.750 M 315.762 226.707 C 317.006 226.946, 318.806 226.937, 319.762 226.687 C 320.718 226.437, 319.700 226.241, 317.500 226.252 C 315.300 226.263, 314.518 226.468, 315.762 226.707 M 309.269 227.693 C 310.242 227.947, 311.592 227.930, 312.269 227.656 C 312.946 227.382, 312.150 227.175, 310.500 227.195 C 308.850 227.215, 308.296 227.439, 309.269 227.693 M 204.333 229.472 C 204.333 230.313, 204.971 231, 205.750 231 C 206.529 231, 206.989 230.466, 206.771 229.813 C 206.166 227.999, 204.333 227.743, 204.333 229.472 M 160.241 231.777 L 156.982 234.500 157.001 239 C 157.023 244.235, 160.556 252.415, 164.273 255.836 L 166.811 258.171 168.906 257.050 C 170.058 256.434, 171 255.753, 171 255.536 C 171 255.320, 169.324 252.330, 167.276 248.893 L 163.553 242.642 163.526 235.826 C 163.512 232.077, 163.500 229.020, 163.500 229.032 C 163.500 229.044, 162.033 230.279, 160.241 231.777 M 189 230.393 C 189 230.609, 189.675 231.045, 190.500 231.362 C 191.325 231.678, 192 231.501, 192 230.969 C 192 230.436, 191.325 230, 190.500 230 C 189.675 230, 189 230.177, 189 230.393 M 352 235 C 346.775 237.694, 342.950 239.898, 343.500 239.898 C 344.050 239.898, 348.775 237.694, 354 235 C 359.225 232.306, 363.050 230.102, 362.500 230.102 C 361.950 230.102, 357.225 232.306, 352 235 M 313.199 231.986 C 308.761 233.038, 307.586 234.430, 311.922 233.500 C 313.804 233.096, 318.529 232.429, 322.422 232.018 L 329.500 231.272 323 231.238 C 319.425 231.220, 315.015 231.556, 313.199 231.986 M 170.446 233.087 C 170.077 233.685, 170.179 234.579, 170.673 235.073 C 171.204 235.604, 171.571 235.160, 171.571 233.986 C 171.571 231.713, 171.386 231.566, 170.446 233.087 M 314.750 234.281 C 312.137 234.796, 310 235.644, 310 236.167 C 310 236.690, 309.540 236.834, 308.978 236.486 C 307.987 235.874, 298.225 238.595, 296.789 239.884 C 296.398 240.234, 296.760 242.844, 297.592 245.682 L 299.105 250.844 304.802 248.358 C 307.936 246.991, 310.994 245.233, 311.599 244.452 C 312.203 243.670, 312.929 243.263, 313.213 243.546 C 313.942 244.275, 326 238.922, 326 237.869 C 326 237.391, 326.606 237, 327.346 237 C 328.720 237, 335 234.135, 335 233.508 C 335 232.787, 319.292 233.387, 314.750 234.281 M 198.430 235.881 C 198.902 238.369, 196.807 241.417, 195.459 240.202 C 195.030 239.816, 194.944 239.967, 195.268 240.538 C 195.638 241.192, 193.776 241.664, 190.238 241.812 C 182.913 242.118, 182.127 242.978, 189.083 243.076 L 194.500 243.152 191 244.500 C 188.855 245.326, 188.274 245.839, 189.500 245.824 C 191.732 245.798, 197.070 244.259, 195.500 244.095 C 194.950 244.037, 195.802 242.948, 197.393 241.675 L 200.287 239.360 199.132 236.430 C 198.269 234.239, 198.092 234.101, 198.430 235.881 M 153.272 236.250 C 151.283 238.807, 149 244.384, 149 246.686 C 149 252.581, 155.383 262, 159.378 262 L 161.382 262 159.452 260.589 C 158.391 259.812, 157.110 259.432, 156.607 259.743 C 156.103 260.054, 155.984 259.835, 156.342 259.256 C 156.700 258.676, 156.104 256.244, 155.018 253.851 C 152.887 249.154, 152.409 241.686, 153.975 237.565 C 155.039 234.767, 154.789 234.300, 153.272 236.250 M 206.553 239.915 C 206.231 240.436, 206.394 241.125, 206.915 241.447 C 207.436 241.769, 208.125 241.606, 208.447 241.085 C 208.769 240.564, 208.606 239.875, 208.085 239.553 C 207.564 239.231, 206.875 239.394, 206.553 239.915 M 299 243.500 C 299 244.325, 299.450 245, 300 245 C 300.550 245, 301 244.325, 301 243.500 C 301 242.675, 300.550 242, 300 242 C 299.450 242, 299 242.675, 299 243.500 M 174.015 245.250 C 173.997 247.350, 175.621 247.432, 179 245.500 C 181.921 243.830, 180.850 243.474, 177.807 245.103 C 176.224 245.950, 175.547 245.892, 174.888 244.853 C 174.222 243.802, 174.027 243.890, 174.015 245.250 M 104.250 247.031 C 103.013 247.529, 102 248.430, 102 249.035 C 102 250.255, 104.970 249.568, 109 247.415 L 111.500 246.080 109 246.103 C 107.625 246.116, 105.487 246.534, 104.250 247.031 M 183 247.500 C 181.625 248.286, 180.950 248.929, 181.500 248.929 C 182.050 248.929, 183.625 248.286, 185 247.500 C 186.375 246.714, 187.050 246.071, 186.500 246.071 C 185.950 246.071, 184.375 246.714, 183 247.500 M 333.143 251.890 C 332.197 252.490, 332.122 252.957, 332.893 253.434 C 333.502 253.810, 334 254.991, 334 256.059 C 334 257.127, 334.337 258, 334.750 258 C 335.163 258, 335.500 256.425, 335.500 254.500 C 335.500 250.779, 335.280 250.536, 333.143 251.890 M 54.978 258.696 C 53.340 261.278, 52.005 263.866, 52.012 264.446 C 52.019 265.026, 53.180 263.477, 54.594 261.004 C 56.007 258.531, 57.632 255.943, 58.204 255.254 C 58.777 254.564, 58.955 254, 58.600 254 C 58.246 254, 56.616 256.113, 54.978 258.696 M 75.625 257.469 C 73.493 258.229, 70.163 260.347, 68.225 262.175 C 64.974 265.241, 64.679 264.801, 67.402 260.945 C 68.006 260.090, 67.231 260.765, 65.680 262.445 C 62.430 265.967, 60.162 269.636, 61.900 268.562 C 63.283 267.707, 63.300 268.571, 61.950 271.094 C 61.372 272.173, 60.477 272.795, 59.961 272.476 C 59.431 272.148, 59.309 272.643, 59.681 273.612 C 60.125 274.769, 59.962 275.095, 59.181 274.612 C 58.445 274.157, 58.223 274.419, 58.574 275.331 C 58.877 276.121, 58.433 278.422, 57.587 280.445 L 56.051 284.123 59.275 285.429 C 61.049 286.147, 65.307 287.012, 68.738 287.351 L 74.976 287.967 76.500 285.641 L 78.024 283.315 76.945 275.558 L 75.866 267.801 78.433 263.922 C 79.845 261.788, 81 259.824, 81 259.557 C 81 259.290, 78.975 259.939, 76.500 261 C 74.025 262.061, 72 262.729, 72 262.485 C 72 261.708, 79.856 258, 81.502 258 L 83.084 258 80.364 262.750 C 78.868 265.363, 77.899 267.275, 78.211 267 C 79.269 266.068, 86 256.986, 86 256.491 C 86 255.503, 79.394 256.125, 75.625 257.469 M 170 258.500 L 168.755 260 173.628 259.968 L 178.500 259.936 176.559 258.468 C 174.071 256.587, 171.578 256.599, 170 258.500 M 132.289 262.818 C 130.703 263.803, 127.696 271.030, 128.527 271.858 C 128.882 272.211, 129.939 271.554, 130.876 270.399 L 132.580 268.297 135.979 270.626 C 140.065 273.426, 141.402 272.890, 137.665 269.951 C 136.213 268.809, 134.682 266.567, 134.262 264.970 C 133.758 263.051, 133.089 262.321, 132.289 262.818 M 68.405 265.250 L 66.500 267.500 68.750 265.595 C 70.864 263.805, 71.455 263, 70.655 263 C 70.465 263, 69.453 264.012, 68.405 265.250 M 63.667 265.667 C 63.300 266.033, 63 266.798, 63 267.367 C 63 267.993, 63.466 267.934, 64.183 267.217 C 64.834 266.566, 65.134 265.801, 64.850 265.517 C 64.566 265.233, 64.033 265.300, 63.667 265.667 M 303.609 269.750 C 306.272 281.070, 312.609 288.420, 321.016 289.942 L 326.500 290.934 321.063 290.492 L 315.627 290.050 311.329 285.832 C 308.643 283.196, 305.988 279.115, 304.249 274.949 L 301.466 268.283 299.299 269.085 L 297.131 269.887 298.007 272.694 C 298.489 274.237, 299.359 277.351, 299.941 279.613 C 302.636 290.096, 316.713 296, 339.013 296 C 349.313 296, 349.304 293.849, 339 292.624 C 337.075 292.395, 337.863 292.273, 340.751 292.354 C 344.363 292.454, 346.001 292.110, 346.001 291.250 C 346 290.563, 345.523 290, 344.941 290 C 344.359 290, 344.156 289.557, 344.490 289.016 C 345.453 287.458, 339.811 271.969, 337.909 270.952 C 336.863 270.392, 332.348 270.407, 326.347 270.991 C 320.931 271.517, 315.727 271.960, 314.781 271.974 C 313.836 271.988, 313.200 272.563, 313.367 273.250 C 313.535 273.938, 313.482 274.157, 313.249 273.738 C 312.732 272.808, 304.373 267, 303.551 267 C 303.227 267, 303.253 268.238, 303.609 269.750 M 63.557 271.223 C 61.558 274.076, 61.567 276.897, 63.578 277.668 C 65.748 278.501, 68.025 275.957, 68.505 272.162 L 68.905 269 67.009 269 C 65.967 269, 64.413 270, 63.557 271.223 M 130.468 272.036 L 128.728 273.958 130.317 274.568 C 131.192 274.904, 132.799 274.554, 133.890 273.790 L 135.872 272.401 134.040 271.257 L 132.208 270.113 130.468 272.036 M 333.408 274.378 C 333.118 275.136, 333.352 277.273, 333.928 279.128 L 334.977 282.500 334.548 278.500 L 334.119 274.500 335.310 278.168 C 336.801 282.765, 338.414 284.533, 337.435 280.498 C 335.746 273.542, 334.472 271.605, 333.408 274.378 M 337 273.118 C 337 274.751, 340.220 284.114, 340.637 283.696 C 341.253 283.080, 338.980 274.863, 337.831 273.550 C 337.374 273.028, 337 272.833, 337 273.118 M 307.603 277.167 C 307.886 277.625, 308.541 278, 309.059 278 C 309.577 278, 310 277.625, 310 277.167 C 310 276.708, 309.345 276.333, 308.544 276.333 C 307.743 276.333, 307.320 276.708, 307.603 277.167 M 319.471 285.250 L 321.230 288 330.782 288 C 336.035 288, 340.059 287.726, 339.724 287.391 C 339.389 287.056, 335.411 286.836, 330.884 286.902 L 322.652 287.022 320.182 284.761 L 317.712 282.500 319.471 285.250 M 77.600 286.459 C 76.970 288.969, 79.160 294.978, 81.921 298.311 L 83.420 300.122 81.960 301.046 C 81.061 301.614, 80.958 301.975, 81.691 301.985 C 83.544 302.009, 84.295 300.060, 83.022 298.527 C 82.390 297.765, 81.695 295.647, 81.478 293.821 L 81.083 290.500 82.510 292.397 C 83.294 293.441, 83.656 294.748, 83.313 295.302 C 82.932 295.919, 83.203 295.992, 84.015 295.490 C 84.968 294.902, 85.167 295.124, 84.723 296.279 C 83.998 298.169, 90.101 304.006, 92.785 303.989 C 94.012 303.981, 93.576 303.250, 91.253 301.419 C 89.468 300.012, 86.198 295.764, 83.988 291.980 C 79.276 283.911, 78.424 283.175, 77.600 286.459 M 55.571 285.763 C 54.625 286.708, 54.938 294.233, 56.101 298.500 C 59.050 309.318, 70.787 313.428, 83.233 308 C 86.386 306.625, 88.974 305.232, 88.983 304.905 C 88.992 304.578, 87.995 303.453, 86.767 302.405 L 84.534 300.500 85.910 302.274 C 87.621 304.482, 87.652 304.455, 81.068 306.397 C 75.538 308.029, 66.520 308.521, 63.484 307.356 C 61.632 306.645, 58 298.999, 58 295.810 C 58 294.273, 58.421 293.960, 59.750 294.512 C 62.534 295.666, 75.369 296.193, 76.801 295.211 C 77.823 294.510, 77.853 293.771, 76.939 291.766 L 75.776 289.214 68.526 288.535 C 64.538 288.161, 60.120 287.256, 58.708 286.524 C 57.296 285.791, 55.885 285.449, 55.571 285.763 M 270.652 288.374 C 273.389 291.616, 279.756 295.577, 280.705 294.629 C 281.345 293.988, 279.144 289.933, 276.701 287.250 C 275.338 285.754, 273.504 285, 271.227 285 L 267.803 285 270.652 288.374 M 84 287.050 C 84 288.829, 86.995 294, 88.026 294 C 89.286 294, 89.274 293.899, 87.487 289.622 C 86.069 286.229, 84 284.703, 84 287.050 M 290.765 288.569 C 290.442 288.891, 291.518 292.018, 293.155 295.517 C 294.940 299.332, 296.327 304.206, 296.618 307.690 C 297.464 317.798, 298.056 320.523, 299.064 318.931 C 300.768 316.238, 300.118 303.391, 297.990 297.702 C 296.049 292.515, 291.972 287.361, 290.765 288.569 M 328.750 291.706 C 329.988 291.944, 332.012 291.944, 333.250 291.706 C 334.488 291.467, 333.475 291.272, 331 291.272 C 328.525 291.272, 327.512 291.467, 328.750 291.706 M 93.550 299.943 C 94.539 300.924, 103.197 303.136, 103.777 302.556 C 104.166 302.167, 95.121 299, 93.622 299 C 92.977 299, 92.950 299.348, 93.550 299.943 M 192.894 299.750 C 192.675 301.298, 193.137 306.566, 193.643 308.303 C 194.059 309.732, 194.461 309.862, 195.584 308.930 C 197.247 307.550, 197.432 303.675, 195.965 300.934 C 194.939 299.017, 193.098 298.307, 192.894 299.750 M 183.438 306.156 C 183.832 309.639, 184.352 312.686, 184.594 312.927 C 185.830 314.163, 187.227 310.579, 187.355 305.845 L 187.500 300.500 185.111 300.162 L 182.722 299.824 183.438 306.156 M 164.029 303.466 L 162.757 304.998 165.389 304.780 C 166.836 304.660, 167.875 304.126, 167.698 303.594 C 167.143 301.930, 165.355 301.868, 164.029 303.466 M 173 304.966 C 173 306.047, 173.749 308.504, 174.665 310.424 L 176.331 313.917 177.517 311.629 C 178.170 310.371, 178.494 307.915, 178.238 306.171 L 177.773 303 175.387 303 C 173.680 303, 173 303.561, 173 304.966 M 208.441 314.096 C 208.068 314.699, 208.379 315.776, 209.132 316.489 C 211.132 318.386, 256.245 349.794, 287.865 371.304 C 306.856 384.222, 316.139 391.155, 318.202 393.959 C 319.836 396.182, 320.896 398, 320.558 398 C 316.945 398, 285.742 377.779, 230.515 339.647 L 203.530 321.015 201.040 323.505 L 198.551 325.995 200.525 327.906 C 202.642 329.954, 252.221 364.229, 283.614 385.347 L 302.712 398.194 313.606 398.649 C 324.566 399.107, 333.050 398.466, 332.941 397.189 C 332.909 396.810, 319.317 387.500, 302.737 376.500 C 286.156 365.500, 258.521 346.712, 241.325 334.750 C 224.129 322.788, 209.848 313, 209.589 313 C 209.330 313, 208.813 313.493, 208.441 314.096 M 164 323.842 C 164 325.338, 167.383 327.018, 170.184 326.914 L 172.500 326.828 169.686 325.983 C 168.138 325.519, 166.226 324.602, 165.436 323.947 C 164.466 323.142, 164 323.108, 164 323.842 M 280.589 326.250 L 278.033 329.500 280.152 329.837 C 282.797 330.258, 286.496 326.736, 285.670 324.583 C 284.759 322.210, 283.421 322.649, 280.589 326.250 M 154 341.922 L 156.500 342.801 154 343.016 L 151.500 343.232 153.500 343.713 C 157.014 344.558, 157.345 345.662, 155.994 352.031 C 154.109 360.910, 152.789 361.825, 145.343 359.411 C 143.989 358.972, 144.147 359.342, 145.936 360.801 C 147.729 362.265, 149.636 362.732, 153.162 362.574 C 155.865 362.452, 158.110 362.825, 158.314 363.429 C 159.081 365.705, 162.069 361.565, 163.588 356.119 C 164.451 353.029, 165.377 349.712, 165.646 348.750 C 165.962 347.620, 165.580 347, 164.567 347 C 163.626 347, 163 347.866, 163 349.167 C 163 351.778, 162.171 351.205, 161.726 348.287 C 161.550 347.136, 160.753 345.398, 159.953 344.423 L 158.500 342.651 161.267 344.452 L 164.034 346.252 163.425 344.664 C 162.746 342.896, 161.355 342.353, 155.500 341.575 C 152.420 341.165, 152.075 341.245, 154 341.922 M 143.561 346.512 C 141.481 350.895, 141.849 353.404, 144.630 353.802 C 146.125 354.017, 146.919 353.434, 147.356 351.802 C 148.288 348.324, 148.181 348.008, 145.750 347.031 C 144.227 346.419, 144.026 346.106, 145.128 346.063 C 147.745 345.961, 149.250 348.585, 148.509 351.959 L 147.841 355 144.921 355 C 143.314 355, 142 355.389, 142 355.864 C 142 356.730, 150.905 360.525, 151.367 359.856 C 151.717 359.347, 154 347.593, 154 346.298 C 154 345.703, 152.762 344.922, 151.250 344.561 C 149.738 344.200, 147.770 343.689, 146.877 343.425 C 145.762 343.096, 144.723 344.063, 143.561 346.512 M 160.119 356.443 C 158.766 361.817, 158.727 362.689, 159.897 361.450 C 160.867 360.423, 162.480 352, 161.707 352 C 161.449 352, 160.734 353.999, 160.119 356.443 M 169.754 360.250 C 168.992 362.322, 170.049 364, 172.115 364 C 174.489 364, 175.711 361.307, 174.074 359.683 C 173.154 358.770, 173.025 358.876, 173.509 360.149 C 174.209 361.988, 172.573 363.472, 170.951 362.470 C 170.235 362.027, 170.273 361.376, 171.074 360.411 C 171.782 359.558, 171.843 359, 171.229 359 C 170.671 359, 170.007 359.563, 169.754 360.250 M 289.487 376.075 C 289.641 378.159, 301.452 386.914, 312.374 393.037 L 318.247 396.330 317.216 394.404 C 316.649 393.345, 315.356 391.735, 314.343 390.827 C 312.877 389.514, 295.181 377.617, 290.421 374.744 C 289.778 374.357, 289.400 374.895, 289.487 376.075" stroke="none" fill="black" fill-rule="evenodd"/>

  <metadata>
    <title>Векторизация для шелкографии</title>
    <description>Качество: simple, Размер: 400x400, Оптимизировано для печати</description>
    <keywords>silkscreen, векторизация, печать, potrace</keywords>
  </metadata>
</svg>