<?xml version="1.0" encoding="UTF-8"?>
<svg width="1024" height="1024" viewBox="0 0 1024 1024" xmlns="http://www.w3.org/2000/svg">
  <title>Adobe Limited Color (2 colors)</title>
  <desc>Generated with Adobe Illustrator Image Trace compatible algorithm</desc>
  <g id="color-1" fill="#cccccc" stroke="none">
    <path d="M 697.866 244.177 C 697.567 251.558, 698.286 256.838, 700.493 263.497 C 701.769 267.345, 702.572 270.884, 702.277 271.361 C 701.378 272.815, 694.190 271.328, 688.384 268.487 C 685.213 266.936, 679.165 262.252, 674.066 257.400 C 669.211 252.780, 664.449 249, 663.484 249 C 661.966 249, 661.816 249.640, 662.376 253.727 C 663.126 259.198, 667.396 268.668, 671.817 274.663 C 675.477 279.627, 680.413 283.148, 692.500 289.416 C 701.314 293.988, 709.351 300.446, 708.691 302.427 C 708.508 302.975, 706.247 303.295, 703.665 303.136 C 696.812 302.714, 693 303.767, 693 306.079 C 693 307.725, 692.250 308.005, 687.750 308.033 C 684.862 308.051, 680.025 308.972, 677 310.080 C 673.975 311.188, 670.735 312.345, 669.800 312.651 C 667.517 313.398, 644.666 304.431, 641.007 301.353 C 639.409 300.007, 634.169 293.947, 629.363 287.884 C 620.410 276.589, 607.536 265, 603.941 265 C 602.873 265, 602 265.365, 602 265.810 C 602 267.229, 606.607 278.204, 610.999 287.248 C 614.418 294.289, 615.013 296.280, 614.043 297.448 C 612.373 299.460, 598.672 302.353, 593.866 301.709 C 589.438 301.115, 579.310 296.345, 567.925 289.491 C 563.758 286.983, 558.696 284.663, 556.675 284.335 C 553.502 283.820, 553 284.003, 553 285.673 C 553 288.514, 558.345 296.462, 564.823 303.254 C 574.771 313.682, 585.346 318.553, 615.500 326.595 C 630.875 330.695, 637 332.828, 637 334.083 C 637 335.444, 624.885 335.137, 613.500 333.488 C 600.867 331.657, 593.997 331.574, 594.010 333.250 C 594.028 335.632, 598.809 344.529, 603.434 350.789 C 605.989 354.248, 610.738 358.973, 613.986 361.289 C 617.234 363.605, 619.916 365.819, 619.946 366.210 C 619.976 366.600, 618.087 367.438, 615.750 368.072 C 605.375 370.885, 594 375.821, 594 377.509 C 594 378.970, 606.614 385.296, 612.860 386.969 C 615.259 387.611, 619.411 388.020, 622.087 387.878 C 624.764 387.736, 627.277 387.943, 627.672 388.338 C 628.067 388.733, 625.428 392.081, 621.809 395.778 C 615.151 402.578, 608 411.477, 608 412.963 C 608 414.539, 616.872 415.072, 625.421 414.010 C 630.185 413.418, 634.511 413.198, 635.033 413.521 C 635.556 413.844, 634.238 416.446, 632.104 419.304 C 627.100 426.007, 624 432.231, 624 435.574 C 624 438.166, 624.109 438.212, 628.750 437.561 C 631.362 437.194, 635.678 436.194, 638.340 435.337 C 641.333 434.374, 643.535 434.135, 644.112 434.712 C 644.689 435.289, 644.197 437.525, 642.823 440.572 C 641.134 444.319, 640.503 447.956, 640.188 455.750 C 639.794 465.495, 639.872 466, 641.787 466 C 642.895 466, 646.209 463.999, 649.151 461.554 C 652.093 459.109, 654.804 457.422, 655.175 457.804 C 656.297 458.960, 662.057 473.972, 664.651 482.500 C 665.990 486.900, 667.354 493.299, 667.684 496.721 C 668.837 508.681, 664.508 525.595, 658.692 531.853 C 657.486 533.151, 654.679 535.474, 652.452 537.015 C 648.729 539.593, 648.009 539.745, 643.452 538.906 C 640.729 538.405, 635.706 536.627, 632.290 534.955 C 626.104 531.926, 626.060 531.873, 620.289 520.721 C 617.103 514.564, 613.802 509.393, 612.952 509.229 C 612.009 509.048, 610.480 510.580, 609.028 513.163 C 606.650 517.395, 606.650 517.395, 601.239 511.448 C 587.365 496.197, 576.741 477.120, 569.956 455.276 C 566.897 445.425, 564 432.549, 564 428.802 C 564 425.547, 553.119 415.623, 539.634 406.579 C 520.692 393.875, 499.094 384.542, 476 379.083 C 457.791 374.779, 450.217 373.802, 430.974 373.273 C 412.231 372.758, 401.088 373.433, 383.250 376.164 C 377.242 377.084, 376 377.593, 376 379.137 C 376 380.766, 376.828 381, 382.583 381 C 390.411 381, 401.442 383.663, 413.051 388.357 C 429.240 394.901, 441.791 402.872, 453.339 413.943 C 462.012 422.258, 469.430 433.149, 468.620 436.379 C 468.301 437.649, 466.231 440.960, 464.020 443.737 C 461.809 446.514, 460 449.284, 460 449.893 C 460 451.479, 463.884 451.259, 469.464 449.358 C 473.270 448.061, 476.306 447.852, 483.892 448.364 C 498.547 449.354, 510.214 452.777, 524.044 460.146 C 541.028 469.195, 564.048 490.894, 571.255 504.646 C 573.315 508.577, 575 512.297, 575 512.913 C 575 513.529, 570.163 511.572, 564.250 508.564 C 558.337 505.556, 552.316 502.655, 550.869 502.117 C 549.288 501.530, 545.719 497.617, 541.932 492.320 C 538.465 487.469, 533.800 481.280, 531.567 478.566 C 526.933 472.937, 516.653 465, 513.995 465 C 512.059 465, 512.044 464.869, 515.378 477 C 517.387 484.305, 517.799 490.184, 516.338 490.699 C 515.699 490.924, 511.953 488.271, 508.013 484.804 C 493.706 472.215, 486.489 466.990, 479.954 464.487 C 468.754 460.199, 453 457.566, 453 459.982 C 453 460.522, 458.002 465.882, 464.115 471.892 C 470.388 478.061, 474.936 483.295, 474.555 483.910 C 474.126 484.606, 469.195 485, 460.922 485 C 449.443 485, 447.137 484.701, 440.731 482.378 C 421.513 475.409, 423.945 475.825, 405 476.267 C 388.592 476.650, 382 477.678, 382 479.854 C 382 480.351, 383.462 481.299, 385.250 481.962 C 394.277 485.306, 406 491.638, 406 493.169 C 406 493.993, 397.803 496.529, 382.434 500.461 C 372.368 503.036, 372.368 503.036, 356.523 501.518 C 347.809 500.683, 336.364 500.009, 331.089 500.019 C 320.959 500.040, 311.500 501.855, 311.500 503.780 C 311.500 504.412, 315.550 506.909, 320.500 509.328 C 325.450 511.747, 330.349 514.678, 331.386 515.842 C 333.204 517.882, 333.206 517.984, 331.445 518.660 C 330.440 519.045, 324.416 518.605, 318.059 517.681 C 299.917 515.043, 292.098 514.627, 285.694 515.958 C 282.501 516.622, 280.042 517.625, 280.229 518.187 C 280.416 518.748, 283.186 520.312, 286.385 521.660 C 293.650 524.724, 299.073 528.189, 298.653 529.500 C 298.478 530.049, 296.144 531.312, 293.468 532.306 C 288.808 534.036, 288.178 534.039, 278.551 532.377 C 264.768 529.996, 244.999 530.024, 234.240 532.439 C 229.698 533.459, 225.238 534.837, 224.330 535.501 C 222.917 536.534, 224.317 537.560, 234.019 542.604 C 240.256 545.847, 245.504 548.952, 245.681 549.505 C 246.016 550.549, 244.701 551.236, 234.270 555.471 C 228.947 557.632, 226.471 558.001, 217.270 558.008 C 204.832 558.016, 196.179 559.203, 187 562.160 C 175.486 565.868, 164.471 573.916, 170.750 574.033 C 171.713 574.050, 177.362 574.675, 183.305 575.421 C 193.004 576.638, 196.168 577.419, 194.917 578.290 C 194.687 578.450, 191.350 581.075, 187.500 584.125 C 183.650 587.175, 179.600 590.143, 178.500 590.719 C 177.400 591.296, 174.475 592.070, 172 592.439 C 169.525 592.808, 163.045 594.505, 157.600 596.209 C 149.535 598.733, 147.010 600.018, 143.982 603.138 C 137.775 609.534, 130.588 625, 133.824 625 C 134.277 625, 138.406 623.875, 143 622.500 C 152.382 619.692, 155 619.423, 155 621.268 C 155 623.762, 149.592 630.659, 139.920 640.500 C 134.013 646.510, 129.284 652.295, 128.068 655 C 126.467 658.559, 126.039 661.643, 126.022 669.750 C 126.005 677.680, 126.304 680, 127.345 680 C 128.085 680, 129.547 679.034, 130.595 677.854 C 132.897 675.260, 139.966 670, 141.150 670 C 143.153 670, 141.724 677.516, 138.259 685.202 C 134.831 692.807, 134.518 694.252, 134.516 702.500 C 134.515 710.021, 134.902 712.239, 136.874 716 C 139.386 720.791, 141.853 724, 143.025 724 C 143.418 724, 144.295 722.017, 144.974 719.594 C 145.652 717.171, 147.111 713.703, 148.215 711.887 C 150.127 708.742, 150.289 708.675, 151.612 710.483 C 152.375 711.528, 153.016 714.209, 153.035 716.441 C 153.099 723.844, 155.832 736.137, 158.685 741.858 C 161.985 748.473, 170.020 757, 172.952 757 C 174.807 757, 175 756.384, 175 750.469 C 175 740.928, 176.459 740.956, 185.831 750.678 C 193.553 758.687, 198.198 761.671, 204.551 762.702 C 207.379 763.161, 208 762.947, 208 761.517 C 208 759.517, 208.688 759.586, 221.910 762.923 C 237.047 766.744, 249.792 768.237, 269.205 768.463 C 289.281 768.697, 289.827 768.830, 292.592 774.177 C 294.456 777.782, 297.449 777.813, 299.662 774.250 C 300.601 772.737, 302.225 770.530, 303.270 769.344 C 304.867 767.533, 305.677 767.333, 308.336 768.092 C 310.076 768.590, 313.300 769.888, 315.500 770.978 C 327.591 776.970, 346.511 783.823, 347.691 782.639 C 348.852 781.473, 348.455 771.718, 347.147 769.274 C 346.279 767.653, 346.374 766.935, 347.587 765.928 C 348.856 764.875, 349.637 764.945, 351.970 766.323 C 353.531 767.245, 355.432 768, 356.193 768 C 356.954 768, 359.342 768.900, 361.500 770 C 366.250 772.421, 370 772.617, 370 770.443 C 370 767.100, 367.558 759.353, 365.604 756.500 C 364.474 754.850, 361.781 751.611, 359.618 749.302 C 356.173 745.624, 354.995 745.025, 350.093 744.463 C 340.775 743.394, 337.538 742.219, 335.199 739.056 C 333.990 737.420, 333 735.845, 333 735.556 C 333 735.267, 331.538 732.661, 329.750 729.765 C 326.500 724.500, 326.500 724.500, 326.567 711.219 C 326.618 701.065, 326.971 697.613, 328.067 696.557 C 329.129 695.533, 335.523 694.895, 352.774 694.092 C 365.575 693.495, 379.475 692.300, 383.663 691.435 C 387.851 690.570, 395.013 688.510, 399.578 686.858 C 406.213 684.457, 408.713 682.950, 412.030 679.351 C 414.313 676.874, 416.391 675.058, 416.647 675.314 C 416.903 675.570, 419.336 681.792, 422.054 689.140 C 424.771 696.488, 429.358 707.859, 432.247 714.410 C 436.184 723.335, 438.215 726.756, 440.355 728.063 C 442.531 729.391, 446.460 729.955, 456.855 730.430 C 470.667 731.062, 484.923 732.770, 499.500 735.540 C 503.900 736.375, 509.863 737.334, 512.750 737.670 C 518 738.280, 518 738.280, 518 734.862 C 518 732.983, 517.299 730.445, 516.443 729.223 C 515.403 727.737, 515.276 727, 516.062 727 C 516.708 727, 520.999 727.774, 525.597 728.721 C 531.962 730.031, 534.236 730.164, 535.123 729.277 C 537.726 726.674, 530.763 716.926, 522 710.905 C 518.594 708.565, 517.969 708.500, 498.793 708.500 C 479.085 708.500, 479.085 708.500, 472.978 702.500 C 466.568 696.204, 457 684.027, 457 682.166 C 457 681.567, 458.688 680.666, 460.750 680.164 C 494.912 671.845, 503.440 669.515, 508.642 667.080 C 513.177 664.958, 515.901 662.795, 519.006 658.851 C 521.323 655.908, 523.622 653.349, 524.116 653.164 C 524.610 652.980, 529.399 655.521, 534.757 658.812 C 545.242 665.251, 559.093 672.416, 565.267 674.594 C 567.473 675.372, 573.412 679.872, 579.294 685.222 C 589.369 694.385, 615.082 719.810, 620.073 725.544 C 624.228 730.317, 640.997 746.108, 647.500 751.370 C 650.800 754.040, 653.865 756.859, 654.312 757.634 C 654.758 758.409, 654.569 762.343, 653.891 766.376 C 652.893 772.315, 652.909 774.602, 653.973 778.402 C 655.539 783.998, 658.455 788, 660.966 788 C 662.099 788, 664.596 785.353, 667.570 781 C 670.201 777.150, 672.761 774, 673.259 774 C 674.101 774, 681.518 777.036, 693.500 782.284 C 700.421 785.316, 705 788.029, 705 789.099 C 705 789.594, 707.423 790, 710.383 790 C 715.390 790, 715.802 789.818, 716.265 787.394 C 716.539 785.961, 716.147 782.473, 715.393 779.644 C 714.640 776.815, 714.018 774.379, 714.012 774.230 C 713.969 773.267, 719.832 775.377, 725.850 778.491 C 729.747 780.508, 733.400 781.871, 733.968 781.520 C 736.944 779.681, 733.212 765.386, 728.445 760.360 C 727.850 759.733, 726.258 757.933, 724.907 756.360 C 723.556 754.787, 721.745 752.942, 720.883 752.259 C 720.022 751.576, 714.886 750.558, 709.471 749.997 C 704.055 749.435, 698 748.539, 696.015 748.004 C 694.029 747.469, 691.227 745.787, 689.788 744.266 C 684.001 738.149, 655.298 689.945, 656.391 688.177 C 656.689 687.694, 660.217 687.022, 664.230 686.682 C 668.243 686.343, 675.633 684.999, 680.651 683.696 C 689.776 681.326, 689.776 681.326, 694.138 684.469 C 696.537 686.198, 710.875 695.412, 726 704.944 C 741.125 714.477, 754.504 723.184, 755.730 724.293 C 757.385 725.791, 757.802 726.980, 757.346 728.906 C 757.008 730.332, 756.170 732.175, 755.483 733 C 753.881 734.926, 753.483 752.165, 754.976 754.955 C 755.578 756.080, 756.761 757, 757.606 757 C 758.451 757, 762.279 754.188, 766.113 750.750 C 769.947 747.313, 773.517 744.349, 774.046 744.165 C 774.575 743.981, 781.193 746.306, 788.754 749.331 C 803.551 755.251, 814.984 759, 818.244 759 C 820.117 759, 820.236 758.538, 819.750 753.177 C 819.459 749.975, 819.653 746.585, 820.180 745.643 C 821.053 744.083, 821.607 744.201, 826.440 746.966 C 829.357 748.635, 832.741 750, 833.960 750 C 836.004 750, 836.125 749.670, 835.515 745.750 C 834.488 739.150, 830.572 731.974, 825.013 726.506 C 819.936 721.512, 819.936 721.512, 808.218 721.219 C 801.773 721.057, 795.533 720.720, 794.352 720.469 C 790.416 719.634, 772.139 695.183, 758.496 672.500 C 755.850 668.100, 751.118 660.579, 747.983 655.788 C 742.281 647.075, 742.281 647.075, 748.600 638.400 C 759.782 623.051, 766.247 608.416, 770.017 589.918 C 771.508 582.601, 772.079 575.876, 772.116 565.184 C 772.158 553.046, 771.706 548.266, 769.508 537.614 C 768.046 530.526, 765.506 521.076, 763.864 516.614 C 758.812 502.879, 750.166 486.820, 737.423 467.499 C 734.521 463.098, 730.202 455.448, 727.825 450.499 C 724.212 442.975, 723.504 440.517, 723.502 435.500 C 723.500 429.686, 723.577 429.509, 726 429.801 C 727.375 429.967, 731.425 431.503, 735 433.215 C 746.504 438.724, 761.555 456.239, 765.224 468.386 C 766.334 472.061, 766.252 472.388, 763.699 474.423 C 762.215 475.607, 761 477.100, 761 477.742 C 761 479.754, 767.687 480.340, 772.514 478.751 C 777.510 477.106, 778.270 478.019, 774.895 481.612 C 773.738 482.844, 773.089 484.335, 773.454 484.926 C 774.607 486.791, 784.041 486.158, 788.700 483.903 C 791.082 482.750, 795.333 479.160, 798.146 475.925 C 800.960 472.690, 803.653 470.285, 804.131 470.581 C 804.609 470.876, 805 472.666, 805 474.559 C 805 476.452, 805.382 478, 805.850 478 C 806.317 478, 808.531 476.673, 810.770 475.052 C 816.367 470.997, 821.817 459.922, 822.650 450.911 C 823.159 445.400, 822.977 444.090, 821.534 442.911 C 820.586 442.135, 818.707 440.488, 817.359 439.250 C 816.012 438.012, 813.997 437, 812.882 437 C 810.859 437, 810.859 437.005, 812.933 439.641 C 814.433 441.549, 814.720 442.633, 813.964 443.543 C 813.157 444.516, 813.644 444.769, 816.102 444.652 C 817.879 444.567, 819.482 445.055, 819.729 445.756 C 820.320 447.435, 811.380 451.505, 802.521 453.590 C 795.942 455.138, 795.248 455.134, 791.500 453.528 C 787.800 451.942, 787.648 451.726, 789.470 450.657 C 790.553 450.020, 792.695 448.210, 794.231 446.632 C 797.022 443.765, 797.022 443.765, 798.109 446.882 C 798.707 448.597, 799.542 450, 799.964 450 C 800.639 450, 810.979 446.002, 811.820 445.417 C 811.996 445.294, 811.168 443.289, 809.980 440.961 C 808.411 437.885, 808.142 436.531, 808.994 436.004 C 809.817 435.495, 809.670 435.087, 808.502 434.639 C 806.175 433.746, 806 433.807, 806 435.500 C 806 436.325, 805.536 437, 804.969 437 C 803.315 437, 802.668 434.105, 803.971 432.535 C 804.628 431.744, 805.015 430.320, 804.833 429.371 C 804.589 428.107, 803.761 428.763, 801.736 431.823 C 800.216 434.120, 798.573 436, 798.086 436 C 796.919 436, 786.779 424.887, 787.390 424.277 C 787.650 424.017, 790.165 424.299, 792.980 424.902 C 800.289 426.470, 804.795 426.268, 810.701 424.109 C 815.566 422.331, 818.511 420.817, 832 413.159 C 836.354 410.687, 838.682 410.032, 843.173 410.018 C 847.735 410.004, 849.423 409.515, 851.790 407.523 C 853.409 406.161, 855.740 402.708, 856.969 399.850 C 858.946 395.256, 859.158 393.369, 858.800 383.577 C 858.479 374.768, 857.920 371.424, 856.072 367.243 C 854.793 364.351, 852.239 360.661, 850.395 359.042 C 845.372 354.632, 841.274 354.263, 831.840 357.372 C 827.314 358.862, 821.590 360, 818.612 360 C 809.461 360, 798.164 355.622, 799.348 352.535 C 800.207 350.297, 797.860 339.657, 795.465 334.930 C 794.101 332.238, 791.863 329.301, 790.492 328.403 C 789.013 327.434, 788 325.820, 788 324.433 C 788 322.624, 786.591 321.270, 781.765 318.442 C 775.134 314.556, 760.282 309.276, 753.275 308.315 C 749.496 307.796, 748.829 307.279, 746.960 303.418 C 745.675 300.763, 741.097 295.621, 735.072 290.066 C 724.625 280.434, 720.009 274.143, 708.248 253.505 C 701.024 240.831, 698.107 238.209, 697.866 244.177 M 700.688 249.645 C 699.829 250.505, 700.820 255.380, 703.760 264.743 C 705.183 269.276, 706.006 273.326, 705.589 273.743 C 704.461 274.868, 695.700 274.384, 691.323 272.955 C 685.537 271.066, 677.815 265.785, 671.590 259.460 C 666.892 254.686, 666 254.130, 666 255.976 C 666 257.183, 667.462 261.119, 669.250 264.721 C 673.092 272.463, 681.119 280.231, 689.727 284.538 C 700.114 289.734, 706.601 293.836, 711.739 298.456 C 715.448 301.790, 717.622 303, 719.904 303 C 721.614 303, 727.575 303.685, 733.151 304.523 C 738.726 305.360, 743.485 305.849, 743.725 305.608 C 744.687 304.647, 741.705 301.055, 732.168 291.685 C 722.458 282.146, 718.930 277.307, 707.049 257.231 C 704.683 253.233, 702.417 249.758, 702.013 249.508 C 701.609 249.259, 701.013 249.320, 700.688 249.645 M 607 271.376 C 607 272.081, 612.178 283.490, 615.592 290.305 C 617.466 294.048, 619 297.743, 619 298.516 C 619 302.173, 594.315 305.559, 586.404 302.988 C 584.257 302.290, 578.994 299.644, 574.708 297.109 C 570.423 294.574, 565.108 291.439, 562.899 290.142 C 560.689 288.846, 558.632 288.035, 558.327 288.340 C 556.521 290.145, 570.422 305.101, 578.827 310.396 C 585.683 314.715, 596.178 318.518, 614.690 323.390 C 636.797 329.208, 645.442 333.438, 658.253 344.700 C 660.856 346.989, 663.001 347.999, 665.253 347.996 C 669.377 347.992, 673.994 345.185, 677.551 340.522 C 683.015 333.358, 680.294 323.601, 671.374 318.373 C 668.926 316.938, 663.002 314.288, 658.211 312.483 C 640.407 305.776, 638.671 304.716, 632.531 296.808 C 626.375 288.878, 609.295 271, 607.876 271 C 607.394 271, 607 271.169, 607 271.376 M 788 333.759 C 788 334.177, 788.933 335.102, 790.073 335.814 C 792.860 337.554, 795.951 344.619, 795.978 349.309 C 795.991 351.589, 796.401 352.870, 797 352.500 C 798.318 351.685, 798.280 344.871, 796.936 341.315 C 795.657 337.928, 791.139 333, 789.313 333 C 788.591 333, 788 333.342, 788 333.759 M 785.404 337.390 C 785.036 338.349, 785.244 339.644, 785.867 340.267 C 786.711 341.111, 787.308 341.092, 788.207 340.193 C 789.150 339.250, 789.049 338.620, 787.744 337.315 C 786.183 335.755, 786.029 335.760, 785.404 337.390 M 725.844 352.255 C 722.298 355.253, 721 358.074, 721 362.784 C 721 365.542, 721.881 367.916, 723.980 370.814 C 725.619 373.077, 728.297 375.619, 729.931 376.464 C 731.564 377.309, 734.887 378, 737.315 378 C 742.748 378, 747 375.050, 747 371.281 C 747 368.708, 747 368.708, 744.548 371.354 C 741.550 374.588, 737.792 374.766, 735.032 371.804 C 732.891 369.506, 731.015 364.108, 731.006 360.218 C 731.003 358.963, 731.675 356.320, 732.500 354.346 C 733.325 352.371, 734 350.586, 734 350.378 C 734 350.170, 732.763 350.002, 731.250 350.005 C 729.737 350.008, 727.305 351.020, 725.844 352.255 M 740.969 356.538 C 739.895 357.831, 739.942 358.371, 741.240 359.669 C 742.917 361.346, 745 360.733, 745 358.563 C 745 357.838, 744.385 356.734, 743.633 356.110 C 742.591 355.245, 741.957 355.347, 740.969 356.538 M 696.374 391.750 C 698.968 396.755, 706.184 404.059, 710.877 406.431 C 713.419 407.716, 720.675 410.448, 727 412.503 C 742.810 417.639, 755.967 424.657, 765.595 433.088 C 769.943 436.896, 775.816 442.033, 778.648 444.505 C 781.479 446.977, 784.280 449, 784.873 449 C 786.045 449, 785.372 443.778, 783.805 440.715 C 783.100 439.337, 782.155 439.068, 779.664 439.535 C 776.876 440.058, 776.414 439.850, 776.276 438.010 C 776.011 434.500, 773.998 429.243, 772.414 427.929 C 771.598 427.251, 768.193 426.637, 764.848 426.563 C 758.328 426.420, 758.952 426.841, 752.146 417.992 C 750.414 415.741, 749.267 415.098, 747.809 415.561 C 744.391 416.645, 739.218 415.049, 734.514 411.459 C 731.326 409.026, 728.938 408, 726.459 408 C 722.127 408, 717.111 405.962, 714.655 403.204 C 713.640 402.065, 712.234 399.457, 711.530 397.410 C 710.387 394.086, 709.569 393.439, 703.875 391.360 C 695.349 388.248, 694.580 388.288, 696.374 391.750 M 717 398 C 718.125 400.102, 721.446 400.705, 722.501 398.998 C 722.842 398.447, 721.939 397.547, 720.495 396.998 C 716.571 395.506, 715.786 395.731, 717 398 M 725 398.393 C 725 398.575, 727.058 400.992, 729.573 403.765 C 734 408.645, 734.231 408.761, 736.823 407.409 C 738.295 406.641, 740.513 406.010, 741.750 406.006 C 746.311 405.994, 743.778 404.093, 735.750 401.504 C 724.554 397.893, 725 398.022, 725 398.393 M 751.767 411.162 C 756.301 417.752, 756.891 418.063, 761.250 416.164 C 763.313 415.265, 765 414.218, 765 413.837 C 765 412.969, 755.408 408.392, 751.569 407.428 C 748.704 406.709, 748.704 406.709, 751.767 411.162 M 775 418.913 C 775 420.244, 783.148 426.026, 784.151 425.407 C 785.856 424.353, 784.908 423.030, 780.662 420.542 C 775.961 417.787, 775 417.511, 775 418.913 M 710.750 433.474 C 708.138 435.933, 706.014 438.520, 706.032 439.223 C 706.052 440.015, 706.585 439.813, 707.436 438.690 C 708.351 437.483, 709.036 437.249, 709.493 437.989 C 709.990 438.792, 710.566 438.775, 711.589 437.926 C 712.705 437, 713 437.094, 713 438.378 C 713 439.270, 713.569 440, 714.264 440 C 714.959 440, 716.317 441.822, 717.282 444.048 C 718.246 446.274, 719.478 447.823, 720.018 447.489 C 720.558 447.155, 721 447.359, 721 447.941 C 721 448.523, 720.325 449, 719.500 449 C 718.675 449, 718 449.450, 718 450 C 718 450.550, 719.177 451, 720.617 451 C 723.516 451, 723.514 451.272, 720.684 441 C 719.851 437.975, 719.018 434.154, 718.834 432.509 C 718.646 430.823, 717.845 429.405, 717 429.260 C 716.175 429.118, 713.362 431.015, 710.750 433.474 M 703 446.833 C 703 448.392, 703.312 449.978, 703.692 450.359 C 704.073 450.740, 704.533 452.025, 704.715 453.215 C 704.897 454.405, 705.199 455.532, 705.387 455.721 C 705.853 456.187, 712.417 452.686, 712.833 451.750 C 713.017 451.337, 713.831 451, 714.642 451 C 715.469 451, 715.816 450.512, 715.432 449.890 C 714.758 448.800, 710.281 449.125, 706.750 450.522 C 705.522 451.007, 705 450.734, 705 449.607 C 705 448.683, 705.825 448, 706.941 448 C 709.724 448, 710.396 446.282, 708.094 445.050 C 704.631 443.197, 703 443.768, 703 446.833 M 714.566 455.582 C 710.152 457.199, 707 459.687, 707 461.556 C 707 462.790, 709.971 469.460, 713.332 475.772 C 715.075 479.045, 715.075 479.045, 718.287 476.609 C 720.054 475.269, 724.188 473.270, 727.473 472.166 C 730.759 471.063, 733.584 469.749, 733.751 469.247 C 734.045 468.364, 728.451 458.453, 725.973 455.468 C 724.458 453.643, 719.732 453.690, 714.566 455.582 M 728.635 475.038 C 725.960 476.054, 722.046 478.028, 719.937 479.423 C 716.104 481.960, 716.104 481.960, 721.205 492.730 C 724.011 498.653, 726.386 503.611, 726.483 503.746 C 726.580 503.882, 729.159 502.638, 732.214 500.984 C 735.269 499.329, 740.409 497.487, 743.635 496.891 C 746.861 496.295, 749.832 495.602, 750.239 495.352 C 751.049 494.851, 750.250 493.449, 742.201 481.250 C 738.903 476.252, 736.115 473.038, 735.128 473.095 C 734.233 473.148, 731.311 474.022, 728.635 475.038 M 744.500 499.387 C 741.750 500.056, 737.025 501.934, 734 503.561 C 729.095 506.200, 728.520 506.843, 728.688 509.510 C 728.792 511.154, 730.220 517.450, 731.861 523.500 C 733.866 530.893, 735.280 534.432, 736.172 534.291 C 736.903 534.176, 740.200 533.396, 743.500 532.557 C 746.800 531.718, 752.736 531.024, 756.691 531.016 C 760.646 531.007, 764.135 530.590, 764.445 530.090 C 765.209 528.853, 759.553 513.055, 755.372 504.750 C 753.504 501.038, 751.418 498.038, 750.737 498.085 C 750.057 498.132, 747.250 498.718, 744.500 499.387 M 751.772 534.165 C 744.796 534.855, 738.413 536.536, 736.250 538.253 C 735.355 538.963, 735 543.288, 735 553.483 C 735 567.721, 735 567.721, 746.250 568.299 C 752.438 568.616, 759.868 569.540, 762.762 570.351 C 767.842 571.774, 768.062 571.753, 769.148 569.724 C 770.954 566.348, 768.439 539.749, 765.842 534.753 C 764.885 532.913, 764.567 532.900, 751.772 534.165 M 735.348 572.131 C 734.745 572.884, 733.929 575.730, 733.534 578.456 C 733.139 581.182, 731.725 587.176, 730.392 591.776 C 729.059 596.376, 728.190 600.499, 728.462 600.938 C 728.733 601.377, 731.103 602.026, 733.728 602.380 C 736.352 602.734, 743.219 604.560, 748.987 606.437 C 756.467 608.872, 759.833 609.553, 760.727 608.812 C 761.415 608.240, 763.376 603.436, 765.084 598.136 C 767.076 591.955, 768.245 586.169, 768.345 582 C 768.500 575.500, 768.500 575.500, 763 573.618 C 755.775 571.145, 736.946 570.133, 735.348 572.131 M 471.050 590.558 C 467.502 591.327, 463.832 592.753, 462.894 593.728 C 461.370 595.310, 461.277 596.910, 462.021 608.679 C 462.479 615.927, 463.352 622.789, 463.962 623.929 C 464.572 625.068, 465.963 626, 467.054 626 C 470.501 626, 483.960 629.953, 495.514 634.359 C 502.544 637.039, 514.018 642.889, 526.581 650.197 C 549.190 663.350, 565.346 672, 567.302 672 C 568.034 672, 569.648 669.548, 570.890 666.552 C 572.685 662.221, 574.760 659.723, 581.016 654.363 C 585.343 650.655, 588.658 647.255, 588.381 646.808 C 587.523 645.419, 584.395 647.722, 575.006 656.657 C 570.023 661.399, 565.692 665.025, 565.382 664.715 C 564.068 663.402, 566.460 659.888, 572.772 653.856 C 576.472 650.320, 580.830 646.482, 582.455 645.326 C 585.410 643.226, 585.410 643.226, 582.505 639.418 C 580.907 637.323, 576.736 632.688, 573.236 629.119 C 566.872 622.628, 566.872 622.628, 564.418 625.564 C 561.350 629.234, 550 651.782, 550 654.207 C 550 655.193, 549.550 656, 549 656 C 547.646 656, 547.738 654.426, 549.487 647.711 C 551.198 641.141, 557.161 628.814, 560.631 624.673 C 561.934 623.119, 563 621.231, 563 620.478 C 563 619.161, 548.774 607.478, 544.355 605.165 C 542.732 604.315, 541.964 604.341, 541.197 605.271 C 538.879 608.084, 532.838 621.368, 530.339 629.146 C 526.065 642.447, 524.610 642.210, 527.584 628.697 C 528.456 624.739, 531.182 617.303, 533.644 612.174 C 536.944 605.296, 537.839 602.511, 537.053 601.564 C 535.918 600.196, 519.833 593.333, 516.540 592.811 C 515.241 592.605, 514.151 593.376, 513.308 595.098 C 511.348 599.102, 509.139 608.552, 507.654 619.284 C 506.912 624.643, 506.011 629.322, 505.653 629.681 C 505.294 630.040, 505 627.148, 505 623.255 C 505 615.923, 506.787 605.030, 509.356 596.694 C 510.831 591.910, 510.827 591.885, 508.357 590.945 C 506.992 590.427, 502.092 589.711, 497.468 589.356 C 489.250 588.724, 489.041 588.764, 488.157 591.105 C 486.735 594.870, 485 609.575, 485 617.859 C 485 627.267, 483.317 626.363, 482.431 616.478 C 482.015 611.842, 482.353 606.384, 483.439 600.214 C 484.338 595.107, 484.806 590.495, 484.478 589.964 C 483.671 588.659, 478.815 588.874, 471.050 590.558 M 449.372 598.836 C 438.235 605.495, 438.195 605.545, 437.100 614.500 C 436.561 618.900, 436.431 622.800, 436.811 623.166 C 437.190 623.532, 442.675 623.969, 449 624.138 C 460.500 624.444, 460.500 624.444, 460.188 621.972 C 460.016 620.612, 459.633 613.987, 459.335 607.250 C 458.870 596.712, 458.564 595.012, 457.147 595.086 C 456.241 595.134, 452.742 596.821, 449.372 598.836 M 724.551 609.250 C 723.265 612.138, 720.589 617.356, 718.606 620.846 C 716.623 624.336, 715 627.570, 715 628.033 C 715 629.113, 731.070 639.713, 735.535 641.579 C 738.800 642.943, 739.065 642.882, 742.344 640.003 C 746.221 636.599, 753.529 626.049, 757.427 618.229 C 759.346 614.380, 759.710 612.855, 758.777 612.574 C 758.075 612.362, 753.450 610.963, 748.500 609.465 C 739.827 606.840, 729.365 604.110, 727.695 604.036 C 727.252 604.016, 725.837 606.362, 724.551 609.250 M 331.509 616.896 C 327.303 617.320, 325.439 617.947, 325.254 619 C 325.109 619.825, 326.363 622.882, 328.040 625.793 C 331.089 631.086, 331.089 631.086, 338.295 630.793 C 345.500 630.500, 345.500 630.500, 345.500 623.500 C 345.500 616.500, 345.500 616.500, 341.500 616.396 C 339.300 616.338, 334.804 616.563, 331.509 616.896 M 305.389 619.153 C 301.479 619.646, 295.179 620.855, 291.389 621.841 C 285.592 623.348, 284.554 623.939, 284.839 625.566 C 285.025 626.630, 286.104 629.011, 287.237 630.857 C 289.114 633.918, 289.612 634.161, 292.898 633.617 C 294.879 633.288, 302.800 632.533, 310.500 631.939 C 318.200 631.345, 325.063 630.679, 325.751 630.460 C 326.634 630.179, 326.101 628.290, 323.936 624.031 C 320.898 618.052, 320.835 618.001, 316.686 618.129 C 314.384 618.200, 309.300 618.661, 305.389 619.153 M 266.565 628.820 C 261.100 630.906, 256.490 633.037, 256.320 633.556 C 256.150 634.075, 257.084 635.842, 258.397 637.483 C 260.783 640.465, 260.783 640.465, 272.394 637.633 C 278.780 636.076, 284.199 634.487, 284.437 634.102 C 284.675 633.717, 283.874 631.625, 282.658 629.451 C 281.406 627.215, 279.590 625.398, 278.473 625.264 C 277.388 625.134, 272.029 626.735, 266.565 628.820 M 434.489 628.195 C 432.968 632.240, 431.384 640.120, 432.014 640.509 C 432.419 640.759, 435.394 639.888, 438.625 638.573 C 444.500 636.183, 444.500 636.183, 444.500 631.842 C 444.500 627.500, 444.500 627.500, 439.740 627.195 C 436.511 626.988, 434.822 627.309, 434.489 628.195 M 706.769 638.750 C 703.671 642.462, 699.530 647.051, 697.568 648.946 C 695.606 650.842, 694 652.764, 694 653.219 C 694 654.416, 701.731 662.619, 706.183 666.145 C 709.996 669.165, 709.996 669.165, 713.748 666.890 C 715.812 665.639, 720.650 662.040, 724.500 658.893 C 737.578 648.202, 740.309 645, 736.350 645 C 733.778 645, 725.039 640.405, 719.230 635.998 C 716.331 633.799, 713.609 632, 713.180 632 C 712.752 632, 709.867 635.038, 706.769 638.750 M 298.500 635.534 C 264.083 640.038, 235.775 650.985, 214.539 668.003 C 206.613 674.355, 201.149 681.463, 197.836 689.736 C 194.066 699.147, 193.498 705.814, 195.527 716.855 C 197.213 726.030, 197.213 726.030, 202.855 731.058 C 205.958 733.824, 209.497 736.338, 210.720 736.645 C 212.109 736.993, 214.703 736.219, 217.631 734.583 C 225.183 730.362, 239.833 724, 242.001 724 C 243.101 724, 244 724.657, 244 725.461 C 244 727.191, 236.092 737.368, 231.802 741.159 C 228.980 743.653, 228.910 743.882, 230.683 744.830 C 235.370 747.339, 266.533 753.400, 279.604 754.345 C 286.709 754.859, 286.709 754.859, 287.360 744.680 C 287.718 739.081, 289.392 719.200, 291.081 700.500 C 294.519 662.424, 295.311 659.022, 301.312 656.514 C 303.178 655.734, 309.159 654.106, 314.603 652.896 C 320.046 651.685, 329.675 649.472, 336 647.977 C 347.500 645.259, 347.500 645.259, 347.808 641.672 C 347.977 639.699, 347.624 637.166, 347.023 636.042 C 345.978 634.091, 345.095 634.005, 327.215 634.112 C 316.922 634.174, 304 634.814, 298.500 635.534 M 247.438 636.792 C 245.753 637.731, 243.352 639.244, 242.102 640.154 C 239.928 641.736, 239.901 641.920, 241.483 644.334 C 243.137 646.859, 243.137 646.859, 249.819 644.345 C 253.493 642.962, 256.712 641.619, 256.971 641.361 C 257.230 641.103, 256.960 640.578, 256.371 640.196 C 255.782 639.813, 254.766 638.487, 254.115 637.250 C 253.463 636.013, 252.383 635.019, 251.715 635.042 C 251.047 635.065, 249.122 635.852, 247.438 636.792 M 231 645.840 C 220.553 652.200, 219 653.226, 219 653.770 C 219 654.085, 219.729 655.148, 220.619 656.132 C 222.163 657.838, 222.593 657.730, 229.869 653.808 C 240.015 648.341, 240.375 647.980, 238.440 645.218 C 237.586 643.998, 236.575 643.023, 236.193 643.050 C 235.812 643.078, 233.475 644.333, 231 645.840 M 679.713 663.900 C 674.330 668.189, 666.230 673.625, 661.713 675.979 C 657.196 678.333, 653.069 680.654, 652.543 681.136 C 651.945 681.685, 652.187 682.615, 653.187 683.615 C 654.594 685.022, 655.837 685.076, 663.463 684.062 C 675.547 682.453, 689.923 678.558, 698.645 674.528 C 706.023 671.120, 706.023 671.120, 698.463 663.560 C 694.305 659.402, 690.587 656.023, 690.202 656.050 C 689.816 656.078, 685.096 659.610, 679.713 663.900 M 207.436 664.531 C 201.175 670.712, 200.021 672.321, 201.005 673.505 C 202.009 674.716, 203.556 673.711, 210.571 667.290 C 217.049 661.361, 218.692 659.334, 217.847 658.316 C 217.246 657.592, 216.375 657, 215.910 657 C 215.446 657, 211.632 660.389, 207.436 664.531 M 181.522 673.369 C 179.932 675.845, 177.759 686.800, 178.591 688.146 C 178.902 688.650, 180.583 688.794, 182.328 688.468 C 184.073 688.141, 187.402 688.303, 189.728 688.826 C 193.955 689.777, 193.955 689.777, 196.978 683.729 C 198.640 680.402, 200 677.573, 200 677.441 C 200 676.578, 190.950 672.743, 187.307 672.063 C 183.399 671.333, 182.733 671.483, 181.522 673.369 M 180.009 692.489 C 178.637 694.142, 179.286 699.351, 181.535 704.736 C 182.768 707.689, 183.176 707.919, 186.193 707.359 C 188.012 707.021, 190.008 706.240, 190.628 705.623 C 191.248 705.005, 192.006 701.890, 192.311 698.700 C 192.837 693.205, 192.734 692.850, 190.368 691.950 C 186.636 690.531, 181.408 690.803, 180.009 692.489 M 186.704 710.250 C 185.168 711.395, 185.287 711.900, 188.125 716.240 C 189.829 718.847, 191.655 720.713, 192.182 720.387 C 192.729 720.049, 192.847 718.012, 192.457 715.647 C 191.792 711.611, 190.461 709, 189.069 709 C 188.691 709, 187.627 709.563, 186.704 710.250 M 516.020 714.476 C 515.231 715.426, 515.155 716, 515.819 716 C 517.027 716, 518.436 714.103, 517.743 713.409 C 517.491 713.158, 516.716 713.638, 516.020 714.476 M 524.229 720.188 C 524.447 720.841, 525.160 721.553, 525.813 721.771 C 526.544 722.015, 526.767 721.557, 526.394 720.584 C 525.696 718.766, 523.629 718.388, 524.229 720.188 M 495.557 723.937 C 494.050 725.602, 493.446 728, 494.532 728 C 494.825 728, 496.657 727.334, 498.604 726.521 C 502.276 724.987, 502.446 723.611, 499.072 722.729 C 497.941 722.433, 496.456 722.944, 495.557 723.937 M 527 724 C 527 724.550, 527.702 725, 528.559 725 C 529.416 725, 529.840 724.550, 529.500 724 C 529.160 723.450, 528.459 723, 527.941 723 C 527.423 723, 527 723.450, 527 724 M 507.488 730.447 C 505.771 731.755, 505.705 732.099, 507 732.966 C 510.249 735.140, 512.822 733.506, 510.706 730.613 C 509.599 729.099, 509.278 729.083, 507.488 730.447 M 818.144 731.532 C 816.415 732.987, 815 734.826, 815 735.619 C 815 737.372, 829.124 744.078, 830.392 742.926 C 831.700 741.738, 828.676 736.026, 824.710 732.193 C 821.288 728.887, 821.288 728.887, 818.144 731.532 M 758.642 739.750 C 756.490 747.394, 757.250 751.017, 760.623 749.189 C 761.655 748.630, 763.795 746.812, 765.377 745.149 C 768.254 742.125, 768.254 742.125, 764.877 740.066 C 763.020 738.934, 760.968 738.006, 760.317 738.004 C 759.667 738.002, 758.913 738.788, 758.642 739.750 M 801.763 740.344 C 798.847 743.046, 797.385 746.785, 798.722 748.122 C 800.401 749.801, 814.485 754.818, 815.318 754.034 C 816.645 752.785, 813.192 745.798, 809.248 741.750 C 807.238 739.688, 805.301 738, 804.943 738 C 804.585 738, 803.154 739.055, 801.763 740.344 M 349.306 755.503 C 346.500 758.006, 346.500 758.006, 348.861 760.003 C 350.159 761.101, 352.045 762, 353.052 762 C 354.058 762, 355.134 762.408, 355.442 762.906 C 355.750 763.405, 358.027 764.503, 360.501 765.346 C 364.681 766.770, 365 766.757, 365 765.162 C 365 761.420, 357.639 753, 354.369 753 C 353.127 753, 350.849 754.126, 349.306 755.503 M 716.465 763.036 C 714.292 765.305, 713.802 766.459, 714.528 767.600 C 715.063 768.440, 718.637 770.448, 722.471 772.064 C 726.305 773.679, 729.568 775, 729.721 775 C 729.875 775, 730 773.975, 730 772.723 C 730 771.470, 729.256 769.332, 728.347 767.973 C 725.737 764.070, 721.731 760, 720.500 760 C 719.881 760, 718.065 761.366, 716.465 763.036 M 329.073 763.635 C 326.743 766.597, 326.373 770.249, 328.250 771.765 C 328.938 772.320, 332.580 773.998, 336.344 775.493 C 344.245 778.633, 345.921 778.081, 344.126 772.930 C 343.508 771.159, 341.397 767.750, 339.434 765.355 C 335.227 760.220, 332.159 759.711, 329.073 763.635 M 657.366 770.488 C 656.709 772.201, 658.805 781.761, 659.999 782.499 C 660.728 782.950, 667 774.162, 667 772.688 C 667 771.769, 661.383 769, 659.518 769 C 658.649 769, 657.680 769.670, 657.366 770.488 M 697.585 772.081 C 696.111 773.833, 695.044 775.988, 695.213 776.869 C 695.555 778.643, 710.561 786.772, 711.592 785.741 C 711.948 785.385, 711.943 783.508, 711.579 781.571 C 710.753 777.168, 705.102 769.601, 702.338 769.198 C 700.998 769.003, 699.318 770.022, 697.585 772.081" fill="#cccccc" opacity="1"/>
  </g>
  <g id="color-2" fill="#ff3333" stroke="none">
    <path d="M 0 512.001 C 0 1024.002, 0 1024.002, 512.250 1023.751 C 1024.500 1023.500, 1024.500 1023.500, 1024.751 511.750 C 1025.002 0, 1025.002 0, 512.501 0 C 0 0, 0 0, 0 512.001 M 0.496 512.500 C 0.496 794.100, 0.610 909.151, 0.750 768.168 C 0.890 627.186, 0.890 396.786, 0.750 256.168 C 0.610 115.551, 0.496 230.900, 0.496 512.500 M 697.883 240.642 C 695.630 243.358, 696.433 254.362, 699.501 262.838 C 700.961 266.874, 701.917 270.416, 701.625 270.709 C 701.332 271.001, 699.068 270.937, 696.593 270.566 C 688.572 269.363, 681.353 264.554, 668.368 251.765 C 665.440 248.881, 663.726 247.891, 662.485 248.367 C 661.030 248.926, 660.840 249.818, 661.364 253.642 C 661.711 256.174, 663.444 261.227, 665.214 264.873 C 669.415 273.521, 679.372 283.633, 687.500 287.504 C 694.755 290.959, 705.983 298.027, 707.872 300.328 C 709.131 301.861, 708.688 302, 702.557 302 C 695.550 302, 692 303.150, 692 305.419 C 692 306.360, 690.113 306.897, 685.750 307.198 C 682.137 307.448, 677.627 308.552, 675.062 309.815 C 672.621 311.017, 669.853 312, 668.911 312 C 666.955 312, 645.145 303.721, 641.989 301.781 C 640.843 301.077, 635.436 295.012, 629.975 288.305 C 616.993 272.362, 604.655 261.945, 601.954 264.646 C 600.674 265.926, 602.432 270.912, 608.951 284.495 C 611.728 290.281, 614 295.593, 614 296.300 C 614 297.806, 607.117 299.813, 599.132 300.635 C 591.899 301.379, 584.755 298.938, 572.509 291.538 C 567.554 288.544, 561.779 285.379, 559.677 284.503 C 555.566 282.792, 552 283.270, 552 285.533 C 552 288.122, 558.002 296.449, 565.140 303.765 C 569.088 307.811, 575.012 312.586, 578.512 314.544 C 586.011 318.737, 597.363 322.696, 617 327.964 C 624.975 330.104, 632.625 332.309, 634 332.864 C 636.068 333.699, 635.377 333.879, 630 333.905 C 626.425 333.922, 619 333.285, 613.500 332.488 C 600.375 330.586, 594.101 330.574, 593.382 332.447 C 592.576 334.547, 598.355 344.829, 604.590 352.388 C 607.553 355.980, 611.990 360.401, 614.450 362.210 C 616.910 364.020, 618.940 365.787, 618.961 366.139 C 618.982 366.490, 617.396 367.078, 615.435 367.446 C 609.659 368.530, 596.370 373.933, 594.559 375.935 C 592.978 377.681, 593.053 377.902, 595.922 379.945 C 597.592 381.134, 602.005 383.519, 605.729 385.246 C 611.113 387.743, 614.037 388.437, 620 388.634 C 624.125 388.770, 627.694 388.908, 627.931 388.941 C 628.168 388.973, 624.541 392.938, 619.872 397.750 C 615.202 402.563, 610.401 407.912, 609.203 409.638 C 607.510 412.075, 607.300 413.003, 608.262 413.798 C 610.614 415.742, 616.923 416.198, 625.560 415.049 C 630.328 414.414, 634.408 414.075, 634.627 414.294 C 634.846 414.513, 633.624 416.449, 631.911 418.596 C 627.593 424.007, 623.226 433.003, 623.461 436 C 623.727 439.391, 626.239 439.604, 635.611 437.033 C 639.822 435.878, 643.437 435.104, 643.645 435.312 C 643.854 435.520, 643.146 437.676, 642.073 440.101 C 638.192 448.877, 637.296 464.341, 640.515 467.012 C 641.425 467.767, 643.281 466.807, 647.405 463.448 C 650.509 460.919, 653.529 459.010, 654.116 459.205 C 655.555 459.685, 660.558 471.570, 663.712 482 C 665.799 488.902, 666.284 492.568, 666.288 501.500 C 666.296 518.564, 662.746 528.554, 654.429 534.870 C 650.343 537.973, 649.538 538.207, 644.246 537.819 C 640.558 537.549, 636.391 536.342, 632.611 534.449 C 626.962 531.620, 626.513 531.103, 621.605 521.771 C 618.790 516.421, 615.520 511.075, 614.337 509.893 C 612.187 507.743, 612.187 507.743, 609.844 511.359 C 608.555 513.348, 606.785 514.981, 605.911 514.988 C 604.177 515.001, 593.527 502.034, 587.458 492.519 C 578.028 477.734, 568.646 452.566, 565.885 434.645 C 565.279 430.715, 564.384 426.746, 563.896 425.824 C 562.690 423.546, 544.124 408.694, 535.509 403.117 C 524.071 395.712, 506.301 387.229, 493.500 383.063 C 486.900 380.915, 474.750 377.733, 466.500 375.993 C 453.287 373.204, 448.998 372.764, 430.500 372.295 C 414.414 371.887, 406.341 372.149, 396 373.414 C 376.500 375.798, 372.264 377.203, 374.922 380.406 C 375.599 381.222, 379.344 381.931, 384.758 382.270 C 389.617 382.574, 397.497 383.977, 402.500 385.429 C 415.998 389.347, 435.842 399.587, 446.281 408.021 C 459.728 418.886, 469.051 431.678, 467.634 437.322 C 467.279 438.735, 465.192 441.968, 462.995 444.506 C 460.798 447.045, 459 449.489, 459 449.938 C 459 450.388, 459.625 451.274, 460.388 451.907 C 461.455 452.792, 462.969 452.589, 466.925 451.030 C 470.182 449.746, 474.401 449, 478.406 449 C 485.723 449, 500.246 451.328, 507.500 453.663 C 516.263 456.484, 530.829 464.246, 539.296 470.607 C 551.097 479.473, 564.610 493.944, 569.854 503.331 C 572.249 507.618, 573.998 511.335, 573.742 511.592 C 573.485 511.848, 567.504 509.232, 560.450 505.779 C 547.625 499.500, 547.625 499.500, 540.765 490 C 536.992 484.775, 531.709 478.201, 529.024 475.392 C 522.740 468.814, 515.564 464.040, 512.978 464.716 C 511.890 465, 511 465.397, 511 465.596 C 511 465.796, 511.655 467.656, 512.456 469.730 C 513.640 472.797, 517 487.384, 517 489.458 C 517 489.756, 516.338 490, 515.528 490 C 514.719 490, 509.881 486.208, 504.778 481.572 C 493.547 471.371, 488.263 467.467, 481.476 464.361 C 475.032 461.410, 461.886 458, 456.957 458 C 454.127 458, 453.113 458.460, 452.732 459.919 C 452.355 461.357, 453.804 463.115, 458.515 466.936 C 465.289 472.433, 471.132 478.510, 473.003 482.005 C 474.170 484.187, 474.170 484.187, 459.335 483.771 C 444.614 483.359, 444.416 483.322, 433.500 479.016 C 422.565 474.702, 422.423 474.676, 409.500 474.620 C 396.938 474.566, 383.554 476.294, 382.429 478.116 C 382.128 478.602, 382.306 479, 382.824 479 C 383.343 479, 383.988 479.847, 384.259 480.881 C 384.537 481.944, 386.336 483.286, 388.394 483.965 C 392.519 485.327, 405 492.073, 405 492.941 C 405 493.254, 398.363 495.279, 390.250 497.440 C 374.346 501.677, 369.529 501.999, 352.054 499.997 C 334.127 497.942, 312 499.384, 312 502.607 C 312 503.437, 311.374 503.697, 310.336 503.299 C 309.217 502.869, 308.909 503.043, 309.395 503.830 C 309.793 504.474, 310.729 505, 311.476 505 C 312.222 505, 312.983 505.338, 313.167 505.750 C 313.350 506.163, 315.300 507.318, 317.500 508.318 C 323.603 511.093, 332 516.312, 332 517.331 C 332 518.443, 323.965 517.779, 310 515.514 C 303.217 514.414, 296.822 514.006, 291.935 514.360 C 283.937 514.940, 279 516.304, 279 517.933 C 279 518.473, 283.305 520.981, 288.567 523.507 C 294.037 526.132, 297.966 528.603, 297.741 529.277 C 297.525 529.926, 295.357 531.041, 292.924 531.757 C 289.137 532.870, 287.060 532.804, 278.500 531.300 C 271.912 530.143, 263.723 529.569, 254.500 529.621 C 243.480 529.682, 238.820 530.155, 232.608 531.845 C 224.573 534.030, 221.613 535.564, 222.539 537.063 C 222.823 537.523, 227.206 539.893, 232.278 542.329 C 237.350 544.766, 242.400 547.455, 243.500 548.305 C 245.412 549.782, 245.193 549.992, 238.500 553.067 C 231.869 556.115, 230.631 556.326, 215 557.079 C 193.531 558.112, 182.212 561.193, 172.149 568.742 C 169.594 570.659, 169.119 571.460, 170.149 572.113 C 171.147 572.746, 171.173 572.973, 170.250 572.985 C 169.563 572.993, 169 573.394, 169 573.877 C 169 574.359, 173.387 575.277, 178.750 575.917 C 184.113 576.557, 189.814 577.341, 191.421 577.658 C 194.321 578.230, 194.327 578.245, 192.258 579.867 C 179.080 590.196, 179.774 589.825, 169.476 592.054 C 163.989 593.241, 156.677 595.342, 153.226 596.722 C 148.574 598.583, 145.815 600.532, 142.551 604.263 C 140.130 607.030, 136.688 612.175, 134.901 615.695 C 131.702 621.998, 131.681 622.125, 133.576 623.932 C 135.445 625.716, 135.750 625.695, 144.236 623.204 C 149.041 621.793, 153.258 620.925, 153.608 621.274 C 155 622.667, 148.127 632.054, 138.324 642.149 C 132.636 648.005, 127.306 654.417, 126.479 656.397 C 125.652 658.376, 124.731 663.259, 124.432 667.248 C 123.882 674.598, 124.776 680.092, 126.623 680.708 C 127.181 680.894, 130.220 678.785, 133.377 676.023 C 136.533 673.260, 139.540 671, 140.058 671 C 141.710 671, 141.028 677.345, 138.875 682 C 134.888 690.622, 133 697.350, 133 702.935 C 133 707.252, 133.776 710.174, 136.343 715.528 C 139.813 722.766, 142.530 725.985, 143.837 724.408 C 144.251 723.908, 145.432 720.905, 146.463 717.733 C 147.493 714.561, 148.917 711.484, 149.627 710.895 C 151.160 709.622, 151.346 710.376, 152.865 724 C 153.714 731.621, 154.636 734.905, 157.524 740.604 C 159.505 744.511, 161.166 749.123, 161.215 750.854 C 161.282 753.200, 161.768 754, 163.129 754 C 164.133 754, 165.672 755.097, 166.550 756.437 C 167.429 757.777, 169.432 759.156, 171.003 759.501 C 173.353 760.017, 174.517 759.508, 177.564 756.634 C 179.957 754.377, 181.055 752.585, 180.665 751.570 C 179.613 748.827, 181.816 749.880, 183.659 753 C 184.634 754.650, 185.874 756, 186.416 756 C 186.957 756, 186.860 756.540, 186.200 757.200 C 184.500 758.900, 184.704 759.689, 187 760.290 C 188.300 760.630, 189 760.320, 189 759.406 C 189 758.633, 189.346 758, 189.768 758 C 190.191 758, 192.715 759.800, 195.377 762 C 198.040 764.200, 201.083 766, 202.141 766 C 203.199 766, 205.615 766.648, 207.510 767.440 C 209.406 768.232, 211.198 768.488, 211.494 768.009 C 211.790 767.530, 211.575 766.856, 211.016 766.510 C 209.488 765.566, 209.794 763.707, 211.378 764.315 C 212.136 764.606, 213.149 764.476, 213.628 764.026 C 214.910 762.825, 219 764.684, 219 766.468 C 219 767.310, 219.450 768, 220 768 C 220.550 768, 221 767.550, 221 767 C 221 766.450, 221.450 766, 222 766 C 222.550 766, 223.007 766.788, 223.015 767.750 C 223.028 769.184, 223.194 769.241, 223.937 768.068 C 224.674 766.903, 225.555 766.843, 228.671 767.748 C 230.777 768.359, 235.200 769.146, 238.500 769.497 C 241.800 769.847, 247.875 770.776, 252 771.561 C 257.229 772.556, 263.674 772.842, 273.286 772.505 C 285.731 772.070, 287.134 772.192, 287.711 773.761 C 288.063 774.718, 289.894 777.075, 291.779 779 C 294.337 781.611, 295.055 781.983, 294.604 780.464 C 294.073 778.671, 294.426 778.442, 297.566 778.546 C 300.739 778.651, 301.345 778.244, 303.086 774.832 C 304.161 772.724, 305.203 771, 305.401 771 C 305.600 771, 308.853 772.162, 312.631 773.582 C 316.409 775.003, 319.860 776.803, 320.300 777.582 C 320.753 778.386, 322.624 779, 324.621 779 C 326.558 779, 328.818 779.675, 329.643 780.500 C 330.468 781.325, 332.648 782, 334.488 782 C 336.328 782, 337.984 782.453, 338.169 783.007 C 338.540 784.121, 346.197 785.023, 349.020 784.284 C 350.007 784.026, 351.086 783.069, 351.417 782.158 C 353.421 776.636, 353.746 774.961, 352.912 774.446 C 352.411 774.136, 352 773.218, 352 772.406 C 352 771.280, 352.439 771.164, 353.847 771.918 C 355.117 772.598, 356.053 772.547, 356.847 771.753 C 357.718 770.882, 358 770.894, 358 771.800 C 358 772.460, 358.637 773, 359.417 773 C 360.196 773, 360.987 773.460, 361.174 774.023 C 361.362 774.586, 363.243 775.182, 365.354 775.349 C 368.465 775.594, 369.353 775.257, 370.033 773.575 C 370.495 772.434, 370.902 772.063, 370.937 772.750 C 371.031 774.610, 372.966 774.261, 373.708 772.250 C 374.064 771.288, 374.824 770.187, 375.399 769.804 C 376.042 769.375, 375.782 768.854, 374.722 768.447 C 373.775 768.083, 372.995 766.822, 372.988 765.643 C 372.981 764.464, 371.856 761.542, 370.488 759.148 C 369.120 756.754, 368 754.281, 368 753.653 C 368 753.024, 365.220 749.921, 361.823 746.758 C 356.325 741.638, 355.199 741.016, 351.573 741.091 C 349.333 741.137, 346.375 740.968, 345 740.715 C 343.625 740.462, 341.600 740.162, 340.500 740.049 C 339.371 739.932, 339.044 739.622, 339.750 739.338 C 341.704 738.549, 341.232 737.427, 338.402 736.137 C 336.741 735.380, 336.008 734.421, 336.371 733.477 C 336.682 732.665, 336.564 732, 336.108 732 C 335.653 732, 333.626 730.441, 331.605 728.535 C 328.308 725.425, 327.879 724.424, 327.418 718.785 C 327.135 715.328, 327.263 708.900, 327.702 704.500 C 328.500 696.500, 328.500 696.500, 351.678 695.355 C 364.610 694.716, 378.528 693.466, 383.162 692.527 C 387.731 691.602, 395.076 689.467, 399.484 687.784 C 405.412 685.521, 408.609 683.581, 411.759 680.335 C 415.935 676.031, 416.036 675.990, 416.954 678.223 C 425.286 698.493, 433.204 718.929, 433.334 720.500 C 433.460 722.014, 432.794 722.581, 430.597 722.831 C 427.844 723.145, 425 725.038, 425 726.556 C 425 726.940, 427.281 727.035, 430.069 726.767 C 434.571 726.335, 435.310 726.544, 436.684 728.640 C 437.593 730.028, 439.212 731, 440.615 731 C 441.927 731, 443 731.357, 443 731.794 C 443 732.231, 445.541 732.648, 448.646 732.721 C 451.751 732.794, 454.563 733.224, 454.896 733.677 C 455.228 734.129, 457.750 734.544, 460.500 734.597 C 473.847 734.855, 486.995 735.551, 486.998 736 C 487 736.275, 489.122 736.637, 491.714 736.804 C 494.306 736.972, 496.893 737.485, 497.463 737.946 C 499.282 739.415, 510.200 741.229, 513.751 740.653 C 515.636 740.347, 517.801 739.580, 518.563 738.948 C 519.324 738.316, 520.234 736.269, 520.585 734.400 C 521.043 731.959, 521.755 731, 523.111 731 C 524.150 731, 525 731.450, 525 732 C 525 732.550, 525.675 733, 526.500 733 C 527.325 733, 528 732.460, 528 731.800 C 528 730.982, 528.326 730.926, 529.023 731.623 C 530.697 733.297, 535.363 732.008, 537.368 729.318 C 538.887 727.280, 539.029 726.359, 538.130 724.386 C 537.522 723.052, 536.007 721.562, 534.762 721.077 C 533.518 720.591, 530.925 718.532, 529 716.501 C 527.075 714.471, 523.629 711.509, 521.343 709.921 C 517.186 707.032, 517.186 707.032, 498.343 707.266 C 480.173 707.492, 479.386 707.419, 476.323 705.234 C 473.202 703.008, 461.989 690.099, 458.581 684.809 C 456.847 682.118, 456.847 682.118, 460.674 681.168 C 462.778 680.646, 472.375 678.309, 482 675.975 C 491.625 673.641, 501.822 670.874, 504.661 669.827 C 510.811 667.558, 516.232 663.438, 520.242 657.986 C 521.854 655.794, 523.697 654.001, 524.337 654.002 C 524.976 654.003, 529.325 656.318, 534 659.145 C 543.946 665.162, 560.130 673.429, 566.051 675.518 C 568.502 676.383, 572.390 679.209, 575.560 682.429 C 578.509 685.426, 584.462 690.807, 588.789 694.386 C 598.557 702.468, 616.814 722, 614.600 722 C 612.424 722, 612.588 722.871, 615.250 725.454 C 616.487 726.655, 618.267 729.069, 619.203 730.819 C 620.261 732.794, 621.679 734, 622.942 734 C 625.672 734, 628.848 736.803, 630.480 740.654 C 631.216 742.388, 632.717 744.093, 633.816 744.442 C 634.916 744.791, 636.068 745.734, 636.376 746.538 C 636.685 747.342, 637.514 748.009, 638.219 748.020 C 638.923 748.031, 642.319 750.619, 645.763 753.770 C 651.932 759.413, 652.011 759.553, 651.013 762.993 C 649.553 768.028, 649.767 778.199, 651.417 782.148 C 652.751 785.341, 657 790.208, 657 788.544 C 657 788.123, 657.848 788.825, 658.884 790.105 C 660.768 792.432, 660.768 792.432, 664.164 788.966 C 666.032 787.060, 668.972 783.755, 670.698 781.621 C 673.837 777.743, 673.837 777.743, 678.336 779.921 C 680.811 781.119, 684.448 782.361, 686.418 782.680 C 688.388 783, 690 783.728, 690 784.298 C 690 784.867, 690.279 785.054, 690.621 784.713 C 691.496 783.838, 698.497 788.761, 698.513 790.262 C 698.522 791.147, 700.501 791.437, 705.458 791.277 C 710.693 791.109, 712.615 790.652, 713.312 789.407 C 713.997 788.184, 714.428 788.075, 714.990 788.983 C 715.574 789.929, 716.243 789.940, 717.937 789.034 C 719.521 788.186, 719.845 787.518, 719.106 786.628 C 718.191 785.525, 718.346 783.180, 719.601 779.137 C 719.945 778.028, 720.309 778.011, 721.557 779.048 C 722.401 779.748, 722.862 780.916, 722.583 781.645 C 721.880 783.476, 725.355 785.245, 726.804 783.796 C 727.619 782.981, 728.327 783.026, 729.458 783.965 C 730.588 784.903, 731 784.929, 731 784.063 C 731 783.414, 731.395 783.126, 731.879 783.425 C 732.362 783.724, 734.162 783.267, 735.879 782.411 C 738.802 780.952, 739 780.508, 739 775.395 C 739 771.583, 738.568 769.772, 737.569 769.388 C 736.755 769.076, 736.174 767.596, 736.220 765.954 C 736.309 762.848, 734.337 759.674, 732.880 760.574 C 731.378 761.502, 730.608 757.858, 731.876 755.827 C 733.370 753.435, 732.198 751.014, 730.597 753.186 C 729.994 754.005, 728.680 754.673, 727.677 754.671 C 726.424 754.668, 725.999 754.112, 726.318 752.890 C 727.046 750.108, 723.625 747.679, 719.789 748.256 C 716.551 748.743, 709 746.299, 709 744.764 C 709 744.344, 708.100 744, 707 744 C 705.900 744, 705 744.407, 705 744.904 C 705 745.402, 702.473 745.656, 699.384 745.470 C 695.261 745.221, 693.134 744.535, 691.384 742.891 C 690.073 741.659, 689 740.302, 689 739.876 C 689 738.823, 682.781 729.584, 681.791 729.167 C 681.356 728.983, 681 728.196, 681 727.417 C 681 726.637, 680.212 725.982, 679.250 725.961 C 677.566 725.924, 676.170 723.741, 661.640 698.412 C 659.088 693.964, 657 689.867, 657 689.309 C 657 688.750, 660.263 688.013, 664.250 687.671 C 668.237 687.328, 675.743 685.938, 680.929 684.581 C 690.357 682.115, 690.357 682.115, 693.929 684.876 C 697.386 687.549, 713.408 697.847, 740.670 714.918 C 747.913 719.454, 754.572 723.975, 755.468 724.965 C 756.566 726.177, 756.883 727.619, 756.440 729.382 C 755.817 731.864, 755.452 732, 749.392 732 C 745.797 732, 743 732.438, 743 733 C 743 733.550, 744.088 734, 745.418 734 C 750.582 734, 751 734.677, 751 743.042 C 751 747.347, 751.400 751.912, 751.889 753.185 C 752.378 754.458, 753.977 756.786, 755.441 758.358 C 757.914 761.011, 758.231 761.101, 759.883 759.606 C 760.862 758.720, 761.963 758.297, 762.331 758.664 C 762.699 759.032, 763 758.768, 763 758.077 C 763 756.163, 767.205 753.071, 769.857 753.033 C 771.579 753.009, 772.052 752.578, 771.613 751.435 C 771.153 750.234, 771.476 750.016, 773 750.500 C 774.524 750.984, 774.847 750.766, 774.387 749.565 C 773.941 748.405, 774.395 748.026, 776.143 748.100 C 778.886 748.216, 784.099 749.753, 782.250 749.900 C 781.563 749.955, 781 750.499, 781 751.108 C 781 751.782, 781.950 751.978, 783.420 751.610 C 786.007 750.960, 794.235 753.998, 797.231 756.709 C 798.615 757.962, 799.259 758.030, 800.437 757.052 C 801.249 756.379, 802.416 756.139, 803.031 756.519 C 803.784 756.985, 803.447 757.960, 802 759.500 C 800.553 761.040, 800.216 762.015, 800.969 762.481 C 802.334 763.325, 805 761.273, 805 759.378 C 805 757.754, 805.434 757.683, 807.764 758.927 C 808.719 759.437, 810.334 760.116, 811.354 760.435 C 812.401 760.764, 812.979 761.613, 812.682 762.387 C 811.741 764.839, 813.938 765.877, 816.921 764.390 C 821.312 762.199, 823.325 759.430, 822.606 756.567 C 822.077 754.460, 822.261 754.161, 823.738 754.721 C 825.416 755.356, 825.417 755.304, 823.750 753.623 C 821.872 751.728, 821.396 749, 822.943 749 C 823.461 749, 825.507 749.957, 827.488 751.126 C 830.350 752.814, 831.955 753.109, 835.295 752.559 C 841.855 751.478, 843.087 751.710, 846.089 754.585 C 848.383 756.783, 848.786 757.842, 848.295 760.387 C 847.695 763.500, 847.695 763.500, 849.856 761.587 C 851.922 759.759, 851.943 759.561, 850.338 757.087 C 848.384 754.075, 846.109 752.295, 840.549 749.429 C 837.135 747.669, 836.426 746.742, 835.832 743.265 C 835.017 738.490, 832.014 733.642, 825.155 726.028 C 820.225 720.556, 820.225 720.556, 806.481 720.028 C 792.738 719.500, 792.738 719.500, 787.364 713.500 C 781.153 706.564, 769.916 690.057, 754.050 664.564 C 742.888 646.627, 742.888 646.627, 744.916 644.064 C 751.338 635.947, 759.677 622.552, 762.980 615.046 C 770.986 596.852, 774.962 572.650, 773.032 553.848 C 771.151 535.518, 765.816 516.537, 758.405 501.814 C 753.809 492.684, 745.823 479.213, 738.953 469 C 729.264 454.599, 724 442.391, 724 434.324 C 724 430.068, 724.067 429.978, 726.750 430.639 C 735.824 432.872, 747.258 440.729, 753.801 449.229 C 758.870 455.814, 764.993 467.567, 764.997 470.720 C 764.999 472.026, 763.774 473.847, 762.021 475.143 C 759.765 476.811, 759.304 477.661, 760.121 478.646 C 762 480.910, 767.797 481.383, 772.247 479.635 C 774.506 478.748, 776.504 478.171, 776.687 478.354 C 776.870 478.537, 775.871 479.926, 774.468 481.440 C 772.351 483.724, 772.131 484.453, 773.179 485.716 C 774.158 486.895, 775.866 487.124, 780.755 486.732 C 785.533 486.348, 788.073 485.529, 791.200 483.362 C 793.473 481.788, 796.929 478.363, 798.880 475.750 C 802.278 471.199, 804.503 469.524, 803.428 472.328 C 803.148 473.058, 803.381 474.872, 803.947 476.360 C 804.937 478.964, 805.080 479.010, 807.813 477.597 C 811.995 475.434, 817.338 469.091, 820.362 462.701 C 821.825 459.607, 823.298 454.439, 823.635 451.215 C 824.248 445.355, 824.248 445.355, 818.948 440.138 C 815.714 436.955, 813.083 435.138, 812.197 435.478 C 811.399 435.784, 810.157 435.546, 809.437 434.948 C 808.524 434.190, 807.543 434.174, 806.195 434.895 C 803.666 436.249, 802.527 435.070, 804.766 433.416 C 806.155 432.389, 806.251 431.883, 805.250 430.867 C 804.315 429.920, 804 429.903, 804 430.800 C 804 431.460, 803.311 432, 802.469 432 C 801.626 432, 800.678 432.675, 800.362 433.500 C 800.045 434.325, 799.018 435, 798.080 435 C 796.514 435, 794.479 433.150, 789.622 427.311 C 787.801 425.123, 787.801 425.123, 791.900 425.179 C 794.155 425.210, 796 425.633, 796 426.118 C 796 426.603, 797.800 427, 800 427 C 802.200 427, 804 427.450, 804 428 C 804 428.550, 804.477 429, 805.059 429 C 805.641 429, 805.821 428.520, 805.458 427.933 C 805.094 427.343, 805.759 426.614, 806.947 426.304 C 810.284 425.431, 822.856 419.232, 829.500 415.183 C 834.523 412.123, 836.499 411.500, 841.635 411.362 C 845.477 411.259, 848.737 410.563, 850.360 409.500 C 854.263 406.942, 858.713 398.946, 860.069 392.053 C 861.005 387.296, 861.012 384.297, 860.099 378.769 C 858.708 370.345, 853.988 360.855, 849.477 357.415 C 844.476 353.600, 841.089 353.425, 831.819 356.499 C 824.936 358.782, 822.406 359.152, 816.535 358.732 C 812.666 358.454, 807.700 357.614, 805.500 356.864 C 802.078 355.697, 801.455 355.038, 801.190 352.298 C 800.985 350.180, 800.224 348.888, 798.940 348.481 C 796.669 347.760, 796.299 344, 798.500 344 C 799.325 344, 800 343.550, 800 343 C 800 342.450, 798.538 342.007, 796.750 342.015 C 794.962 342.024, 793.975 342.361, 794.555 342.765 C 795.963 343.746, 795.140 353.010, 793.649 352.967 C 793.017 352.948, 791.600 352.161, 790.500 351.217 C 786.122 347.460, 782.850 339.631, 785.252 338.662 C 786.248 338.260, 786.248 338.142, 785.250 338.079 C 783.106 337.944, 783.874 335.495, 787 332.500 C 788.650 330.919, 790 330.123, 790 330.730 C 790 331.337, 789.478 332.007, 788.840 332.220 C 787.972 332.509, 787.964 333.096, 788.810 334.553 C 789.915 336.459, 789.940 336.456, 789.970 334.450 C 789.986 333.322, 790.529 331.871, 791.176 331.224 C 792.078 330.322, 791.962 329.615, 790.676 328.195 C 789.754 327.176, 789 325.630, 789 324.760 C 789 320.825, 776.150 313.672, 761.638 309.530 C 756.764 308.138, 751.981 307, 751.009 307 C 749.983 307, 748.714 305.723, 747.980 303.952 C 746.645 300.729, 738.715 292.468, 729.831 285.047 C 726.899 282.597, 723.557 278.772, 722.405 276.547 C 721.116 274.057, 719.660 272.556, 718.621 272.645 C 717.438 272.746, 717.100 272.262, 717.491 271.030 C 717.839 269.931, 715.800 265.556, 712.064 259.385 C 708.772 253.948, 705.234 247.700, 704.202 245.500 C 703.170 243.300, 701.637 240.932, 700.795 240.238 C 699.543 239.204, 699.014 239.278, 697.883 240.642 M 701.403 252.166 C 703.260 261.147, 704.500 265.944, 705.720 268.867 C 706.492 270.718, 706.908 272.796, 706.644 273.484 C 705.888 275.456, 701.290 275.872, 694.873 274.549 C 690.774 273.704, 686.830 271.870, 681.964 268.545 C 678.110 265.912, 673.166 261.724, 670.978 259.238 C 667.713 255.528, 667 255.094, 667 256.812 C 667 262.137, 674.473 273.709, 681.013 278.509 C 683.682 280.469, 689.939 284.199, 694.916 286.799 C 699.894 289.398, 706.644 293.882, 709.916 296.763 C 714.513 300.809, 716.620 302.004, 719.183 302.018 C 721.007 302.028, 726.775 302.695, 732 303.500 C 737.225 304.305, 741.837 304.972, 742.250 304.982 C 744.198 305.029, 742.493 302.299, 737.001 296.579 C 733.701 293.143, 731.339 289.995, 731.751 289.583 C 732.163 289.170, 731.992 288.983, 731.370 289.167 C 728.941 289.884, 723.760 284.525, 717.033 274.340 C 712.914 268.104, 709.994 262.616, 709.985 261.096 C 709.976 259.668, 709.497 257.825, 708.919 257 C 708.097 255.826, 708.006 255.989, 708.502 257.750 C 708.850 258.988, 708.922 260, 708.662 260 C 708.403 260, 707.017 257.998, 705.583 255.552 C 702.487 250.269, 700.713 248.832, 701.403 252.166 M 608.511 273 C 608.882 274.375, 611.644 280.672, 614.650 286.994 C 620.110 298.475, 620.114 298.489, 618.042 300.167 C 615.419 302.291, 603.409 305.059, 596.456 305.142 C 593.538 305.177, 589.430 304.643, 587.326 303.956 C 583.918 302.843, 572.352 296.546, 563.203 290.823 C 561.389 289.689, 559.648 289.019, 559.333 289.333 C 558.504 290.163, 565.329 299.161, 569.963 303.347 C 572.143 305.317, 575.818 308.123, 578.130 309.582 C 584.176 313.399, 598.476 318.463, 615.728 322.898 C 624.410 325.129, 633.826 328.292, 638.108 330.414 C 642.174 332.429, 648.425 336.538, 652 339.545 C 660.787 346.937, 663.672 348.205, 668.603 346.844 C 673.470 345.500, 678.551 340.206, 679.420 335.573 C 680.405 330.327, 678.484 324.632, 674.572 321.197 C 672.701 319.555, 667.420 316.773, 662.836 315.014 C 650.076 310.120, 640.678 305.924, 638.817 304.290 C 637.892 303.477, 637.372 302.067, 637.662 301.156 C 638.068 299.880, 637.968 299.808, 637.227 300.845 C 636.493 301.871, 635.228 300.809, 631.883 296.357 C 629.472 293.149, 623.076 286.019, 617.669 280.512 C 610.686 273.400, 608.033 271.224, 608.511 273 M 786.583 339.643 C 786.237 340.547, 786.159 341.492, 786.410 341.743 C 787.205 342.538, 789 340.942, 789 339.441 C 789 337.479, 787.361 337.617, 786.583 339.643 M 721.211 348.558 C 720.501 349.351, 719.065 350, 718.020 350 C 715.158 350, 714.661 351.730, 716.957 353.696 C 718.411 354.940, 719.033 356.750, 719.116 359.972 C 719.180 362.463, 719.438 363.712, 719.689 362.750 C 720.373 360.135, 722 360.639, 722 363.466 C 722 366.972, 724.725 372.173, 727.734 374.411 C 729.148 375.463, 732.520 376.536, 735.229 376.796 C 740.772 377.329, 748 375.373, 748 373.340 C 748 372.603, 747.550 372, 747 372 C 746.450 372, 746 371.114, 746 370.031 C 746 368.722, 746.486 368.249, 747.451 368.620 C 748.619 369.068, 748.793 368.426, 748.343 365.338 C 747.386 358.767, 744.107 353.094, 739.630 350.259 C 736.461 348.252, 733.987 347.582, 729 347.380 C 724.334 347.191, 722.136 347.523, 721.211 348.558 M 730 350 C 730 350.550, 731.152 351, 732.559 351 C 734.010 351, 734.851 350.567, 734.500 350 C 734.160 349.450, 733.009 349, 731.941 349 C 730.873 349, 730 349.450, 730 350 M 697.002 389.998 C 695.117 391.164, 704.189 402.546, 708.932 404.965 C 711.017 406.029, 718.073 408.673, 724.611 410.841 C 738.706 415.514, 750.095 420.695, 753.284 423.884 C 753.898 424.498, 755.008 425, 755.751 425 C 756.629 425, 756.123 423.687, 754.307 421.250 C 752.769 419.188, 751.059 417.163, 750.506 416.752 C 749.953 416.340, 748.285 416.259, 746.799 416.570 C 745.178 416.911, 742.380 416.375, 739.799 415.231 C 735.202 413.193, 731.689 410, 734.044 410 C 734.753 410, 735.030 409.696, 734.659 409.325 C 733.749 408.415, 738.997 405.036, 741.500 404.921 C 743.041 404.849, 742.887 404.643, 740.828 404.021 C 739.359 403.578, 737.559 402.842, 736.828 402.386 C 736.098 401.929, 734.993 401.479, 734.374 401.385 C 733.755 401.290, 731.730 400.888, 729.874 400.490 C 726.500 399.767, 726.500 399.767, 729 402.468 C 731.500 405.170, 731.500 405.170, 729.023 407.179 C 725.970 409.656, 721.481 409.155, 716.993 405.837 C 713.519 403.268, 710 398.133, 710 395.632 C 710 394.734, 709.392 394, 708.649 394 C 707.906 394, 705.270 392.922, 702.791 391.603 C 700.128 390.188, 697.759 389.531, 697.002 389.998 M 718.441 398.418 C 720.664 400.230, 722 400.448, 722 399 C 722 398.450, 721.587 398, 721.082 398 C 720.577 398, 719.339 397.738, 718.332 397.418 C 716.656 396.886, 716.665 396.971, 718.441 398.418 M 752.989 411.986 C 754.725 414.178, 756.550 416.222, 757.044 416.527 C 757.537 416.832, 759.417 416.316, 761.221 415.379 C 764.500 413.676, 764.500 413.676, 758.500 410.915 C 755.200 409.396, 751.900 408.119, 751.166 408.077 C 750.392 408.032, 751.157 409.673, 752.989 411.986 M 777.028 420.534 C 778.742 422.599, 784 425.325, 784 424.148 C 784 422.878, 781.923 421.301, 778.568 420.026 C 775.995 419.048, 775.838 419.100, 777.028 420.534 M 760.542 427.932 C 760.179 428.519, 760.249 429, 760.698 429 C 761.147 429, 764.436 431.553, 768.007 434.672 C 774.337 440.202, 774.508 440.280, 774.806 437.775 C 774.975 436.362, 774.436 433.585, 773.608 431.603 C 772.237 428.324, 771.745 428, 768.133 428 C 765.950 428, 763.497 427.744, 762.683 427.432 C 761.869 427.119, 760.905 427.344, 760.542 427.932 M 709.860 434.412 C 704.732 439.327, 703.458 443.204, 704.559 450.547 C 704.927 452.996, 705.356 455, 705.514 455 C 705.672 455, 708.209 453.879, 711.151 452.510 C 714.093 451.140, 717.790 450.015, 719.367 450.010 C 722.562 449.999, 722.553 450.406, 719.600 439.701 C 718.720 436.512, 718 433.024, 718 431.951 C 718 428.714, 714.796 429.683, 709.860 434.412 M 810.150 440 C 810.725 441.650, 811.875 443, 812.705 443 C 813.635 443, 813.993 442.425, 813.638 441.500 C 813.322 440.675, 813.485 440, 814 440 C 814.515 440, 814.678 439.325, 814.362 438.500 C 814.045 437.675, 812.733 437, 811.445 437 C 809.278 437, 809.182 437.223, 810.150 440 M 777 440.911 C 777 441.962, 778.385 443.987, 780.077 445.411 C 783.405 448.211, 785.165 448.738, 784.552 446.750 C 784.340 446.063, 783.884 444.215, 783.538 442.645 C 783.050 440.428, 782.473 439.905, 780.955 440.302 C 779.880 440.583, 779 440.405, 779 439.906 C 779 439.408, 778.550 439, 778 439 C 777.450 439, 777 439.860, 777 440.911 M 807 448.192 C 803.975 449.672, 800.926 450.910, 800.225 450.942 C 799.524 450.974, 798.523 449.875, 798 448.500 C 797.477 447.125, 796.673 446, 796.212 446 C 795.751 446, 794.129 447.299, 792.608 448.887 C 789.842 451.775, 789.842 451.775, 792.909 453.305 C 795.112 454.404, 796.755 454.581, 798.738 453.932 C 800.257 453.436, 804.808 452.046, 808.850 450.844 C 812.893 449.642, 817.168 447.838, 818.350 446.836 C 820.490 445.022, 820.482 445.015, 816.500 445.257 C 814.300 445.391, 810.025 446.711, 807 448.192 M 713 456.827 C 709.465 458.177, 708.435 459.098, 708.198 461.120 C 707.925 463.454, 713.306 476.453, 714.972 477.483 C 715.354 477.719, 717.204 476.874, 719.083 475.606 C 720.962 474.338, 724.975 472.383, 728 471.262 C 731.025 470.140, 733.500 469.010, 733.500 468.749 C 733.500 468.488, 731.753 465.288, 729.618 461.638 C 725.813 455.130, 725.656 455.001, 721.618 455.054 C 719.353 455.084, 715.475 455.882, 713 456.827 M 727.928 475.933 C 722.532 477.991, 717 481.136, 717 482.147 C 717 482.541, 718.990 486.953, 721.423 491.951 C 723.856 496.950, 726.004 501.512, 726.196 502.089 C 726.398 502.693, 729.713 501.622, 733.995 499.570 C 738.092 497.606, 742.356 495.994, 743.472 495.986 C 744.587 495.979, 746.515 495.701, 747.756 495.368 C 750.012 494.764, 750.012 494.764, 746.844 489.132 C 745.102 486.034, 742.136 481.363, 740.253 478.750 C 736.429 473.445, 735.195 473.163, 727.928 475.933 M 743.500 500.411 C 739.027 501.521, 728 506.486, 728 507.389 C 728 507.585, 729.075 511.065, 730.390 515.122 C 731.704 519.180, 733.358 525.119, 734.065 528.321 C 735.213 533.520, 735.572 534.072, 737.425 533.490 C 744.732 531.193, 751.373 530.029, 757.250 530.016 C 760.962 530.007, 764 529.629, 764 529.175 C 764 527.420, 759.068 514.135, 755.675 506.750 C 753.089 501.123, 751.619 499.023, 750.307 499.085 C 749.313 499.132, 746.250 499.729, 743.500 500.411 M 753.500 534.684 C 751.300 534.876, 746.490 535.742, 742.811 536.609 C 736.122 538.186, 736.122 538.186, 736.276 552.843 C 736.430 567.500, 736.430 567.500, 746.465 567.651 C 751.984 567.734, 758.968 568.483, 761.984 569.315 C 765.001 570.147, 767.878 570.575, 768.379 570.266 C 769.473 569.590, 768.500 550.292, 767.022 543.365 C 764.881 533.326, 765.296 533.985, 761.231 534.168 C 759.179 534.261, 755.700 534.493, 753.500 534.684 M 734.610 576.885 C 734.078 580.891, 731.870 590.136, 729.301 599.109 C 728.947 600.348, 729.839 600.876, 733.170 601.401 C 735.552 601.776, 742.383 603.657, 748.351 605.580 C 756.014 608.050, 759.566 608.775, 760.440 608.050 C 761.121 607.485, 762.957 602.855, 764.521 597.761 C 766.328 591.873, 767.388 586.133, 767.432 582 C 767.500 575.500, 767.500 575.500, 761 573.818 C 757.254 572.849, 750.423 572.108, 744.879 572.068 C 735.258 572, 735.258 572, 734.610 576.885 M 470.037 591.613 C 466.482 592.390, 463.239 593.361, 462.830 593.770 C 461.879 594.721, 463.635 623.077, 464.701 623.975 C 465.140 624.346, 469.007 625.446, 473.294 626.420 C 480.568 628.073, 500.695 635.195, 506.103 638.029 C 507.422 638.719, 516.394 643.893, 526.042 649.525 C 545.645 660.969, 566.958 672.144, 567.978 671.514 C 568.346 671.286, 569.253 669.263, 569.994 667.018 C 570.987 664.009, 573.541 660.939, 579.709 655.339 C 584.311 651.161, 587.848 647.515, 587.569 647.236 C 586.696 646.363, 582.066 649.916, 573.854 657.762 C 567.850 663.498, 565.651 665.051, 564.773 664.173 C 563.895 663.295, 565.659 660.993, 572.057 654.667 C 576.701 650.077, 581.592 645.588, 582.927 644.692 C 585.355 643.063, 585.355 643.063, 579.933 636.782 C 573.588 629.431, 568.055 624, 566.911 624 C 565.278 624, 560.963 630.837, 556.160 641.037 C 553.451 646.792, 550.926 652.513, 550.549 653.750 C 549.847 656.060, 548.533 656.671, 547.580 655.129 C 545.920 652.444, 553.671 633.579, 560.056 624.765 C 561.675 622.529, 563 620.357, 563 619.939 C 563 619.177, 549.467 608.580, 545.565 606.285 C 544.429 605.617, 543.005 605.055, 542.401 605.035 C 540.935 604.988, 532.587 622.885, 530.406 630.750 C 529.452 634.188, 528.296 637, 527.836 637 C 527.376 637, 527 637.765, 527 638.700 C 527 639.953, 526.706 640.106, 525.881 639.281 C 523.495 636.895, 530.549 614.084, 536.249 605.757 C 537.281 604.248, 537.877 602.609, 537.571 602.115 C 536.967 601.138, 521.146 594.670, 516.857 593.646 C 514.291 593.034, 514.154 593.240, 512.109 600.819 C 510.951 605.110, 509.351 613.274, 508.553 618.960 C 507.090 629.382, 505.689 632.958, 504.391 629.576 C 503.275 626.669, 504.763 611.019, 506.926 602.895 C 508.040 598.712, 509.213 594.607, 509.533 593.774 C 510.344 591.661, 507.962 590.949, 497.862 590.286 C 489.984 589.768, 489.175 589.885, 488.663 591.609 C 487.452 595.695, 486 609.545, 486 617.013 C 486 624.933, 484.932 627.610, 483.123 624.229 C 481.111 620.470, 480.801 610.617, 482.408 601.500 C 483.280 596.550, 483.995 591.938, 483.997 591.250 C 484.001 589.628, 478.459 589.773, 470.037 591.613 M 450.045 599.038 C 445.945 601.198, 441.784 603.771, 440.799 604.756 C 439.618 605.938, 438.668 609.235, 438.007 614.443 C 437.457 618.786, 437.117 622.434, 437.253 622.549 C 437.389 622.665, 442.603 622.961, 448.841 623.208 C 460.181 623.657, 460.181 623.657, 459.462 620.579 C 459.066 618.885, 458.463 612.462, 458.121 606.305 C 457.500 595.111, 457.500 595.111, 450.045 599.038 M 723.884 611.750 C 722.114 615.462, 719.325 620.682, 717.686 623.350 C 716.018 626.064, 715.119 628.486, 715.646 628.850 C 722.688 633.719, 732.196 639.590, 734.823 640.693 C 736.651 641.460, 739.039 641.805, 740.129 641.459 C 742.764 640.623, 752.348 627.553, 756.057 619.738 C 759.017 613.500, 759.017 613.500, 755.759 612.628 C 753.966 612.149, 750.061 610.889, 747.080 609.829 C 742.797 608.305, 729.385 605, 727.486 605 C 727.275 605, 725.654 608.038, 723.884 611.750 M 331.750 617.739 C 325.087 618.157, 324.671 619.091, 328.294 625.500 C 330.556 629.500, 330.556 629.500, 337.778 629.794 C 345 630.088, 345 630.088, 345 623.544 C 345 616.171, 346.471 616.815, 331.750 617.739 M 304.500 620.141 C 297.700 621.004, 286.041 623.625, 285.182 624.484 C 284.948 624.718, 285.649 626.617, 286.740 628.705 C 288.368 631.820, 289.241 632.483, 291.611 632.406 C 295.838 632.268, 325.445 629.691, 325.814 629.429 C 325.986 629.307, 324.926 626.910, 323.459 624.103 C 320.810 619.038, 320.756 619.001, 316.145 619.126 C 313.590 619.196, 308.350 619.653, 304.500 620.141 M 266 629.652 C 260.775 631.623, 256.343 633.376, 256.152 633.549 C 255.960 633.722, 256.635 635.005, 257.652 636.400 C 258.772 637.938, 260.485 638.942, 262 638.949 C 264.555 638.960, 282.793 634.540, 283.626 633.708 C 283.879 633.455, 283.308 631.617, 282.358 629.624 C 281.024 626.828, 280.044 626.008, 278.065 626.035 C 276.654 626.054, 271.225 627.682, 266 629.652 M 433.829 633.953 C 432.938 637.279, 432.347 640, 432.516 640 C 432.684 640, 435.360 639.029, 438.462 637.842 C 443.988 635.727, 444.096 635.611, 443.801 632.092 C 443.514 628.672, 443.308 628.486, 439.475 628.203 C 435.450 627.907, 435.450 627.907, 433.829 633.953 M 707.226 638.383 C 704.326 641.880, 700.345 646.397, 698.380 648.420 C 695.639 651.243, 694.946 652.648, 695.401 654.463 C 696.110 657.288, 707.644 668, 709.977 668 C 710.877 668, 714.838 665.728, 718.780 662.950 C 726.085 657.804, 737.008 648.325, 736.990 647.150 C 736.984 646.792, 734.396 645.277, 731.240 643.783 C 728.083 642.289, 722.809 639.027, 719.520 636.533 C 716.230 634.040, 713.305 632.005, 713.020 632.012 C 712.734 632.018, 710.127 634.885, 707.226 638.383 M 306.500 635.684 C 297.597 636.457, 280.939 639.289, 271.755 641.590 C 260.957 644.296, 245.680 649.610, 238.904 653.016 C 225.801 659.603, 210.700 670.424, 205.420 677.011 C 198.056 686.195, 194.130 701.234, 195.959 713.248 C 198.107 727.358, 197.909 726.899, 203.897 731.600 C 206.979 734.019, 210.276 735.999, 211.224 735.999 C 212.173 736, 218.496 733.331, 225.276 730.069 C 232.056 726.807, 238.738 723.853, 240.126 723.505 C 241.761 723.094, 243.072 723.382, 243.852 724.322 C 244.827 725.496, 244.384 726.654, 241.528 730.395 C 239.588 732.937, 238 735.271, 238 735.580 C 238 735.890, 239.104 735.998, 240.454 735.822 C 243.261 735.454, 244.042 737.318, 241.303 737.850 C 239.309 738.237, 235 741.877, 235 743.174 C 235 743.628, 235.927 744, 237.059 744 C 238.191 744, 238.859 743.581, 238.543 743.069 C 238.226 742.557, 238.378 741.885, 238.879 741.575 C 239.380 741.265, 240.060 741.715, 240.390 742.575 C 240.778 743.584, 241.671 743.922, 242.911 743.528 C 243.967 743.193, 245.109 743.367, 245.448 743.916 C 245.787 744.464, 246.748 744.650, 247.583 744.330 C 248.432 744.004, 250.146 744.728, 251.469 745.971 C 253.280 747.672, 254.528 748.043, 256.782 747.548 C 258.555 747.158, 262.840 747.716, 267.552 748.951 C 271.856 750.078, 275.914 751, 276.572 751 C 277.229 751, 278.002 750.100, 278.290 749 C 278.577 747.900, 279.530 747, 280.406 747 C 281.471 747, 282 747.896, 282 749.700 C 282 751.381, 282.352 752.042, 282.932 751.450 C 283.444 750.928, 284.007 746.348, 284.182 741.273 C 284.442 733.719, 284.228 731.979, 283 731.678 C 281.667 731.350, 281.667 731.247, 283 730.751 C 283.825 730.443, 285.288 729.938, 286.250 729.627 C 287.506 729.222, 288.002 727.996, 288.009 725.281 C 288.014 723.202, 289.146 709.140, 290.524 694.034 C 293.393 662.604, 294.283 659.427, 301.209 655.894 C 303.407 654.772, 311.123 652.562, 318.353 650.982 C 349.926 644.086, 347 645.064, 347 641.406 C 347 634.793, 347.576 634.983, 328.143 635.168 C 318.439 635.261, 308.700 635.493, 306.500 635.684 M 246.500 637.665 C 244.850 638.537, 242.714 639.937, 241.754 640.777 C 240.429 641.935, 240.277 642.629, 241.126 643.652 C 242.692 645.538, 246.059 645.332, 251.453 643.020 C 256.070 641.041, 256.071 641.039, 254.421 638.520 C 253.513 637.134, 252.034 636.018, 251.135 636.040 C 250.236 636.062, 248.150 636.793, 246.500 637.665 M 227.177 648.592 C 223.230 651.117, 220.007 653.480, 220.015 653.842 C 220.024 654.204, 220.462 655.175, 220.989 656 C 221.800 657.270, 223.215 656.825, 230.223 653.094 C 234.776 650.671, 238.654 648.567, 238.841 648.419 C 239.029 648.272, 238.886 647.217, 238.524 646.075 C 238.162 644.934, 237.075 644, 236.110 644 C 235.144 644, 231.124 646.066, 227.177 648.592 M 679.454 664.439 C 674.478 668.486, 666.603 673.842, 661.954 676.342 C 653.276 681.008, 650.697 684, 655.354 684 C 660.371 684, 673.636 681.778, 682.740 679.412 C 693.053 676.733, 705 671.715, 705 670.063 C 705 669.478, 704.591 669, 704.092 669 C 703.592 669, 700.508 666.300, 697.239 663 C 693.969 659.700, 690.666 657.018, 689.897 657.041 C 689.129 657.063, 684.429 660.392, 679.454 664.439 M 207.581 664.679 C 203.961 668.352, 201 671.952, 201 672.679 C 201 673.406, 201.276 674, 201.612 674 C 202.998 674, 218 660.583, 218 659.344 C 218 656.246, 213.741 658.427, 207.581 664.679 M 181.121 675.745 C 180.593 677.810, 179.871 681.348, 179.517 683.607 C 178.872 687.714, 178.872 687.714, 184.198 687.714 C 187.128 687.714, 190.463 688.012, 191.610 688.376 C 193.363 688.932, 194.120 688.221, 196.348 683.927 C 197.807 681.116, 199 678.447, 199 677.997 C 199 676.704, 190.920 673.273, 186.290 672.601 C 182.100 671.992, 182.076 672.007, 181.121 675.745 M 180 694.433 C 180 697.773, 181.997 705.880, 182.967 706.480 C 183.363 706.725, 185.270 706.488, 187.205 705.954 C 190.598 705.017, 190.743 704.781, 191.311 699.275 C 191.635 696.135, 191.697 693.364, 191.449 693.116 C 191.201 692.867, 188.523 692.459, 185.499 692.208 C 180.088 691.760, 180 691.795, 180 694.433 M 186.464 711.058 C 186.105 711.639, 187.012 713.931, 188.480 716.149 C 189.949 718.368, 191.300 720.030, 191.484 719.842 C 191.668 719.654, 191.576 717.362, 191.279 714.750 C 190.857 711.030, 190.347 710, 188.929 710 C 187.933 710, 186.824 710.476, 186.464 711.058 M 515.033 715.728 C 513.727 717.199, 513.754 717.308, 515.283 716.722 C 516.465 716.268, 517 716.562, 517 717.664 C 517 719.251, 520.579 723, 522.094 723 C 522.527 723, 522.256 721.795, 521.492 720.322 C 520.728 718.849, 520.331 717.274, 520.610 716.822 C 520.890 716.370, 520.416 716, 519.559 716 C 518.702 716, 518 715.550, 518 715 C 518 713.529, 516.703 713.847, 515.033 715.728 M 524 721 C 525.958 722.266, 527.282 722.266, 526.500 721 C 526.160 720.450, 525.121 720.007, 524.191 720.015 C 522.734 720.029, 522.707 720.165, 524 721 M 500 722.741 C 499.175 723.062, 498.006 723.995, 497.402 724.815 C 496.798 725.635, 495.785 725.985, 495.152 725.594 C 494.475 725.175, 494 725.512, 494 726.410 C 494 727.308, 494.577 727.716, 495.399 727.400 C 496.168 727.105, 497.095 727.344, 497.458 727.932 C 497.821 728.519, 498.954 729, 499.976 729 C 500.997 729, 501.991 729.474, 502.184 730.053 C 502.525 731.076, 510.084 733.249, 510.803 732.530 C 511.537 731.796, 508.695 727.411, 505.761 724.750 C 502.581 721.866, 502.407 721.805, 500 722.741 M 577 723 C 577 723.550, 577.900 724, 579 724 C 580.100 724, 581 723.550, 581 723 C 581 722.450, 580.100 722, 579 722 C 577.900 722, 577 722.450, 577 723 M 593 723 C 593 723.578, 596.186 724, 600.559 724 C 605.344 724, 607.891 723.633, 607.500 723 C 607.160 722.450, 603.759 722, 599.941 722 C 595.980 722, 593 722.429, 593 723 M 393 724 C 393 724.550, 394.575 725, 396.500 725 C 398.425 725, 400 724.550, 400 724 C 400 723.450, 398.425 723, 396.500 723 C 394.575 723, 393 723.450, 393 724 M 371 725 C 371 725.550, 372.125 726, 373.500 726 C 374.875 726, 376 725.550, 376 725 C 376 724.450, 374.875 724, 373.500 724 C 372.125 724, 371 724.450, 371 725 M 532.500 728 C 532.160 728.550, 532.809 729, 533.941 729 C 535.073 729, 536 728.550, 536 728 C 536 727.450, 535.352 727, 534.559 727 C 533.766 727, 532.840 727.450, 532.500 728 M 713 729.899 C 713 730.394, 715.025 730.960, 717.500 731.157 C 721.990 731.514, 723.415 730.757, 720.418 729.607 C 718.015 728.685, 713 728.882, 713 729.899 M 817.455 732.455 C 816.105 733.805, 815 735.284, 815 735.743 C 815 736.650, 829.255 743.068, 829.885 742.445 C 830.096 742.235, 829.687 740.587, 828.975 738.782 C 827.428 734.859, 823.164 730, 821.267 730 C 820.520 730, 818.805 731.105, 817.455 732.455 M 269 732.842 C 269 733.368, 271.026 733.960, 273.502 734.157 C 276.230 734.374, 277.875 734.118, 277.675 733.507 C 277.249 732.209, 269 731.576, 269 732.842 M 759 744.622 C 759 749.815, 759.134 750.144, 760.750 748.920 C 764.771 745.876, 767 743.581, 767 742.486 C 767 741.228, 762.817 739, 760.453 739 C 759.355 739, 759 740.372, 759 744.622 M 801.783 740.750 C 800.944 741.712, 799.759 743.465, 799.150 744.645 C 798.317 746.258, 798.347 747.027, 799.271 747.745 C 801 749.089, 814.275 754.059, 814.781 753.552 C 815.011 753.322, 814.703 751.629, 814.096 749.790 C 812.638 745.374, 807.314 739, 805.082 739 C 804.107 739, 802.623 739.788, 801.783 740.750 M 377.500 754 C 377.840 754.550, 378.541 755, 379.059 755 C 379.577 755, 380 754.550, 380 754 C 380 753.450, 379.298 753, 378.441 753 C 377.584 753, 377.160 753.450, 377.500 754 M 349.655 755.829 C 347.694 757.996, 347.500 759.996, 349.250 760.009 C 349.938 760.014, 352.750 761.125, 355.500 762.478 C 360.865 765.117, 364 765.653, 364 763.930 C 364 763.342, 362.628 760.867, 360.952 758.430 C 358.387 754.702, 357.381 754, 354.607 754 C 352.683 754, 350.621 754.762, 349.655 755.829 M 149.606 757.584 C 149.233 758.557, 149.456 759.015, 150.187 758.771 C 151.682 758.273, 152.505 756, 151.190 756 C 150.653 756, 149.941 756.713, 149.606 757.584 M 151 761.765 C 151 762.828, 153.148 765, 154.200 765 C 155.752 765, 154.975 763.057, 153 762 C 151.900 761.411, 151 761.305, 151 761.765 M 717.223 762.557 C 716 763.413, 715 765.007, 715 766.099 C 715 767.579, 716.677 768.836, 721.593 771.042 C 725.219 772.669, 728.563 774, 729.023 774 C 730.439 774, 728.225 767.984, 725.489 764.397 C 724.064 762.529, 722.121 761, 721.172 761 C 720.222 761, 718.445 761.701, 717.223 762.557 M 329.610 763.879 C 328.675 764.912, 327.818 767.021, 327.705 768.565 C 327.513 771.196, 327.989 771.558, 335.276 774.326 C 339.553 775.951, 343.309 777.025, 343.622 776.712 C 344.754 775.579, 342.830 770.163, 339.862 766.127 C 337.578 763.022, 336.144 762, 334.068 762 C 332.551 762, 330.545 762.845, 329.610 763.879 M 156.624 764.538 C 155.887 766.457, 158.708 767.692, 160.267 766.133 C 161.111 765.289, 160.951 765, 159.641 765 C 158.674 765, 158.160 764.550, 158.500 764 C 158.840 763.450, 158.690 763, 158.166 763 C 157.642 763, 156.948 763.692, 156.624 764.538 M 841.073 766.136 C 841.904 767.689, 842.370 767.786, 844.030 766.749 C 845.113 766.073, 845.999 765.290, 845.998 765.009 C 845.996 764.729, 844.666 764.453, 843.041 764.396 C 840.467 764.305, 840.213 764.529, 841.073 766.136 M 165.688 766.646 C 164.272 768.061, 165.073 770, 167.073 770 C 168.471 770, 169.041 769.457, 168.823 768.333 C 168.466 766.492, 166.759 765.574, 165.688 766.646 M 832.604 766.832 C 832.284 767.350, 832.677 768.317, 833.477 768.981 C 834.487 769.820, 835.784 769.905, 837.716 769.261 C 839.247 768.751, 840.500 767.921, 840.500 767.417 C 840.500 766.177, 833.337 765.646, 832.604 766.832 M 658.314 774.006 C 658.640 776.759, 659.319 779.747, 659.822 780.646 C 660.592 782.022, 661.153 781.668, 663.368 778.408 C 664.816 776.278, 666 773.942, 666 773.217 C 666 772.491, 664.439 771.246, 662.532 770.449 C 660.625 769.652, 658.762 769, 658.393 769 C 658.024 769, 657.988 771.253, 658.314 774.006 M 698.455 771.455 C 694.638 775.272, 695.277 777.402, 701.250 780.764 C 704.138 782.390, 707.513 784.038, 708.750 784.427 C 710.642 785.022, 711 784.764, 711 782.803 C 711 778.312, 704.823 769, 701.844 769 C 701.330 769, 699.805 770.105, 698.455 771.455 M 819 771.500 C 818.315 772.325, 817.135 773, 816.378 773 C 815.620 773, 815 773.450, 815 774 C 815 775.122, 817.374 775.274, 820.750 774.370 C 822.073 774.015, 823 772.991, 823 771.883 C 823 769.626, 820.735 769.409, 819 771.500 M 830 771 C 830 771.550, 830.423 772, 830.941 772 C 831.459 772, 832.160 771.550, 832.500 771 C 832.840 770.450, 832.416 770, 831.559 770 C 830.702 770, 830 770.450, 830 771 M 826 772 C 826 772.550, 826.423 773, 826.941 773 C 827.459 773, 828.160 772.550, 828.500 772 C 828.840 771.450, 828.416 771, 827.559 771 C 826.702 771, 826 771.450, 826 772 M 218.149 779.604 C 217.406 780.444, 216.956 781.267, 217.149 781.433 C 217.342 781.599, 219.248 782.051, 221.384 782.438 C 224.742 783.046, 225.182 782.917, 224.634 781.489 C 224.285 780.580, 224 779.423, 224 778.918 C 224 777.430, 219.618 777.943, 218.149 779.604 M 779 779.417 C 779 780.196, 778.438 781.034, 777.750 781.280 C 777.063 781.525, 776.725 781.963, 777 782.252 C 777.803 783.098, 789 780.758, 789 779.745 C 789 779.225, 787.260 779.118, 785 779.500 C 782.370 779.944, 781 779.803, 781 779.088 C 781 778.490, 780.550 778, 780 778 C 779.450 778, 779 778.638, 779 779.417 M 769 780 C 769 780.550, 770.575 781, 772.500 781 C 774.425 781, 776 780.550, 776 780 C 776 779.450, 774.425 779, 772.500 779 C 770.575 779, 769 779.450, 769 780 M 326.694 782.639 C 326.342 782.991, 326.268 783.624, 326.528 784.046 C 327.143 785.040, 331 784.038, 331 782.883 C 331 781.870, 327.653 781.680, 326.694 782.639 M 760.500 783 C 760.160 783.550, 758.559 784, 756.941 784 C 755.323 784, 754 784.511, 754 785.136 C 754 785.910, 755.460 786.072, 758.583 785.644 C 763.825 784.925, 765.276 784.255, 764.457 782.931 C 763.696 781.699, 761.278 781.741, 760.500 783 M 741 786 C 741 787.912, 741.372 788.079, 744.250 787.463 C 746.038 787.080, 747.688 786.594, 747.917 786.383 C 748.610 785.746, 747.661 785.268, 744.250 784.537 C 741.372 783.921, 741 784.088, 741 786 M 254 786 C 254 786.550, 254.675 787, 255.500 787 C 256.325 787, 257 786.550, 257 786 C 257 785.450, 256.325 785, 255.500 785 C 254.675 785, 254 785.450, 254 786 M 269 788 C 269 788.550, 269.675 789, 270.500 789 C 271.325 789, 272 788.550, 272 788 C 272 787.450, 271.325 787, 270.500 787 C 269.675 787, 269 787.450, 269 788 M 281 788.915 C 281 789.418, 283.926 789.980, 287.502 790.165 C 293.774 790.488, 295.716 789.873, 292.418 788.607 C 289.940 787.656, 281 787.897, 281 788.915 M 670.461 789.063 C 670.100 789.648, 670.593 790.998, 671.557 792.063 C 673.421 794.122, 676 794.666, 676 793 C 676 792.450, 675.325 792, 674.500 792 C 673.667 792, 673 791.111, 673 790 C 673 787.857, 671.540 787.318, 670.461 789.063 M 308.276 791.329 C 308.755 792.767, 312 793.518, 312 792.190 C 312 791.664, 311.074 790.991, 309.943 790.695 C 308.634 790.353, 308.028 790.584, 308.276 791.329 M 630.750 793.778 C 627.560 794.450, 628.935 795.868, 633.429 796.542 C 637.939 797.218, 640 796.691, 640 794.862 C 640 794.239, 638.782 794.109, 636.875 794.527 C 635.156 794.905, 633.469 794.808, 633.125 794.312 C 632.781 793.816, 631.712 793.576, 630.750 793.778 M 366.750 794.721 C 365.238 794.948, 364 795.553, 364 796.066 C 364 796.590, 369.045 797, 375.500 797 C 382.500 797, 387 796.609, 387 796 C 387 795.423, 383.861 795, 379.582 795 C 375.502 795, 371.564 794.845, 370.832 794.655 C 370.099 794.465, 368.262 794.495, 366.750 794.721 M 593 795 C 593 795.550, 593.900 796, 595 796 C 596.100 796, 597 795.550, 597 795 C 597 794.450, 596.100 794, 595 794 C 593.900 794, 593 794.450, 593 795 M 603.814 795.057 C 603.611 795.668, 598.712 796.365, 592.231 796.707 C 584.091 797.137, 581 796.983, 581 796.150 C 581 795.475, 579.347 795, 577 795 C 574.800 795, 573 795.450, 573 796 C 573 796.550, 574.763 797, 576.917 797 C 579.071 797, 580.987 797.462, 581.176 798.027 C 581.404 798.713, 588.051 798.827, 601.259 798.370 C 619.525 797.737, 621 797.548, 621 795.843 C 621 794.667, 620.277 794, 619 794 C 617.900 794, 617 794.450, 617 795 C 617 795.550, 614.975 796, 612.500 796 C 610.025 796, 608 795.550, 608 795 C 608 793.662, 604.262 793.713, 603.814 795.057 M 417 796 C 417 796.550, 418.800 797, 421 797 C 423.200 797, 425 797.450, 425 798 C 425 798.550, 427.025 799, 429.500 799 C 431.975 799, 434 798.550, 434 798 C 434 797.450, 431.975 797, 429.500 797 C 427.025 797, 425 796.550, 425 796 C 425 795.450, 423.200 795, 421 795 C 418.800 795, 417 795.450, 417 796 M 391 797 C 391 797.550, 393.250 798, 396 798 C 398.750 798, 401 797.550, 401 797 C 401 796.450, 398.750 796, 396 796 C 393.250 796, 391 796.450, 391 797 M 403 796.791 C 403 797.358, 405.813 797.993, 409.250 798.201 C 412.688 798.409, 415.688 798.449, 415.917 798.290 C 417.139 797.440, 414.281 796.576, 408.979 796.192 C 405.259 795.923, 403 796.149, 403 796.791" fill="#ff3333" opacity="1"/>
  </g>
</svg>